<?xml version="1.0" encoding="UTF-8"?>
<svg id="Layer_1" xmlns="http://www.w3.org/2000/svg" version="1.1" viewBox="0 0 24 24">
  <!-- Generator: Adobe Illustrator 29.0.1, SVG Export Plug-In . SVG Version: 2.1.0 Build 192)  -->
  <defs>
    <style>
      .st0 {
        fill: #ffe6c1;
      }

      .st1 {
        fill: #fff;
      }

      .st2 {
        fill: #d9edff;
      }

      .st3 {
        fill: #ffb057;
      }
    </style>
  </defs>
  <path class="st2" d="M12.5,13.7v-3.7h2.5l-1-1h-1.5v-4c0-.3,0-.5.3-.7.2-.2.4-.3.7-.3h2.4c.2,0,.4,0,.5.1s.3.2.4.4l2,3.5h-1.5l-1-2h-2.3v1h1.7l1,2h2.6l1.5,2.6c-.4-.2-.9-.3-1.4-.4s-.9-.2-1.4-.2c-1.1,0-2.2.2-3.1.7s-1.8,1.1-2.4,2ZM10.5,20h-2.4c-.2,0-.4,0-.5-.1s-.3-.2-.4-.4l-2-3.5h1.5l1,2h2.3v-1h-1.7l-1-2h-2.6l-1.4-2.5c0,0,0-.2,0-.3s0-.2,0-.3,0-.2.1-.5l1.4-2.5h2.6l1-2h1.7v-1h-2.3l-1,2h-1.5l2-3.5c0-.2.2-.3.4-.4s.3-.1.5-.1h2.4c.3,0,.5,0,.7.3s.3.4.3.7v4h-1.5l-1,1h2.5v3h-2.2l-1-2h-2.3l-1,1h2.7l1,2h2.8v1.4c-.2.4-.3.8-.4,1.3s-.1.9-.1,1.4,0,.6,0,.9,0,.6.2.9c0,0-.2.2-.3.2s-.3,0-.4,0Z"/>
  <ellipse class="st2" cx="47.9" cy="1.3" rx="7" ry="7.5"/>
  <ellipse class="st0" cx="42.9" cy="20.6" rx="7" ry="7.5"/>
  <ellipse class="st3" cx="26.9" cy="36.5" rx="7" ry="7.5"/>
  <circle class="st3" cx="18" cy="18" r="5"/>
  <path class="st1" d="M18,21.3c.2,0,.3,0,.5-.2.1-.1.2-.3.2-.5s0-.3-.2-.5c-.1-.1-.3-.2-.5-.2s-.3,0-.5.2-.2.3-.2.5,0,.3.2.5.3.2.5.2Z"/>
  <path class="st1" d="M17.5,19.2h1c0-.3,0-.5.1-.7s.2-.4.4-.6c.2-.2.4-.4.6-.7s.3-.5.3-.9-.2-.8-.5-1.2-.8-.5-1.3-.5-.8.1-1.2.4-.6.6-.7,1l.9.4c0-.2.2-.4.4-.6s.4-.2.6-.2.4,0,.6.2c.2.1.2.3.2.5s0,.4-.2.6-.3.4-.5.5c-.2.2-.4.5-.5.7s-.2.6-.2,1Z"/>
</svg>