<svg width="40" height="40" viewBox="0 0 40 40" fill="none" xmlns="http://www.w3.org/2000/svg">
<g id="Instagram" clip-path="url(#clip0_17_57)">
<path id="Vector" d="M20 0C14.5725 0 13.89 0.024961 11.7575 0.119813C9.625 0.219657 8.1725 0.554134 6.9 1.04836C5.56461 1.54839 4.35535 2.33485 3.3575 3.35226C2.3385 4.34856 1.55081 5.55593 1.05 6.88924C0.555 8.15725 0.2175 9.60998 0.12 11.7317C0.025 13.8658 0 14.5448 0 19.9713C0 25.3928 0.025 26.0718 0.12 28.2009C0.22 30.3276 0.555 31.7778 1.05 33.0484C1.5625 34.3613 2.245 35.4746 3.3575 36.5853C4.4675 37.6961 5.5825 38.38 6.8975 38.8892C8.1725 39.3835 9.6225 39.7204 11.7525 39.8178C13.8875 39.9126 14.5675 39.9376 20 39.9376C25.4325 39.9376 26.11 39.9126 28.245 39.8178C30.3725 39.7179 31.83 39.3835 33.1025 38.8892C34.437 38.3889 35.6454 37.6024 36.6425 36.5853C37.755 35.4746 38.4375 34.3613 38.95 33.0484C39.4425 31.7778 39.78 30.3276 39.88 28.2009C39.975 26.0718 40 25.3928 40 19.9688C40 14.5448 39.975 13.8658 39.88 11.7342C39.78 9.60998 39.4425 8.15725 38.95 6.88924C38.4492 5.55593 37.6615 4.34856 36.6425 3.35226C35.6446 2.33485 34.4354 1.54839 33.1 1.04836C31.825 0.554134 30.37 0.217161 28.2425 0.119813C26.1075 0.024961 25.43 0 19.995 0H20ZM18.2075 3.59938H20.0025C25.3425 3.59938 25.975 3.61685 28.0825 3.7142C30.0325 3.80156 31.0925 4.12855 31.7975 4.40062C32.73 4.76256 33.3975 5.19688 34.0975 5.89579C34.7975 6.5947 35.23 7.25866 35.5925 8.1922C35.8675 8.8936 36.1925 9.95195 36.28 11.8989C36.3775 14.0031 36.3975 14.6346 36.3975 19.9638C36.3975 25.293 36.3775 25.927 36.28 28.0312C36.1925 29.9782 35.865 31.034 35.5925 31.7379C35.2696 32.6038 34.7581 33.3873 34.095 34.0318C33.395 34.7307 32.73 35.1626 31.795 35.5245C31.095 35.7991 30.035 36.1236 28.0825 36.2134C25.975 36.3083 25.3425 36.3307 20.0025 36.3307C14.6625 36.3307 14.0275 36.3083 11.92 36.2134C9.97 36.1236 8.9125 35.7991 8.2075 35.5245C7.33958 35.2031 6.554 34.6933 5.9075 34.0318C5.24318 33.3868 4.73082 32.6024 4.4075 31.7354C4.135 31.034 3.8075 29.9757 3.72 28.0287C3.625 25.9245 3.605 25.293 3.605 19.9588C3.605 14.6246 3.625 13.9981 3.72 11.8939C3.81 9.94696 4.135 8.88861 4.41 8.18471C4.7725 7.25367 5.2075 6.58721 5.9075 5.8883C6.6075 5.18939 7.2725 4.75757 8.2075 4.39563C8.9125 4.12106 9.97 3.79657 11.92 3.70671C13.765 3.62184 14.48 3.59688 18.2075 3.59438V3.59938ZM30.6775 6.9142C30.3623 6.9142 30.0502 6.97618 29.7591 7.0966C29.4679 7.21702 29.2033 7.39353 28.9804 7.61604C28.7576 7.83856 28.5808 8.10272 28.4602 8.39345C28.3396 8.68417 28.2775 8.99577 28.2775 9.31045C28.2775 9.62513 28.3396 9.93673 28.4602 10.2275C28.5808 10.5182 28.7576 10.7823 28.9804 11.0049C29.2033 11.2274 29.4679 11.4039 29.7591 11.5243C30.0502 11.6447 30.3623 11.7067 30.6775 11.7067C31.314 11.7067 31.9245 11.4542 32.3746 11.0049C32.8246 10.5555 33.0775 9.94598 33.0775 9.31045C33.0775 8.67493 32.8246 8.06543 32.3746 7.61604C31.9245 7.16666 31.314 6.9142 30.6775 6.9142ZM20.0025 9.71482C18.6402 9.6936 17.2872 9.94318 16.0224 10.449C14.7577 10.9549 13.6063 11.7069 12.6354 12.6613C11.6645 13.6157 10.8934 14.7534 10.3671 16.0081C9.8408 17.2629 9.56975 18.6097 9.56975 19.97C9.56975 21.3304 9.8408 22.6772 10.3671 23.932C10.8934 25.1867 11.6645 26.3244 12.6354 27.2788C13.6063 28.2332 14.7577 28.9852 16.0224 29.4911C17.2872 29.9969 18.6402 30.2465 20.0025 30.2253C22.6989 30.1833 25.2705 29.0843 27.1624 27.1657C29.0544 25.247 30.1148 22.6625 30.1147 19.97C30.1148 17.2776 29.0544 14.6931 27.1624 12.7744C25.2705 10.8558 22.6989 9.75682 20.0025 9.71482ZM20.0025 13.3117C20.8781 13.3117 21.7451 13.4839 22.554 13.8184C23.363 14.153 24.098 14.6433 24.7171 15.2615C25.3363 15.8797 25.8274 16.6136 26.1625 17.4212C26.4975 18.2289 26.67 19.0946 26.67 19.9688C26.67 20.843 26.4975 21.7087 26.1625 22.5164C25.8274 23.324 25.3363 24.0579 24.7171 24.6761C24.098 25.2942 23.363 25.7846 22.554 26.1192C21.7451 26.4537 20.8781 26.6259 20.0025 26.6259C18.2342 26.6259 16.5383 25.9245 15.2879 24.6761C14.0375 23.4276 13.335 21.7344 13.335 19.9688C13.335 18.2032 14.0375 16.51 15.2879 15.2615C16.5383 14.0131 18.2342 13.3117 20.0025 13.3117Z" fill="#00A39B"/>
</g>
<defs>
<clipPath id="clip0_17_57">
<rect width="40" height="39.9376" fill="white"/>
</clipPath>
</defs>
</svg>
