<svg width="30" height="30" viewBox="0 0 30 30" fill="none" xmlns="http://www.w3.org/2000/svg">
<g id="Linkedin" clip-path="url(#clip0_21_260)">
<path id="Vector" d="M0 2.1454C0 0.960374 0.98625 0 2.20312 0H27.7969C29.0138 0 30 0.960374 30 2.1454V27.8078C30 28.9928 29.0138 29.9532 27.7969 29.9532H2.20312C0.98625 29.9532 0 28.9928 0 27.8078V2.1454ZM9.26812 25.0746V11.5488H4.76625V25.0746H9.26812ZM7.01813 9.70109C8.5875 9.70109 9.56437 8.66396 9.56437 7.36474C9.53625 6.03744 8.58938 5.02839 7.04813 5.02839C5.50688 5.02839 4.5 6.03931 4.5 7.36474C4.5 8.66396 5.47687 9.70109 6.98812 9.70109H7.01813ZM16.2206 25.0746V17.5207C16.2206 17.1164 16.2506 16.712 16.3706 16.4237C16.695 15.6168 17.4356 14.78 18.6806 14.78C20.31 14.78 20.9606 16.0193 20.9606 17.839V25.0746H25.4625V17.3167C25.4625 13.1607 23.2425 11.2287 20.28 11.2287C17.8913 11.2287 16.8206 12.5392 16.2206 13.4621V13.5089H16.1906L16.2206 13.4621V11.5488H11.7206C11.7769 12.8181 11.7206 25.0746 11.7206 25.0746H16.2206Z" fill="#00A39B"/>
</g>
<defs>
<clipPath id="clip0_21_260">
<rect width="30" height="29.9532" fill="white"/>
</clipPath>
</defs>
</svg>
