<?xml version="1.0" encoding="UTF-8"?>
<svg id="Layer_2" data-name="Layer 2" xmlns="http://www.w3.org/2000/svg" viewBox="0 0 500 500">
  <defs>
    <style>
      .cls-1 {
        fill: #fff;
      }

      .cls-2 {
        fill: #00a39b;
      }

      .cls-3 {
        fill: #91c7c4;
      }

      .cls-4 {
        fill: #eeb569;
      }
    </style>
  </defs>
  <g id="Layer_1-2" data-name="Layer 1">
    <rect class="cls-1" width="500" height="500" rx="172.22" ry="172.22"/>
    <g>
      <path class="cls-3" d="M355.16,0h-210.32C64.99,0,0,64.99,0,144.84v210.32C0,435.01,64.99,500,144.84,500h210.32c79.85,0,144.84-64.99,144.84-144.84v-210.32C500,64.99,435.01,0,355.16,0ZM468,355.16c0,30.02-11.75,58.33-33.2,79.71-21.38,21.38-49.7,33.2-79.71,33.2h-210.32c-30.02,0-58.33-11.75-79.71-33.2-21.38-21.38-33.2-49.7-33.2-79.71v-210.32c0-30.02,11.75-58.33,33.2-79.71,21.38-21.38,49.7-33.2,79.71-33.2h210.32c30.02,0,58.33,11.75,79.71,33.2,21.38,21.38,33.2,49.7,33.2,79.71,0,0,0,210.32,0,210.32Z"/>
      <g>
        <rect class="cls-2" x="223.06" y="375.12" width="53.38" height="53.38" rx="20.46" ry="20.46"/>
        <path class="cls-2" d="M240.12,94.37c21.24,0,37.59.64,51.11,1.49-2.05-19.68-11.11-34.9-22.79-34.9h-37.52c-11.75,0-20.81,15.36-22.79,35.18,8.85-1.2,18.97-1.77,30.94-1.84h1.06v.07Z"/>
        <path class="cls-4" d="M278.42,307.87l-1.91,23.5c7.43,1.7,14.16,3.11,19.47,4.18,6.94,1.35,13.73-2.62,15.08-8.85l.14-.71c1.27-5.95-2.97-11.75-9.63-13.03-6.16-1.2-14.23-2.9-23.08-5.03h-.07v-.07Z"/>
        <path class="cls-4" d="M286.78,179.81l-1.77,23.72c3.82,1.06,7.36,2.34,10.48,3.68,11.19,5.03,12.6,10.05,12.46,14.72,0,2.05-.21,5.95-10.76,9.2-4.32,1.35-9.27,2.19-14.44,2.83-3.04.35-6.09.64-9.13.92-3.04.21-5.95.42-8.71.64-5.45.35-10.19.64-14.23,1.27-2.41.35-4.6.78-6.51,1.42-.5.14-1.06.28-1.63.42s-1.27.28-2.05.5c-.35.07-.71.14-1.13.21-1.13.21-2.41.5-3.68.71-.71.14-1.42.28-2.12.42-3.61.71-7.5,1.56-11.54,2.62-1.63.42-3.19.92-4.81,1.42-3.75,1.2-7.5,2.69-11.11,4.6-12.88,6.87-20.46,17.41-21.73,30.65-1.06,10.76,6.65,20.6,23.08,29.1,4.32,2.27,9.34,4.46,15.01,6.65l-.85-9.56c-.28-4.04-1.13-9.98-1.7-17.49h0s-.42-.21-.64-.35c-7.57-4.11-7.65-15.08-.07-19.11,0,0,.14,0,.14-.07,6.23-3.33,14.58-4.96,22.02-6.44,4.18-.85,8.14-1.63,11.47-2.69,1.91-.57,8.92-1.06,14.02-1.35,11.75-.78,26.33-1.7,38.86-5.59,22.79-7.01,27.96-20.39,28.25-30.44.57-19.61-14.23-30.44-26.83-36.03-6.16-2.76-13.1-4.88-20.1-6.65h-.21v.07Z"/>
        <path class="cls-4" d="M354.31,121.12c-6.44-3.11-11.47-6.02-12.6-7.65-6.94-6.16-9.84-11.54-33.06-16.28-5.31-.5-10.97-.99-17.27-1.35-13.52-.85-29.87-1.49-51.11-1.49h-1.06c-11.89,0-22.09.64-30.94,1.84-7.43.99-13.88,2.41-19.61,4.25-27.4,8.85-31.5,26.55-31.5,36.39,0,17.91,10.12,32,30.02,41.84,8.14,4.04,17.34,7.01,26.41,9.42l-1.84-24.92h-.14c-4.18-1.42-8.21-2.97-11.82-4.74-14.8-7.29-16.64-15.43-16.64-21.59,0-5.17,0-19.04,56.28-19.26h.92c28.74,0,56.99,21.38,93.52,25.13,13.38,1.42,25.91-1.98,26.48-7.79,1.06-10.76-5.88-13.73-5.88-13.73l-.14-.07ZM322.53,125.87c-4.04,0-7.36-3.33-7.36-7.36s3.33-7.36,7.36-7.36,7.36,3.33,7.36,7.36-3.33,7.36-7.36,7.36Z"/>
        <path class="cls-2" d="M211.52,163.17l1.84,24.92,2.41,31.93c0,.71.21,1.49.5,2.12l.92,22.37c1.63-.5,3.26-.99,4.81-1.42,4.04-1.06,7.93-1.91,11.54-2.62.71-.14,1.42-.28,2.12-.42,1.27-.28,2.55-.5,3.68-.71.35-.07.78-.14,1.13-.21.71-.14,1.42-.28,2.05-.5s1.2-.28,1.63-.42c1.91-.57,4.04-1.06,6.51-1.42,4.04-.57,8.78-.92,14.23-1.27,2.76-.21,5.73-.35,8.71-.64,3.04-.21,6.09-.57,9.13-.92l.5-11.68c.28-.71.5-1.49.57-2.27l1.2-16.49,1.77-23.72h.21l1.56-23.64.42-5.8v-1.2c.42-6.16-4.04-11.54-10.19-12.25-14.02-1.63-28.81-2.83-41.63-2.83h-.92c-5.59,0-10.55.21-15.08.5-6.37.42-11.19,5.95-10.76,12.32l.21,3.4h0v.28l.85,12.39h.14l-.07.21Z"/>
        <path class="cls-2" d="M222.43,315.59l2.48,27.33c0,.57.14,1.13.28,1.7,1.06,6.73,7.36,11.82,14.51,11.82h20.03c1.2,0,2.34-.14,3.47-.42,3.47-.57,7.36-2.41,10.26-7.93,1.42-2.69,2.19-5.73,2.41-8.78l.64-8,1.91-23.5h.07l.42-6.65h0l1.2-18.12c.28-4.81-4.18-8.78-9.49-8.35-2.48.21-4.96.35-7.22.5-5.03.35-11.96.78-13.88,1.35-3.33,1.06-7.22,1.84-11.33,2.69-3.96.78-8.28,1.7-12.32,2.83-3.26.92-5.59,3.47-6.09,6.44h0c.57,7.5,1.42,13.38,1.7,17.49l.85,9.56.07.07Z"/>
      </g>
    </g>
  </g>
</svg>