<svg width="650" height="688" viewBox="0 0 650 688" fill="none" xmlns="http://www.w3.org/2000/svg">
<g filter="url(#filter0_d_441_547)">
<rect x="191" y="83" width="430" height="437" fill="white"/>
<path d="M566.818 115.728H562.162L561.362 118H559.458L563.442 106.864H565.554L569.538 118H567.618L566.818 115.728ZM566.306 114.24L564.498 109.072L562.674 114.24H566.306ZM577.863 111.44V112.976H571.287V111.44H577.863ZM582.038 116.416H587.206V118H579.878V116.576L585.03 108.464H579.878V106.88H587.206V108.304L582.038 116.416Z" fill="#4D4D4D"/>
<path d="M435 19.5H591C607.292 19.5 620.5 32.7076 620.5 49V82.5H405.5V49C405.5 32.7076 418.708 19.5 435 19.5Z" fill="#007972" stroke="#DEDEDE"/>
<path d="M221 19.5H376C392.292 19.5 405.5 32.7076 405.5 49V82.5H191.5V49C191.5 32.7076 204.708 19.5 221 19.5Z" fill="white" stroke="#DEDEDE"/>
<path d="M258.414 57.16C257.374 57.16 256.486 56.9227 255.75 56.448C255.019 55.9733 254.459 55.2907 254.07 54.4C253.686 53.5093 253.494 52.4347 253.494 51.176C253.494 49.9227 253.686 48.856 254.07 47.976C254.454 47.096 255.011 46.4267 255.742 45.968C256.478 45.504 257.369 45.272 258.414 45.272C259.23 45.272 259.953 45.4427 260.582 45.784C261.211 46.12 261.718 46.5707 262.102 47.136C262.486 47.7013 262.713 48.3227 262.782 49H261.206C261.121 48.5467 260.958 48.136 260.718 47.768C260.478 47.4 260.163 47.1067 259.774 46.888C259.385 46.6693 258.918 46.56 258.374 46.56C257.675 46.56 257.083 46.7253 256.598 47.056C256.118 47.3813 255.753 47.8853 255.502 48.568C255.257 49.2507 255.134 50.1253 255.134 51.192C255.134 52.8027 255.409 53.9867 255.958 54.744C256.513 55.496 257.318 55.872 258.374 55.872C258.918 55.872 259.385 55.7573 259.774 55.528C260.163 55.2987 260.478 54.992 260.718 54.608C260.958 54.224 261.121 53.808 261.206 53.36H262.782C262.723 53.8507 262.59 54.3253 262.382 54.784C262.179 55.2373 261.899 55.6427 261.542 56C261.185 56.3573 260.745 56.64 260.222 56.848C259.705 57.056 259.102 57.16 258.414 57.16ZM267.734 57.16C267.302 57.1547 266.894 57.0933 266.51 56.976C266.131 56.8533 265.795 56.6747 265.502 56.44C265.208 56.2053 264.976 55.9147 264.806 55.568C264.64 55.216 264.558 54.808 264.558 54.344V48.728H266.038V54.192C266.038 54.7307 266.203 55.168 266.534 55.504C266.87 55.84 267.374 56.008 268.046 56.008C268.654 56.008 269.142 55.8507 269.51 55.536C269.883 55.216 270.07 54.7413 270.07 54.112V48.728H271.542V57H270.366L270.214 55.416C270.112 55.832 269.939 56.168 269.694 56.424C269.454 56.68 269.163 56.8693 268.822 56.992C268.486 57.1093 268.123 57.1653 267.734 57.16ZM273.893 57V48.728H275.301V50.32C275.439 49.9253 275.634 49.6 275.885 49.344C276.135 49.0827 276.421 48.888 276.741 48.76C277.066 48.632 277.402 48.568 277.749 48.568C277.871 48.568 277.991 48.576 278.109 48.592C278.226 48.608 278.317 48.6347 278.381 48.672V50.104C278.301 50.0667 278.197 50.0427 278.069 50.032C277.946 50.016 277.842 50.008 277.757 50.008C277.426 49.9867 277.117 50.008 276.829 50.072C276.541 50.1307 276.287 50.2347 276.069 50.384C275.85 50.5333 275.677 50.7307 275.549 50.976C275.426 51.216 275.365 51.5093 275.365 51.856V57H273.893ZM279.967 57V48.728H281.375V50.32C281.513 49.9253 281.708 49.6 281.959 49.344C282.209 49.0827 282.495 48.888 282.815 48.76C283.14 48.632 283.476 48.568 283.823 48.568C283.945 48.568 284.065 48.576 284.183 48.592C284.3 48.608 284.391 48.6347 284.455 48.672V50.104C284.375 50.0667 284.271 50.0427 284.143 50.032C284.02 50.016 283.916 50.008 283.831 50.008C283.5 49.9867 283.191 50.008 282.903 50.072C282.615 50.1307 282.361 50.2347 282.143 50.384C281.924 50.5333 281.751 50.7307 281.623 50.976C281.5 51.216 281.439 51.5093 281.439 51.856V57H279.967ZM289.412 57.16C288.644 57.16 287.966 56.992 287.38 56.656C286.793 56.32 286.334 55.8373 286.004 55.208C285.673 54.5787 285.508 53.824 285.508 52.944C285.508 52.0747 285.657 51.312 285.956 50.656C286.254 50 286.686 49.488 287.252 49.12C287.822 48.752 288.508 48.568 289.308 48.568C290.086 48.568 290.745 48.736 291.284 49.072C291.822 49.408 292.23 49.8827 292.508 50.496C292.79 51.104 292.932 51.8267 292.932 52.664V53.208H287.004C287.004 53.7307 287.089 54.2053 287.26 54.632C287.436 55.0533 287.7 55.3893 288.052 55.64C288.404 55.8907 288.849 56.016 289.388 56.016C289.916 56.016 290.369 55.8933 290.748 55.648C291.132 55.4027 291.377 55.048 291.484 54.584H292.876C292.78 55.144 292.556 55.616 292.204 56C291.857 56.384 291.438 56.6747 290.948 56.872C290.462 57.064 289.95 57.16 289.412 57.16ZM287.012 52.208H291.508C291.508 51.7333 291.428 51.3067 291.268 50.928C291.108 50.544 290.862 50.2427 290.532 50.024C290.206 49.8 289.796 49.688 289.3 49.688C288.782 49.688 288.353 49.8133 288.012 50.064C287.67 50.3093 287.417 50.6267 287.252 51.016C287.086 51.4 287.006 51.7973 287.012 52.208ZM294.802 57V48.728H296.234V49.928C296.367 49.6987 296.551 49.4827 296.786 49.28C297.026 49.0773 297.314 48.9147 297.65 48.792C297.991 48.6693 298.383 48.608 298.826 48.608C299.349 48.608 299.829 48.712 300.266 48.92C300.709 49.128 301.061 49.4533 301.322 49.896C301.589 50.3333 301.722 50.8987 301.722 51.592V57H300.242V51.736C300.242 51.0907 300.071 50.6133 299.73 50.304C299.394 49.9893 298.957 49.832 298.418 49.832C298.045 49.832 297.695 49.8933 297.37 50.016C297.045 50.1333 296.781 50.3147 296.578 50.56C296.375 50.8 296.274 51.104 296.274 51.472V57H294.802ZM306.549 57.04C305.978 57.04 305.535 56.9627 305.221 56.808C304.906 56.6533 304.685 56.424 304.557 56.12C304.434 55.816 304.373 55.4427 304.373 55V49.808H303.029V48.728H304.413L304.773 46.32H305.861V48.72H307.725V49.808H305.861V54.952C305.861 55.2453 305.89 55.4613 305.949 55.6C306.013 55.7333 306.117 55.8187 306.261 55.856C306.405 55.8933 306.607 55.912 306.869 55.912H307.773V56.904C307.671 56.9413 307.517 56.9733 307.309 57C307.106 57.0267 306.853 57.04 306.549 57.04ZM313.578 57V45.432H315.626L319.114 54.984L322.65 45.432H324.69V57H323.162V47.648L319.81 57H318.426L315.098 47.736V57H313.578ZM330.657 57.16C329.889 57.16 329.211 56.992 328.625 56.656C328.038 56.32 327.579 55.8373 327.249 55.208C326.918 54.5787 326.753 53.824 326.753 52.944C326.753 52.0747 326.902 51.312 327.201 50.656C327.499 50 327.931 49.488 328.497 49.12C329.067 48.752 329.753 48.568 330.553 48.568C331.331 48.568 331.99 48.736 332.529 49.072C333.067 49.408 333.475 49.8827 333.753 50.496C334.035 51.104 334.177 51.8267 334.177 52.664V53.208H328.249C328.249 53.7307 328.334 54.2053 328.505 54.632C328.681 55.0533 328.945 55.3893 329.297 55.64C329.649 55.8907 330.094 56.016 330.633 56.016C331.161 56.016 331.614 55.8933 331.993 55.648C332.377 55.4027 332.622 55.048 332.729 54.584H334.121C334.025 55.144 333.801 55.616 333.449 56C333.102 56.384 332.683 56.6747 332.193 56.872C331.707 57.064 331.195 57.16 330.657 57.16ZM328.257 52.208H332.753C332.753 51.7333 332.673 51.3067 332.513 50.928C332.353 50.544 332.107 50.2427 331.777 50.024C331.451 49.8 331.041 49.688 330.545 49.688C330.027 49.688 329.598 49.8133 329.257 50.064C328.915 50.3093 328.662 50.6267 328.497 51.016C328.331 51.4 328.251 51.7973 328.257 52.208ZM339.063 57.16C337.986 57.16 337.132 56.792 336.503 56.056C335.879 55.32 335.567 54.2453 335.567 52.832C335.567 51.9733 335.692 51.224 335.943 50.584C336.194 49.944 336.57 49.448 337.071 49.096C337.572 48.744 338.196 48.568 338.943 48.568C339.343 48.568 339.695 48.6187 339.999 48.72C340.303 48.8213 340.567 48.9493 340.791 49.104C341.015 49.2587 341.196 49.4187 341.335 49.584C341.479 49.7493 341.586 49.9013 341.655 50.04V45.112H343.151V57H342.015L341.855 55.304C341.802 55.464 341.716 55.6507 341.599 55.864C341.482 56.072 341.316 56.2773 341.103 56.48C340.895 56.6773 340.623 56.84 340.287 56.968C339.951 57.096 339.543 57.16 339.063 57.16ZM339.327 56.024C340.159 56.024 340.754 55.7707 341.111 55.264C341.474 54.752 341.655 53.9173 341.655 52.76C341.65 52.1147 341.57 51.5653 341.415 51.112C341.26 50.6587 341.015 50.3147 340.679 50.08C340.348 49.84 339.906 49.72 339.351 49.72C338.674 49.72 338.122 49.9627 337.695 50.448C337.268 50.9333 337.055 51.704 337.055 52.76C337.055 53.7947 337.247 54.5973 337.631 55.168C338.015 55.7387 338.58 56.024 339.327 56.024Z" fill="#6E6E6E"/>
<path d="M486.963 57L491.099 45.432H493.571L497.707 57H495.379L494.435 54.32H490.267L489.307 57H486.963ZM490.795 52.28H493.867L492.339 47.68L490.795 52.28ZM499.148 57V48.728H501.396V50.688C501.53 50.2667 501.716 49.8987 501.956 49.584C502.202 49.264 502.498 49.016 502.844 48.84C503.191 48.6587 503.583 48.568 504.02 48.568C504.095 48.568 504.164 48.5733 504.228 48.584C504.298 48.5893 504.348 48.6 504.38 48.616V50.84C504.332 50.8187 504.274 50.8053 504.204 50.8C504.14 50.7947 504.082 50.7893 504.028 50.784C503.57 50.7467 503.178 50.76 502.852 50.824C502.527 50.888 502.263 50.9973 502.06 51.152C501.858 51.3067 501.711 51.496 501.62 51.72C501.53 51.944 501.484 52.1947 501.484 52.472V57H499.148ZM509.327 57.16C508.559 57.16 507.873 56.9893 507.271 56.648C506.668 56.3067 506.193 55.8187 505.847 55.184C505.505 54.544 505.335 53.7813 505.335 52.896C505.335 52.0427 505.5 51.2907 505.831 50.64C506.161 49.9893 506.625 49.4827 507.223 49.12C507.825 48.752 508.527 48.568 509.327 48.568C510.02 48.568 510.617 48.7093 511.119 48.992C511.625 49.2747 512.023 49.656 512.311 50.136C512.604 50.616 512.772 51.152 512.815 51.744H510.871C510.833 51.5253 510.756 51.3093 510.639 51.096C510.521 50.8773 510.356 50.6987 510.143 50.56C509.929 50.416 509.663 50.344 509.343 50.344C508.799 50.344 508.356 50.5547 508.015 50.976C507.679 51.392 507.511 52.0267 507.511 52.88C507.511 53.6853 507.676 54.3253 508.007 54.8C508.337 55.2693 508.799 55.504 509.391 55.504C509.705 55.504 509.967 55.4267 510.175 55.272C510.388 55.1173 510.553 54.9333 510.671 54.72C510.788 54.5013 510.863 54.2987 510.895 54.112H512.791C512.753 54.6827 512.588 55.2 512.295 55.664C512.001 56.1227 511.601 56.488 511.095 56.76C510.593 57.0267 510.004 57.16 509.327 57.16ZM514.43 57V45.112H516.75V49.92C516.883 49.728 517.051 49.5387 517.254 49.352C517.456 49.16 517.71 49 518.014 48.872C518.318 48.744 518.688 48.68 519.126 48.68C519.654 48.68 520.134 48.784 520.566 48.992C521.003 49.1947 521.352 49.4907 521.614 49.88C521.88 50.2693 522.014 50.744 522.014 51.304V57H519.67V51.648C519.67 51.2747 519.534 50.9893 519.262 50.792C518.995 50.5893 518.67 50.488 518.286 50.488C518.035 50.488 517.792 50.5333 517.558 50.624C517.323 50.7147 517.131 50.8533 516.982 51.04C516.838 51.2213 516.766 51.448 516.766 51.72V57H514.43ZM523.938 57V48.728H526.17V57H523.938ZM523.914 47.544V45.44H526.186V47.544H523.914ZM530.5 57L527.396 48.728H529.508L531.316 54H531.38L533.164 48.728H535.3L532.196 57H530.5ZM540.058 57.16C539.236 57.16 538.514 56.9893 537.89 56.648C537.271 56.3013 536.788 55.8133 536.442 55.184C536.095 54.5547 535.922 53.8133 535.922 52.96C535.922 52.1333 536.079 51.3893 536.394 50.728C536.714 50.0613 537.172 49.536 537.77 49.152C538.367 48.7627 539.09 48.568 539.938 48.568C540.78 48.568 541.487 48.7467 542.058 49.104C542.628 49.456 543.06 49.9493 543.354 50.584C543.647 51.2133 543.794 51.9413 543.794 52.768V53.4H538.234C538.234 53.8213 538.303 54.1893 538.442 54.504C538.58 54.8133 538.78 55.0533 539.042 55.224C539.308 55.3893 539.628 55.472 540.002 55.472C540.402 55.472 540.751 55.3867 541.05 55.216C541.348 55.0453 541.559 54.7653 541.682 54.376H543.786C543.69 54.9627 543.455 55.464 543.082 55.88C542.708 56.296 542.255 56.6133 541.722 56.832C541.188 57.0507 540.634 57.16 540.058 57.16ZM538.234 52.008H541.61C541.61 51.6773 541.546 51.3733 541.418 51.096C541.295 50.8187 541.108 50.6 540.858 50.44C540.612 50.28 540.303 50.2 539.93 50.2C539.572 50.2 539.266 50.288 539.01 50.464C538.759 50.6347 538.564 50.8587 538.426 51.136C538.292 51.4133 538.228 51.704 538.234 52.008Z" fill="#FAF8FE"/>
<g filter="url(#filter1_d_441_547)">
<rect x="230" y="260" width="350" height="104" rx="12" fill="#FFE6C1" fill-opacity="0.75"/>
<path d="M364.6 305.04V319H361.8V309.92L358.06 319H355.94L352.18 309.92V319H349.38V305.04H352.56L357 315.42L361.44 305.04H364.6ZM377.668 313.22C377.668 313.62 377.642 313.98 377.588 314.3H369.488C369.555 315.1 369.835 315.727 370.328 316.18C370.822 316.633 371.428 316.86 372.148 316.86C373.188 316.86 373.928 316.413 374.368 315.52H377.388C377.068 316.587 376.455 317.467 375.548 318.16C374.642 318.84 373.528 319.18 372.208 319.18C371.142 319.18 370.182 318.947 369.328 318.48C368.488 318 367.828 317.327 367.348 316.46C366.882 315.593 366.648 314.593 366.648 313.46C366.648 312.313 366.882 311.307 367.348 310.44C367.815 309.573 368.468 308.907 369.308 308.44C370.148 307.973 371.115 307.74 372.208 307.74C373.262 307.74 374.202 307.967 375.028 308.42C375.868 308.873 376.515 309.52 376.968 310.36C377.435 311.187 377.668 312.14 377.668 313.22ZM374.768 312.42C374.755 311.7 374.495 311.127 373.988 310.7C373.482 310.26 372.862 310.04 372.128 310.04C371.435 310.04 370.848 310.253 370.368 310.68C369.902 311.093 369.615 311.673 369.508 312.42H374.768ZM382.972 310.22V315.58C382.972 315.953 383.059 316.227 383.232 316.4C383.419 316.56 383.725 316.64 384.152 316.64H385.452V319H383.692C381.332 319 380.152 317.853 380.152 315.56V310.22H378.832V307.92H380.152V305.18H382.972V307.92H385.452V310.22H382.972ZM392.386 319.18C391.319 319.18 390.359 318.947 389.506 318.48C388.653 318 387.979 317.327 387.486 316.46C387.006 315.593 386.766 314.593 386.766 313.46C386.766 312.327 387.013 311.327 387.506 310.46C388.013 309.593 388.699 308.927 389.566 308.46C390.433 307.98 391.399 307.74 392.466 307.74C393.533 307.74 394.499 307.98 395.366 308.46C396.233 308.927 396.913 309.593 397.406 310.46C397.913 311.327 398.166 312.327 398.166 313.46C398.166 314.593 397.906 315.593 397.386 316.46C396.879 317.327 396.186 318 395.306 318.48C394.439 318.947 393.466 319.18 392.386 319.18ZM392.386 316.74C392.893 316.74 393.366 316.62 393.806 316.38C394.259 316.127 394.619 315.753 394.886 315.26C395.153 314.767 395.286 314.167 395.286 313.46C395.286 312.407 395.006 311.6 394.446 311.04C393.899 310.467 393.226 310.18 392.426 310.18C391.626 310.18 390.953 310.467 390.406 311.04C389.873 311.6 389.606 312.407 389.606 313.46C389.606 314.513 389.866 315.327 390.386 315.9C390.919 316.46 391.586 316.74 392.386 316.74ZM403.02 309.52C403.38 309.013 403.873 308.593 404.5 308.26C405.14 307.913 405.867 307.74 406.68 307.74C407.627 307.74 408.48 307.973 409.24 308.44C410.013 308.907 410.62 309.573 411.06 310.44C411.513 311.293 411.74 312.287 411.74 313.42C411.74 314.553 411.513 315.56 411.06 316.44C410.62 317.307 410.013 317.98 409.24 318.46C408.48 318.94 407.627 319.18 406.68 319.18C405.867 319.18 405.147 319.013 404.52 318.68C403.907 318.347 403.407 317.927 403.02 317.42V324.28H400.22V307.92H403.02V309.52ZM408.88 313.42C408.88 312.753 408.74 312.18 408.46 311.7C408.193 311.207 407.833 310.833 407.38 310.58C406.94 310.327 406.46 310.2 405.94 310.2C405.433 310.2 404.953 310.333 404.5 310.6C404.06 310.853 403.7 311.227 403.42 311.72C403.153 312.213 403.02 312.793 403.02 313.46C403.02 314.127 403.153 314.707 403.42 315.2C403.7 315.693 404.06 316.073 404.5 316.34C404.953 316.593 405.433 316.72 405.94 316.72C406.46 316.72 406.94 316.587 407.38 316.32C407.833 316.053 408.193 315.673 408.46 315.18C408.74 314.687 408.88 314.1 408.88 313.42ZM416.575 309.64C416.935 309.053 417.401 308.593 417.975 308.26C418.561 307.927 419.228 307.76 419.975 307.76V310.7H419.235C418.355 310.7 417.688 310.907 417.235 311.32C416.795 311.733 416.575 312.453 416.575 313.48V319H413.775V307.92H416.575V309.64ZM426.78 319.18C425.714 319.18 424.754 318.947 423.9 318.48C423.047 318 422.374 317.327 421.88 316.46C421.4 315.593 421.16 314.593 421.16 313.46C421.16 312.327 421.407 311.327 421.9 310.46C422.407 309.593 423.094 308.927 423.96 308.46C424.827 307.98 425.794 307.74 426.86 307.74C427.927 307.74 428.894 307.98 429.76 308.46C430.627 308.927 431.307 309.593 431.8 310.46C432.307 311.327 432.56 312.327 432.56 313.46C432.56 314.593 432.3 315.593 431.78 316.46C431.274 317.327 430.58 318 429.7 318.48C428.834 318.947 427.86 319.18 426.78 319.18ZM426.78 316.74C427.287 316.74 427.76 316.62 428.2 316.38C428.654 316.127 429.014 315.753 429.28 315.26C429.547 314.767 429.68 314.167 429.68 313.46C429.68 312.407 429.4 311.6 428.84 311.04C428.294 310.467 427.62 310.18 426.82 310.18C426.02 310.18 425.347 310.467 424.8 311.04C424.267 311.6 424 312.407 424 313.46C424 314.513 424.26 315.327 424.78 315.9C425.314 316.46 425.98 316.74 426.78 316.74ZM437.414 304.2V319H434.614V304.2H437.414ZM445.101 319.18C444.034 319.18 443.074 318.947 442.221 318.48C441.367 318 440.694 317.327 440.201 316.46C439.721 315.593 439.481 314.593 439.481 313.46C439.481 312.327 439.727 311.327 440.221 310.46C440.727 309.593 441.414 308.927 442.281 308.46C443.147 307.98 444.114 307.74 445.181 307.74C446.247 307.74 447.214 307.98 448.081 308.46C448.947 308.927 449.627 309.593 450.121 310.46C450.627 311.327 450.881 312.327 450.881 313.46C450.881 314.593 450.621 315.593 450.101 316.46C449.594 317.327 448.901 318 448.021 318.48C447.154 318.947 446.181 319.18 445.101 319.18ZM445.101 316.74C445.607 316.74 446.081 316.62 446.521 316.38C446.974 316.127 447.334 315.753 447.601 315.26C447.867 314.767 448.001 314.167 448.001 313.46C448.001 312.407 447.721 311.6 447.161 311.04C446.614 310.467 445.941 310.18 445.141 310.18C444.341 310.18 443.667 310.467 443.121 311.04C442.587 311.6 442.321 312.407 442.321 313.46C442.321 314.513 442.581 315.327 443.101 315.9C443.634 316.46 444.301 316.74 445.101 316.74ZM455.735 304.2V319H452.935V304.2H455.735Z" fill="#4D4D4D"/>
<g filter="url(#filter2_f_441_547)">
<rect x="251" y="276" width="72" height="72" rx="36" fill="white"/>
</g>
</g>
<g filter="url(#filter3_d_441_547)">
<rect x="230" y="140" width="350" height="104" rx="12" fill="#FFE6C1" fill-opacity="0.75"/>
<path d="M352.18 185.04V199H349.38V185.04H352.18ZM361.086 187.76C362.406 187.76 363.473 188.18 364.286 189.02C365.1 189.847 365.506 191.007 365.506 192.5V199H362.706V192.88C362.706 192 362.486 191.327 362.046 190.86C361.606 190.38 361.006 190.14 360.246 190.14C359.473 190.14 358.86 190.38 358.406 190.86C357.966 191.327 357.746 192 357.746 192.88V199H354.946V187.92H357.746V189.3C358.12 188.82 358.593 188.447 359.166 188.18C359.753 187.9 360.393 187.76 361.086 187.76ZM372.409 199.18C371.502 199.18 370.689 199.02 369.969 198.7C369.249 198.367 368.676 197.92 368.249 197.36C367.836 196.8 367.609 196.18 367.569 195.5H370.389C370.442 195.927 370.649 196.28 371.009 196.56C371.382 196.84 371.842 196.98 372.389 196.98C372.922 196.98 373.336 196.873 373.629 196.66C373.936 196.447 374.089 196.173 374.089 195.84C374.089 195.48 373.902 195.213 373.529 195.04C373.169 194.853 372.589 194.653 371.789 194.44C370.962 194.24 370.282 194.033 369.749 193.82C369.229 193.607 368.776 193.28 368.389 192.84C368.016 192.4 367.829 191.807 367.829 191.06C367.829 190.447 368.002 189.887 368.349 189.38C368.709 188.873 369.216 188.473 369.869 188.18C370.536 187.887 371.316 187.74 372.209 187.74C373.529 187.74 374.582 188.073 375.369 188.74C376.156 189.393 376.589 190.28 376.669 191.4H373.989C373.949 190.96 373.762 190.613 373.429 190.36C373.109 190.093 372.676 189.96 372.129 189.96C371.622 189.96 371.229 190.053 370.949 190.24C370.682 190.427 370.549 190.687 370.549 191.02C370.549 191.393 370.736 191.68 371.109 191.88C371.482 192.067 372.062 192.26 372.849 192.46C373.649 192.66 374.309 192.867 374.829 193.08C375.349 193.293 375.796 193.627 376.169 194.08C376.556 194.52 376.756 195.107 376.769 195.84C376.769 196.48 376.589 197.053 376.229 197.56C375.882 198.067 375.376 198.467 374.709 198.76C374.056 199.04 373.289 199.18 372.409 199.18ZM389.528 187.92V199H386.708V197.6C386.348 198.08 385.874 198.46 385.288 198.74C384.714 199.007 384.088 199.14 383.408 199.14C382.541 199.14 381.774 198.96 381.108 198.6C380.441 198.227 379.914 197.687 379.528 196.98C379.154 196.26 378.968 195.407 378.968 194.42V187.92H381.768V194.02C381.768 194.9 381.988 195.58 382.428 196.06C382.868 196.527 383.468 196.76 384.228 196.76C385.001 196.76 385.608 196.527 386.048 196.06C386.488 195.58 386.708 194.9 386.708 194.02V187.92H389.528ZM395.09 184.2V199H392.29V184.2H395.09ZM399.277 186.6C398.783 186.6 398.37 186.447 398.037 186.14C397.717 185.82 397.557 185.427 397.557 184.96C397.557 184.493 397.717 184.107 398.037 183.8C398.37 183.48 398.783 183.32 399.277 183.32C399.77 183.32 400.177 183.48 400.497 183.8C400.83 184.107 400.997 184.493 400.997 184.96C400.997 185.427 400.83 185.82 400.497 186.14C400.177 186.447 399.77 186.6 399.277 186.6ZM400.657 187.92V199H397.857V187.92H400.657ZM409.563 187.76C410.883 187.76 411.95 188.18 412.763 189.02C413.576 189.847 413.983 191.007 413.983 192.5V199H411.183V192.88C411.183 192 410.963 191.327 410.523 190.86C410.083 190.38 409.483 190.14 408.723 190.14C407.95 190.14 407.336 190.38 406.883 190.86C406.443 191.327 406.223 192 406.223 192.88V199H403.423V187.92H406.223V189.3C406.596 188.82 407.07 188.447 407.643 188.18C408.23 187.9 408.87 187.76 409.563 187.76ZM424.211 196.78H428.811V199H421.411V185.04H424.211V196.78ZM432.011 186.6C431.518 186.6 431.104 186.447 430.771 186.14C430.451 185.82 430.291 185.427 430.291 184.96C430.291 184.493 430.451 184.107 430.771 183.8C431.104 183.48 431.518 183.32 432.011 183.32C432.504 183.32 432.911 183.48 433.231 183.8C433.564 184.107 433.731 184.493 433.731 184.96C433.731 185.427 433.564 185.82 433.231 186.14C432.911 186.447 432.504 186.6 432.011 186.6ZM433.391 187.92V199H430.591V187.92H433.391ZM440.397 199.18C439.491 199.18 438.677 199.02 437.957 198.7C437.237 198.367 436.664 197.92 436.237 197.36C435.824 196.8 435.597 196.18 435.557 195.5H438.377C438.431 195.927 438.637 196.28 438.997 196.56C439.371 196.84 439.831 196.98 440.377 196.98C440.911 196.98 441.324 196.873 441.617 196.66C441.924 196.447 442.077 196.173 442.077 195.84C442.077 195.48 441.891 195.213 441.517 195.04C441.157 194.853 440.577 194.653 439.777 194.44C438.951 194.24 438.271 194.033 437.737 193.82C437.217 193.607 436.764 193.28 436.377 192.84C436.004 192.4 435.817 191.807 435.817 191.06C435.817 190.447 435.991 189.887 436.337 189.38C436.697 188.873 437.204 188.473 437.857 188.18C438.524 187.887 439.304 187.74 440.197 187.74C441.517 187.74 442.571 188.073 443.357 188.74C444.144 189.393 444.577 190.28 444.657 191.4H441.977C441.937 190.96 441.751 190.613 441.417 190.36C441.097 190.093 440.664 189.96 440.117 189.96C439.611 189.96 439.217 190.053 438.937 190.24C438.671 190.427 438.537 190.687 438.537 191.02C438.537 191.393 438.724 191.68 439.097 191.88C439.471 192.067 440.051 192.26 440.837 192.46C441.637 192.66 442.297 192.867 442.817 193.08C443.337 193.293 443.784 193.627 444.157 194.08C444.544 194.52 444.744 195.107 444.757 195.84C444.757 196.48 444.577 197.053 444.217 197.56C443.871 198.067 443.364 198.467 442.697 198.76C442.044 199.04 441.277 199.18 440.397 199.18ZM449.856 189.52C450.216 189.013 450.709 188.593 451.336 188.26C451.976 187.913 452.702 187.74 453.516 187.74C454.462 187.74 455.316 187.973 456.076 188.44C456.849 188.907 457.456 189.573 457.896 190.44C458.349 191.293 458.576 192.287 458.576 193.42C458.576 194.553 458.349 195.56 457.896 196.44C457.456 197.307 456.849 197.98 456.076 198.46C455.316 198.94 454.462 199.18 453.516 199.18C452.702 199.18 451.982 199.013 451.356 198.68C450.742 198.347 450.242 197.927 449.856 197.42V204.28H447.056V187.92H449.856V189.52ZM455.716 193.42C455.716 192.753 455.576 192.18 455.296 191.7C455.029 191.207 454.669 190.833 454.216 190.58C453.776 190.327 453.296 190.2 452.776 190.2C452.269 190.2 451.789 190.333 451.336 190.6C450.896 190.853 450.536 191.227 450.256 191.72C449.989 192.213 449.856 192.793 449.856 193.46C449.856 194.127 449.989 194.707 450.256 195.2C450.536 195.693 450.896 196.073 451.336 196.34C451.789 196.593 452.269 196.72 452.776 196.72C453.296 196.72 453.776 196.587 454.216 196.32C454.669 196.053 455.029 195.673 455.296 195.18C455.576 194.687 455.716 194.1 455.716 193.42ZM463.41 189.64C463.77 189.053 464.237 188.593 464.81 188.26C465.397 187.927 466.064 187.76 466.81 187.76V190.7H466.07C465.19 190.7 464.524 190.907 464.07 191.32C463.63 191.733 463.41 192.453 463.41 193.48V199H460.61V187.92H463.41V189.64ZM473.616 199.18C472.55 199.18 471.59 198.947 470.736 198.48C469.883 198 469.21 197.327 468.716 196.46C468.236 195.593 467.996 194.593 467.996 193.46C467.996 192.327 468.243 191.327 468.736 190.46C469.243 189.593 469.93 188.927 470.796 188.46C471.663 187.98 472.63 187.74 473.696 187.74C474.763 187.74 475.73 187.98 476.596 188.46C477.463 188.927 478.143 189.593 478.636 190.46C479.143 191.327 479.396 192.327 479.396 193.46C479.396 194.593 479.136 195.593 478.616 196.46C478.11 197.327 477.416 198 476.536 198.48C475.67 198.947 474.696 199.18 473.616 199.18ZM473.616 196.74C474.123 196.74 474.596 196.62 475.036 196.38C475.49 196.127 475.85 195.753 476.116 195.26C476.383 194.767 476.516 194.167 476.516 193.46C476.516 192.407 476.236 191.6 475.676 191.04C475.13 190.467 474.456 190.18 473.656 190.18C472.856 190.18 472.183 190.467 471.636 191.04C471.103 191.6 470.836 192.407 470.836 193.46C470.836 194.513 471.096 195.327 471.616 195.9C472.15 196.46 472.816 196.74 473.616 196.74Z" fill="#4D4D4D"/>
<g filter="url(#filter4_f_441_547)">
<rect x="251" y="156" width="72" height="72" rx="36" fill="white"/>
</g>
</g>
<g filter="url(#filter5_d_441_547)">
<rect x="230" y="380" width="350" height="104" rx="12" fill="#FFE6C1" fill-opacity="0.75"/>
<path d="M364.6 425.04V439H361.8V429.92L358.06 439H355.94L352.18 429.92V439H349.38V425.04H352.56L357 435.42L361.44 425.04H364.6ZM377.828 427.92V439H375.008V437.6C374.648 438.08 374.175 438.46 373.588 438.74C373.015 439.007 372.388 439.14 371.708 439.14C370.842 439.14 370.075 438.96 369.408 438.6C368.742 438.227 368.215 437.687 367.828 436.98C367.455 436.26 367.268 435.407 367.268 434.42V427.92H370.068V434.02C370.068 434.9 370.288 435.58 370.728 436.06C371.168 436.527 371.768 436.76 372.528 436.76C373.302 436.76 373.908 436.527 374.348 436.06C374.788 435.58 375.008 434.9 375.008 434.02V427.92H377.828ZM383.391 429.52C383.751 429.013 384.244 428.593 384.871 428.26C385.511 427.913 386.238 427.74 387.051 427.74C387.998 427.74 388.851 427.973 389.611 428.44C390.384 428.907 390.991 429.573 391.431 430.44C391.884 431.293 392.111 432.287 392.111 433.42C392.111 434.553 391.884 435.56 391.431 436.44C390.991 437.307 390.384 437.98 389.611 438.46C388.851 438.94 387.998 439.18 387.051 439.18C386.238 439.18 385.518 439.013 384.891 438.68C384.278 438.347 383.778 437.927 383.391 437.42V444.28H380.591V427.92H383.391V429.52ZM389.251 433.42C389.251 432.753 389.111 432.18 388.831 431.7C388.564 431.207 388.204 430.833 387.751 430.58C387.311 430.327 386.831 430.2 386.311 430.2C385.804 430.2 385.324 430.333 384.871 430.6C384.431 430.853 384.071 431.227 383.791 431.72C383.524 432.213 383.391 432.793 383.391 433.46C383.391 434.127 383.524 434.707 383.791 435.2C384.071 435.693 384.431 436.073 384.871 436.34C385.324 436.593 385.804 436.72 386.311 436.72C386.831 436.72 387.311 436.587 387.751 436.32C388.204 436.053 388.564 435.673 388.831 435.18C389.111 434.687 389.251 434.1 389.251 433.42ZM395.566 426.6C395.072 426.6 394.659 426.447 394.326 426.14C394.006 425.82 393.846 425.427 393.846 424.96C393.846 424.493 394.006 424.107 394.326 423.8C394.659 423.48 395.072 423.32 395.566 423.32C396.059 423.32 396.466 423.48 396.786 423.8C397.119 424.107 397.286 424.493 397.286 424.96C397.286 425.427 397.119 425.82 396.786 426.14C396.466 426.447 396.059 426.6 395.566 426.6ZM396.946 427.92V439H394.146V427.92H396.946ZM402.512 429.64C402.872 429.053 403.339 428.593 403.912 428.26C404.499 427.927 405.165 427.76 405.912 427.76V430.7H405.172C404.292 430.7 403.625 430.907 403.172 431.32C402.732 431.733 402.512 432.453 402.512 433.48V439H399.712V427.92H402.512V429.64ZM412.718 439.18C411.651 439.18 410.691 438.947 409.838 438.48C408.985 438 408.311 437.327 407.818 436.46C407.338 435.593 407.098 434.593 407.098 433.46C407.098 432.327 407.345 431.327 407.838 430.46C408.345 429.593 409.031 428.927 409.898 428.46C410.765 427.98 411.731 427.74 412.798 427.74C413.865 427.74 414.831 427.98 415.698 428.46C416.565 428.927 417.245 429.593 417.738 430.46C418.245 431.327 418.498 432.327 418.498 433.46C418.498 434.593 418.238 435.593 417.718 436.46C417.211 437.327 416.518 438 415.638 438.48C414.771 438.947 413.798 439.18 412.718 439.18ZM412.718 436.74C413.225 436.74 413.698 436.62 414.138 436.38C414.591 436.127 414.951 435.753 415.218 435.26C415.485 434.767 415.618 434.167 415.618 433.46C415.618 432.407 415.338 431.6 414.778 431.04C414.231 430.467 413.558 430.18 412.758 430.18C411.958 430.18 411.285 430.467 410.738 431.04C410.205 431.6 409.938 432.407 409.938 433.46C409.938 434.513 410.198 435.327 410.718 435.9C411.251 436.46 411.918 436.74 412.718 436.74ZM419.832 433.46C419.832 432.313 420.065 431.313 420.532 430.46C420.999 429.593 421.645 428.927 422.472 428.46C423.299 427.98 424.245 427.74 425.312 427.74C426.685 427.74 427.819 428.087 428.712 428.78C429.619 429.46 430.225 430.42 430.532 431.66H427.512C427.352 431.18 427.079 430.807 426.692 430.54C426.319 430.26 425.852 430.12 425.292 430.12C424.492 430.12 423.859 430.413 423.392 431C422.925 431.573 422.692 432.393 422.692 433.46C422.692 434.513 422.925 435.333 423.392 435.92C423.859 436.493 424.492 436.78 425.292 436.78C426.425 436.78 427.165 436.273 427.512 435.26H430.532C430.225 436.46 429.619 437.413 428.712 438.12C427.805 438.827 426.672 439.18 425.312 439.18C424.245 439.18 423.299 438.947 422.472 438.48C421.645 438 420.999 437.333 420.532 436.48C420.065 435.613 419.832 434.607 419.832 433.46ZM434.003 426.6C433.51 426.6 433.096 426.447 432.763 426.14C432.443 425.82 432.283 425.427 432.283 424.96C432.283 424.493 432.443 424.107 432.763 423.8C433.096 423.48 433.51 423.32 434.003 423.32C434.496 423.32 434.903 423.48 435.223 423.8C435.556 424.107 435.723 424.493 435.723 424.96C435.723 425.427 435.556 425.82 435.223 426.14C434.903 426.447 434.496 426.6 434.003 426.6ZM435.383 427.92V439H432.583V427.92H435.383ZM444.29 427.76C445.61 427.76 446.676 428.18 447.49 429.02C448.303 429.847 448.71 431.007 448.71 432.5V439H445.91V432.88C445.91 432 445.69 431.327 445.25 430.86C444.81 430.38 444.21 430.14 443.45 430.14C442.676 430.14 442.063 430.38 441.61 430.86C441.17 431.327 440.95 432 440.95 432.88V439H438.15V427.92H440.95V429.3C441.323 428.82 441.796 428.447 442.37 428.18C442.956 427.9 443.596 427.76 444.29 427.76Z" fill="#4D4D4D"/>
<g filter="url(#filter6_f_441_547)">
<rect x="251" y="396" width="72" height="72" rx="36" fill="white"/>
</g>
</g>
<rect x="29" y="220" width="430" height="429" fill="white"/>
<path d="M59 156.5H215C231.292 156.5 244.5 169.708 244.5 186V219.5H29.5V186C29.5 169.708 42.7076 156.5 59 156.5Z" fill="#007972" stroke="#DEDEDE"/>
<path d="M404.818 252.728H400.162L399.362 255H397.458L401.442 243.864H403.554L407.538 255H405.618L404.818 252.728ZM404.306 251.24L402.498 246.072L400.674 251.24H404.306ZM415.863 248.44V249.976H409.287V248.44H415.863ZM420.038 253.416H425.206V255H417.878V253.576L423.03 245.464H417.878V243.88H425.206V245.304L420.038 253.416Z" fill="#4D4D4D"/>
<g filter="url(#filter7_d_441_547)">
<path d="M245 186C245 169.431 258.431 156 275 156H429C445.569 156 459 169.431 459 186V220H245V186Z" fill="white"/>
<path d="M275 156.5H429C445.292 156.5 458.5 169.708 458.5 186V219.5H245.5V186C245.5 169.708 258.708 156.5 275 156.5Z" stroke="#DEDEDE"/>
</g>
<path d="M94.3518 194.16C93.2744 194.16 92.3438 193.909 91.5598 193.408C90.7758 192.907 90.1704 192.203 89.7438 191.296C89.3224 190.389 89.1118 189.331 89.1118 188.12C89.1118 186.904 89.3224 185.861 89.7438 184.992C90.1651 184.117 90.7678 183.445 91.5518 182.976C92.3358 182.507 93.2691 182.272 94.3518 182.272C95.2211 182.272 95.9944 182.448 96.6718 182.8C97.3544 183.147 97.9038 183.621 98.3198 184.224C98.7411 184.827 98.9891 185.507 99.0638 186.264H96.6158C96.5411 185.864 96.4051 185.509 96.2078 185.2C96.0104 184.885 95.7518 184.64 95.4318 184.464C95.1118 184.283 94.7278 184.192 94.2798 184.192C93.7411 184.192 93.2771 184.323 92.8878 184.584C92.4984 184.845 92.1998 185.267 91.9918 185.848C91.7838 186.429 91.6798 187.197 91.6798 188.152C91.6798 189.592 91.9091 190.635 92.3678 191.28C92.8318 191.92 93.4691 192.24 94.2798 192.24C94.7278 192.24 95.1118 192.139 95.4318 191.936C95.7518 191.728 96.0104 191.456 96.2078 191.12C96.4051 190.779 96.5411 190.405 96.6158 190H99.0638C98.9944 190.549 98.8611 191.075 98.6638 191.576C98.4664 192.072 98.1864 192.515 97.8238 192.904C97.4611 193.293 96.9944 193.6 96.4237 193.824C95.8531 194.048 95.1624 194.16 94.3518 194.16ZM103.876 194.16C103.492 194.16 103.113 194.101 102.74 193.984C102.372 193.867 102.036 193.693 101.732 193.464C101.428 193.235 101.183 192.952 100.996 192.616C100.815 192.28 100.724 191.891 100.724 191.448V185.728H103.06V191.152C103.06 191.536 103.185 191.851 103.436 192.096C103.687 192.341 104.055 192.464 104.54 192.464C104.999 192.464 105.361 192.347 105.628 192.112C105.9 191.872 106.036 191.539 106.036 191.112V185.728H108.348V194H106.588L106.316 192.36C106.22 192.845 106.039 193.219 105.772 193.48C105.511 193.736 105.209 193.912 104.868 194.008C104.532 194.109 104.201 194.16 103.876 194.16ZM110.391 194V185.728H112.639V187.688C112.772 187.267 112.959 186.899 113.199 186.584C113.444 186.264 113.74 186.016 114.087 185.84C114.433 185.659 114.825 185.568 115.263 185.568C115.337 185.568 115.407 185.573 115.471 185.584C115.54 185.589 115.591 185.6 115.623 185.616V187.84C115.575 187.819 115.516 187.805 115.447 187.8C115.383 187.795 115.324 187.789 115.271 187.784C114.812 187.747 114.42 187.76 114.095 187.824C113.769 187.888 113.505 187.997 113.303 188.152C113.1 188.307 112.953 188.496 112.863 188.72C112.772 188.944 112.727 189.195 112.727 189.472V194H110.391ZM116.984 194V185.728H119.232V187.688C119.366 187.267 119.552 186.899 119.792 186.584C120.038 186.264 120.334 186.016 120.68 185.84C121.027 185.659 121.419 185.568 121.856 185.568C121.931 185.568 122 185.573 122.064 185.584C122.134 185.589 122.184 185.6 122.216 185.616V187.84C122.168 187.819 122.11 187.805 122.04 187.8C121.976 187.795 121.918 187.789 121.864 187.784C121.406 187.747 121.014 187.76 120.688 187.824C120.363 187.888 120.099 187.997 119.896 188.152C119.694 188.307 119.547 188.496 119.456 188.72C119.366 188.944 119.32 189.195 119.32 189.472V194H116.984ZM127.363 194.16C126.541 194.16 125.819 193.989 125.195 193.648C124.576 193.301 124.093 192.813 123.747 192.184C123.4 191.555 123.227 190.813 123.227 189.96C123.227 189.133 123.384 188.389 123.699 187.728C124.019 187.061 124.477 186.536 125.075 186.152C125.672 185.763 126.395 185.568 127.243 185.568C128.085 185.568 128.792 185.747 129.363 186.104C129.933 186.456 130.365 186.949 130.659 187.584C130.952 188.213 131.099 188.941 131.099 189.768V190.4H125.539C125.539 190.821 125.608 191.189 125.747 191.504C125.885 191.813 126.085 192.053 126.347 192.224C126.613 192.389 126.933 192.472 127.307 192.472C127.707 192.472 128.056 192.387 128.355 192.216C128.653 192.045 128.864 191.765 128.987 191.376H131.091C130.995 191.963 130.76 192.464 130.387 192.88C130.013 193.296 129.56 193.613 129.027 193.832C128.493 194.051 127.939 194.16 127.363 194.16ZM125.539 189.008H128.915C128.915 188.677 128.851 188.373 128.723 188.096C128.6 187.819 128.413 187.6 128.163 187.44C127.917 187.28 127.608 187.2 127.235 187.2C126.877 187.2 126.571 187.288 126.315 187.464C126.064 187.635 125.869 187.859 125.731 188.136C125.597 188.413 125.533 188.704 125.539 189.008ZM132.781 194V185.728H135.077V186.896C135.205 186.693 135.371 186.499 135.573 186.312C135.781 186.12 136.043 185.963 136.357 185.84C136.672 185.717 137.045 185.656 137.477 185.656C137.984 185.656 138.456 185.755 138.893 185.952C139.336 186.149 139.693 186.461 139.965 186.888C140.237 187.309 140.373 187.861 140.373 188.544V194H138.037V188.832C138.037 188.384 137.904 188.048 137.637 187.824C137.371 187.6 137.045 187.488 136.661 187.488C136.405 187.488 136.157 187.533 135.917 187.624C135.683 187.715 135.491 187.851 135.341 188.032C135.192 188.213 135.117 188.437 135.117 188.704V194H132.781ZM145.537 194.088C144.806 194.088 144.241 193.995 143.841 193.808C143.446 193.621 143.171 193.36 143.017 193.024C142.867 192.688 142.793 192.299 142.793 191.856V187.352H141.449V185.728H142.865L143.457 183.232H145.121V185.72H146.961V187.352H145.121L145.137 191.76C145.137 191.963 145.161 192.115 145.209 192.216C145.262 192.312 145.342 192.376 145.449 192.408C145.561 192.435 145.702 192.448 145.873 192.448H146.985V193.888C146.873 193.936 146.705 193.981 146.481 194.024C146.257 194.067 145.942 194.088 145.537 194.088ZM152.53 194V182.432H155.922L158.57 190.68L161.242 182.432H164.626V194H162.266V185.152L159.482 194H157.65L154.882 185.192V194H152.53ZM170.503 194.16C169.682 194.16 168.959 193.989 168.335 193.648C167.716 193.301 167.234 192.813 166.887 192.184C166.54 191.555 166.367 190.813 166.367 189.96C166.367 189.133 166.524 188.389 166.839 187.728C167.159 187.061 167.618 186.536 168.215 186.152C168.812 185.763 169.535 185.568 170.383 185.568C171.226 185.568 171.932 185.747 172.503 186.104C173.074 186.456 173.506 186.949 173.799 187.584C174.092 188.213 174.239 188.941 174.239 189.768V190.4H168.679C168.679 190.821 168.748 191.189 168.887 191.504C169.026 191.813 169.226 192.053 169.487 192.224C169.754 192.389 170.074 192.472 170.447 192.472C170.847 192.472 171.196 192.387 171.495 192.216C171.794 192.045 172.004 191.765 172.127 191.376H174.231C174.135 191.963 173.9 192.464 173.527 192.88C173.154 193.296 172.7 193.613 172.167 193.832C171.634 194.051 171.079 194.16 170.503 194.16ZM168.679 189.008H172.055C172.055 188.677 171.991 188.373 171.863 188.096C171.74 187.819 171.554 187.6 171.303 187.44C171.058 187.28 170.748 187.2 170.375 187.2C170.018 187.2 169.711 187.288 169.455 187.464C169.204 187.635 169.01 187.859 168.871 188.136C168.738 188.413 168.674 188.704 168.679 189.008ZM179.05 194.16C177.941 194.16 177.077 193.779 176.458 193.016C175.839 192.248 175.53 191.181 175.53 189.816C175.53 188.952 175.655 188.203 175.906 187.568C176.157 186.933 176.527 186.443 177.018 186.096C177.509 185.744 178.109 185.568 178.818 185.568C179.117 185.568 179.394 185.603 179.65 185.672C179.911 185.736 180.149 185.827 180.362 185.944C180.575 186.061 180.762 186.197 180.922 186.352C181.082 186.507 181.213 186.672 181.314 186.848V182.112H183.658V194H181.962L181.698 192.304C181.618 192.533 181.511 192.757 181.378 192.976C181.25 193.195 181.082 193.395 180.874 193.576C180.666 193.752 180.41 193.893 180.106 194C179.807 194.107 179.455 194.16 179.05 194.16ZM179.562 192.48C180.149 192.48 180.586 192.275 180.874 191.864C181.167 191.453 181.314 190.76 181.314 189.784C181.309 189.219 181.242 188.749 181.114 188.376C180.986 188.003 180.794 187.725 180.538 187.544C180.287 187.357 179.967 187.264 179.578 187.264C179.071 187.264 178.65 187.459 178.314 187.848C177.978 188.232 177.81 188.877 177.81 189.784C177.81 190.707 177.967 191.387 178.282 191.824C178.597 192.261 179.023 192.48 179.562 192.48Z" fill="#FAF8FE"/>
<path d="M324.613 194V182.432H326.093V194H324.613ZM328.664 194V185.728H330.096V186.928C330.229 186.699 330.413 186.483 330.648 186.28C330.888 186.077 331.176 185.915 331.512 185.792C331.853 185.669 332.245 185.608 332.688 185.608C333.211 185.608 333.691 185.712 334.128 185.92C334.571 186.128 334.923 186.453 335.184 186.896C335.451 187.333 335.584 187.899 335.584 188.592V194H334.104V188.736C334.104 188.091 333.933 187.613 333.592 187.304C333.256 186.989 332.819 186.832 332.28 186.832C331.907 186.832 331.557 186.893 331.232 187.016C330.907 187.133 330.643 187.315 330.44 187.56C330.237 187.8 330.136 188.104 330.136 188.472V194H328.664ZM340.011 194.16C339.472 194.16 338.998 194.067 338.587 193.88C338.182 193.688 337.862 193.413 337.627 193.056C337.398 192.699 337.283 192.267 337.283 191.76C337.283 190.843 337.603 190.16 338.243 189.712C338.883 189.264 339.91 189.024 341.323 188.992L342.795 188.952V188.304C342.795 187.797 342.643 187.397 342.339 187.104C342.035 186.805 341.566 186.656 340.931 186.656C340.456 186.661 340.038 186.773 339.675 186.992C339.312 187.211 339.08 187.568 338.979 188.064H337.675C337.707 187.525 337.856 187.072 338.123 186.704C338.395 186.331 338.776 186.048 339.267 185.856C339.758 185.664 340.336 185.568 341.003 185.568C341.723 185.568 342.32 185.669 342.795 185.872C343.275 186.075 343.632 186.373 343.867 186.768C344.107 187.163 344.227 187.648 344.227 188.224V194H342.963L342.851 192.448C342.536 193.093 342.131 193.541 341.635 193.792C341.144 194.037 340.603 194.16 340.011 194.16ZM340.451 193.096C340.734 193.096 341.011 193.045 341.283 192.944C341.56 192.843 341.811 192.707 342.035 192.536C342.264 192.36 342.448 192.165 342.587 191.952C342.726 191.733 342.795 191.509 342.795 191.28V189.864L341.571 189.888C340.936 189.899 340.408 189.963 339.987 190.08C339.566 190.197 339.248 190.381 339.035 190.632C338.822 190.883 338.715 191.211 338.715 191.616C338.715 192.08 338.878 192.443 339.203 192.704C339.528 192.965 339.944 193.096 340.451 193.096ZM349.687 194.16C348.94 194.16 348.279 193.997 347.703 193.672C347.132 193.347 346.684 192.867 346.359 192.232C346.039 191.597 345.879 190.819 345.879 189.896C345.879 189.032 346.026 188.277 346.319 187.632C346.618 186.981 347.05 186.475 347.615 186.112C348.186 185.749 348.876 185.568 349.687 185.568C350.279 185.568 350.81 185.683 351.279 185.912C351.754 186.136 352.143 186.456 352.447 186.872C352.751 187.288 352.938 187.779 353.007 188.344H351.695C351.647 188.056 351.535 187.792 351.359 187.552C351.188 187.312 350.962 187.12 350.679 186.976C350.402 186.832 350.074 186.76 349.695 186.76C348.986 186.76 348.407 187.016 347.959 187.528C347.516 188.04 347.295 188.824 347.295 189.88C347.295 190.835 347.498 191.6 347.903 192.176C348.314 192.747 348.916 193.032 349.711 193.032C350.09 193.032 350.42 192.96 350.703 192.816C350.986 192.667 351.212 192.472 351.383 192.232C351.554 191.987 351.663 191.725 351.711 191.448H352.999C352.93 192.003 352.74 192.483 352.431 192.888C352.127 193.293 351.738 193.608 351.263 193.832C350.794 194.051 350.268 194.16 349.687 194.16ZM357.543 194.04C356.972 194.04 356.53 193.963 356.215 193.808C355.9 193.653 355.679 193.424 355.551 193.12C355.428 192.816 355.367 192.443 355.367 192V186.808H354.023V185.728H355.407L355.767 183.32H356.855V185.72H358.719V186.808H356.855V191.952C356.855 192.245 356.884 192.461 356.943 192.6C357.007 192.733 357.111 192.819 357.255 192.856C357.399 192.893 357.602 192.912 357.863 192.912H358.767V193.904C358.666 193.941 358.511 193.973 358.303 194C358.1 194.027 357.847 194.04 357.543 194.04ZM360.594 194V185.728H362.026V194H360.594ZM360.554 183.976V182.44H362.066V183.976H360.554ZM366.475 194L363.483 185.728H364.875L367.075 192.144H367.211L369.419 185.728H370.803L367.827 194H366.475ZM375.573 194.16C374.805 194.16 374.127 193.992 373.541 193.656C372.954 193.32 372.495 192.837 372.165 192.208C371.834 191.579 371.669 190.824 371.669 189.944C371.669 189.075 371.818 188.312 372.117 187.656C372.415 187 372.847 186.488 373.413 186.12C373.983 185.752 374.669 185.568 375.469 185.568C376.247 185.568 376.906 185.736 377.445 186.072C377.983 186.408 378.391 186.883 378.669 187.496C378.951 188.104 379.093 188.827 379.093 189.664V190.208H373.165C373.165 190.731 373.25 191.205 373.421 191.632C373.597 192.053 373.861 192.389 374.213 192.64C374.565 192.891 375.01 193.016 375.549 193.016C376.077 193.016 376.53 192.893 376.909 192.648C377.293 192.403 377.538 192.048 377.645 191.584H379.037C378.941 192.144 378.717 192.616 378.365 193C378.018 193.384 377.599 193.675 377.109 193.872C376.623 194.064 376.111 194.16 375.573 194.16ZM373.173 189.208H377.669C377.669 188.733 377.589 188.307 377.429 187.928C377.269 187.544 377.023 187.243 376.693 187.024C376.367 186.8 375.957 186.688 375.461 186.688C374.943 186.688 374.514 186.813 374.173 187.064C373.831 187.309 373.578 187.627 373.413 188.016C373.247 188.4 373.167 188.797 373.173 189.208Z" fill="#6E6E6E"/>
<g filter="url(#filter8_d_441_547)">
<rect x="68" y="397" width="350" height="104" rx="12" fill="#D9EDFF" fill-opacity="0.75"/>
<path d="M202.6 442.04V456H199.8V446.92L196.06 456H193.94L190.18 446.92V456H187.38V442.04H190.56L195 452.42L199.44 442.04H202.6ZM215.668 450.22C215.668 450.62 215.642 450.98 215.588 451.3H207.488C207.555 452.1 207.835 452.727 208.328 453.18C208.822 453.633 209.428 453.86 210.148 453.86C211.188 453.86 211.928 453.413 212.368 452.52H215.388C215.068 453.587 214.455 454.467 213.548 455.16C212.642 455.84 211.528 456.18 210.208 456.18C209.142 456.18 208.182 455.947 207.328 455.48C206.488 455 205.828 454.327 205.348 453.46C204.882 452.593 204.648 451.593 204.648 450.46C204.648 449.313 204.882 448.307 205.348 447.44C205.815 446.573 206.468 445.907 207.308 445.44C208.148 444.973 209.115 444.74 210.208 444.74C211.262 444.74 212.202 444.967 213.028 445.42C213.868 445.873 214.515 446.52 214.968 447.36C215.435 448.187 215.668 449.14 215.668 450.22ZM212.768 449.42C212.755 448.7 212.495 448.127 211.988 447.7C211.482 447.26 210.862 447.04 210.128 447.04C209.435 447.04 208.848 447.253 208.368 447.68C207.902 448.093 207.615 448.673 207.508 449.42H212.768ZM220.972 447.22V452.58C220.972 452.953 221.059 453.227 221.232 453.4C221.419 453.56 221.725 453.64 222.152 453.64H223.452V456H221.692C219.332 456 218.152 454.853 218.152 452.56V447.22H216.832V444.92H218.152V442.18H220.972V444.92H223.452V447.22H220.972ZM230.386 456.18C229.319 456.18 228.359 455.947 227.506 455.48C226.653 455 225.979 454.327 225.486 453.46C225.006 452.593 224.766 451.593 224.766 450.46C224.766 449.327 225.013 448.327 225.506 447.46C226.013 446.593 226.699 445.927 227.566 445.46C228.433 444.98 229.399 444.74 230.466 444.74C231.533 444.74 232.499 444.98 233.366 445.46C234.233 445.927 234.913 446.593 235.406 447.46C235.913 448.327 236.166 449.327 236.166 450.46C236.166 451.593 235.906 452.593 235.386 453.46C234.879 454.327 234.186 455 233.306 455.48C232.439 455.947 231.466 456.18 230.386 456.18ZM230.386 453.74C230.893 453.74 231.366 453.62 231.806 453.38C232.259 453.127 232.619 452.753 232.886 452.26C233.153 451.767 233.286 451.167 233.286 450.46C233.286 449.407 233.006 448.6 232.446 448.04C231.899 447.467 231.226 447.18 230.426 447.18C229.626 447.18 228.953 447.467 228.406 448.04C227.873 448.6 227.606 449.407 227.606 450.46C227.606 451.513 227.866 452.327 228.386 452.9C228.919 453.46 229.586 453.74 230.386 453.74ZM241.02 446.52C241.38 446.013 241.873 445.593 242.5 445.26C243.14 444.913 243.867 444.74 244.68 444.74C245.627 444.74 246.48 444.973 247.24 445.44C248.013 445.907 248.62 446.573 249.06 447.44C249.513 448.293 249.74 449.287 249.74 450.42C249.74 451.553 249.513 452.56 249.06 453.44C248.62 454.307 248.013 454.98 247.24 455.46C246.48 455.94 245.627 456.18 244.68 456.18C243.867 456.18 243.147 456.013 242.52 455.68C241.907 455.347 241.407 454.927 241.02 454.42V461.28H238.22V444.92H241.02V446.52ZM246.88 450.42C246.88 449.753 246.74 449.18 246.46 448.7C246.193 448.207 245.833 447.833 245.38 447.58C244.94 447.327 244.46 447.2 243.94 447.2C243.433 447.2 242.953 447.333 242.5 447.6C242.06 447.853 241.7 448.227 241.42 448.72C241.153 449.213 241.02 449.793 241.02 450.46C241.02 451.127 241.153 451.707 241.42 452.2C241.7 452.693 242.06 453.073 242.5 453.34C242.953 453.593 243.433 453.72 243.94 453.72C244.46 453.72 244.94 453.587 245.38 453.32C245.833 453.053 246.193 452.673 246.46 452.18C246.74 451.687 246.88 451.1 246.88 450.42ZM254.575 446.64C254.935 446.053 255.401 445.593 255.975 445.26C256.561 444.927 257.228 444.76 257.975 444.76V447.7H257.235C256.355 447.7 255.688 447.907 255.235 448.32C254.795 448.733 254.575 449.453 254.575 450.48V456H251.775V444.92H254.575V446.64ZM264.78 456.18C263.714 456.18 262.754 455.947 261.9 455.48C261.047 455 260.374 454.327 259.88 453.46C259.4 452.593 259.16 451.593 259.16 450.46C259.16 449.327 259.407 448.327 259.9 447.46C260.407 446.593 261.094 445.927 261.96 445.46C262.827 444.98 263.794 444.74 264.86 444.74C265.927 444.74 266.894 444.98 267.76 445.46C268.627 445.927 269.307 446.593 269.8 447.46C270.307 448.327 270.56 449.327 270.56 450.46C270.56 451.593 270.3 452.593 269.78 453.46C269.274 454.327 268.58 455 267.7 455.48C266.834 455.947 265.86 456.18 264.78 456.18ZM264.78 453.74C265.287 453.74 265.76 453.62 266.2 453.38C266.654 453.127 267.014 452.753 267.28 452.26C267.547 451.767 267.68 451.167 267.68 450.46C267.68 449.407 267.4 448.6 266.84 448.04C266.294 447.467 265.62 447.18 264.82 447.18C264.02 447.18 263.347 447.467 262.8 448.04C262.267 448.6 262 449.407 262 450.46C262 451.513 262.26 452.327 262.78 452.9C263.314 453.46 263.98 453.74 264.78 453.74ZM275.414 441.2V456H272.614V441.2H275.414ZM283.101 456.18C282.034 456.18 281.074 455.947 280.221 455.48C279.367 455 278.694 454.327 278.201 453.46C277.721 452.593 277.481 451.593 277.481 450.46C277.481 449.327 277.727 448.327 278.221 447.46C278.727 446.593 279.414 445.927 280.281 445.46C281.147 444.98 282.114 444.74 283.181 444.74C284.247 444.74 285.214 444.98 286.081 445.46C286.947 445.927 287.627 446.593 288.121 447.46C288.627 448.327 288.881 449.327 288.881 450.46C288.881 451.593 288.621 452.593 288.101 453.46C287.594 454.327 286.901 455 286.021 455.48C285.154 455.947 284.181 456.18 283.101 456.18ZM283.101 453.74C283.607 453.74 284.081 453.62 284.521 453.38C284.974 453.127 285.334 452.753 285.601 452.26C285.867 451.767 286.001 451.167 286.001 450.46C286.001 449.407 285.721 448.6 285.161 448.04C284.614 447.467 283.941 447.18 283.141 447.18C282.341 447.18 281.667 447.467 281.121 448.04C280.587 448.6 280.321 449.407 280.321 450.46C280.321 451.513 280.581 452.327 281.101 452.9C281.634 453.46 282.301 453.74 283.101 453.74ZM293.735 441.2V456H290.935V441.2H293.735Z" fill="#4D4D4D"/>
<g filter="url(#filter9_f_441_547)">
<rect x="89" y="413" width="72" height="72" rx="36" fill="white"/>
</g>
</g>
<g filter="url(#filter10_d_441_547)">
<rect x="68" y="277" width="350" height="104" rx="12" fill="#D9EDFF" fill-opacity="0.75"/>
<path d="M190.18 322.04V336H187.38V322.04H190.18ZM199.086 324.76C200.406 324.76 201.473 325.18 202.286 326.02C203.1 326.847 203.506 328.007 203.506 329.5V336H200.706V329.88C200.706 329 200.486 328.327 200.046 327.86C199.606 327.38 199.006 327.14 198.246 327.14C197.473 327.14 196.86 327.38 196.406 327.86C195.966 328.327 195.746 329 195.746 329.88V336H192.946V324.92H195.746V326.3C196.12 325.82 196.593 325.447 197.166 325.18C197.753 324.9 198.393 324.76 199.086 324.76ZM210.409 336.18C209.502 336.18 208.689 336.02 207.969 335.7C207.249 335.367 206.676 334.92 206.249 334.36C205.836 333.8 205.609 333.18 205.569 332.5H208.389C208.442 332.927 208.649 333.28 209.009 333.56C209.382 333.84 209.842 333.98 210.389 333.98C210.922 333.98 211.336 333.873 211.629 333.66C211.936 333.447 212.089 333.173 212.089 332.84C212.089 332.48 211.902 332.213 211.529 332.04C211.169 331.853 210.589 331.653 209.789 331.44C208.962 331.24 208.282 331.033 207.749 330.82C207.229 330.607 206.776 330.28 206.389 329.84C206.016 329.4 205.829 328.807 205.829 328.06C205.829 327.447 206.002 326.887 206.349 326.38C206.709 325.873 207.216 325.473 207.869 325.18C208.536 324.887 209.316 324.74 210.209 324.74C211.529 324.74 212.582 325.073 213.369 325.74C214.156 326.393 214.589 327.28 214.669 328.4H211.989C211.949 327.96 211.762 327.613 211.429 327.36C211.109 327.093 210.676 326.96 210.129 326.96C209.622 326.96 209.229 327.053 208.949 327.24C208.682 327.427 208.549 327.687 208.549 328.02C208.549 328.393 208.736 328.68 209.109 328.88C209.482 329.067 210.062 329.26 210.849 329.46C211.649 329.66 212.309 329.867 212.829 330.08C213.349 330.293 213.796 330.627 214.169 331.08C214.556 331.52 214.756 332.107 214.769 332.84C214.769 333.48 214.589 334.053 214.229 334.56C213.882 335.067 213.376 335.467 212.709 335.76C212.056 336.04 211.289 336.18 210.409 336.18ZM227.528 324.92V336H224.708V334.6C224.348 335.08 223.874 335.46 223.288 335.74C222.714 336.007 222.088 336.14 221.408 336.14C220.541 336.14 219.774 335.96 219.108 335.6C218.441 335.227 217.914 334.687 217.528 333.98C217.154 333.26 216.968 332.407 216.968 331.42V324.92H219.768V331.02C219.768 331.9 219.988 332.58 220.428 333.06C220.868 333.527 221.468 333.76 222.228 333.76C223.001 333.76 223.608 333.527 224.048 333.06C224.488 332.58 224.708 331.9 224.708 331.02V324.92H227.528ZM233.09 321.2V336H230.29V321.2H233.09ZM237.277 323.6C236.783 323.6 236.37 323.447 236.037 323.14C235.717 322.82 235.557 322.427 235.557 321.96C235.557 321.493 235.717 321.107 236.037 320.8C236.37 320.48 236.783 320.32 237.277 320.32C237.77 320.32 238.177 320.48 238.497 320.8C238.83 321.107 238.997 321.493 238.997 321.96C238.997 322.427 238.83 322.82 238.497 323.14C238.177 323.447 237.77 323.6 237.277 323.6ZM238.657 324.92V336H235.857V324.92H238.657ZM247.563 324.76C248.883 324.76 249.95 325.18 250.763 326.02C251.576 326.847 251.983 328.007 251.983 329.5V336H249.183V329.88C249.183 329 248.963 328.327 248.523 327.86C248.083 327.38 247.483 327.14 246.723 327.14C245.95 327.14 245.336 327.38 244.883 327.86C244.443 328.327 244.223 329 244.223 329.88V336H241.423V324.92H244.223V326.3C244.596 325.82 245.07 325.447 245.643 325.18C246.23 324.9 246.87 324.76 247.563 324.76ZM262.211 333.78H266.811V336H259.411V322.04H262.211V333.78ZM270.011 323.6C269.518 323.6 269.104 323.447 268.771 323.14C268.451 322.82 268.291 322.427 268.291 321.96C268.291 321.493 268.451 321.107 268.771 320.8C269.104 320.48 269.518 320.32 270.011 320.32C270.504 320.32 270.911 320.48 271.231 320.8C271.564 321.107 271.731 321.493 271.731 321.96C271.731 322.427 271.564 322.82 271.231 323.14C270.911 323.447 270.504 323.6 270.011 323.6ZM271.391 324.92V336H268.591V324.92H271.391ZM278.397 336.18C277.491 336.18 276.677 336.02 275.957 335.7C275.237 335.367 274.664 334.92 274.237 334.36C273.824 333.8 273.597 333.18 273.557 332.5H276.377C276.431 332.927 276.637 333.28 276.997 333.56C277.371 333.84 277.831 333.98 278.377 333.98C278.911 333.98 279.324 333.873 279.617 333.66C279.924 333.447 280.077 333.173 280.077 332.84C280.077 332.48 279.891 332.213 279.517 332.04C279.157 331.853 278.577 331.653 277.777 331.44C276.951 331.24 276.271 331.033 275.737 330.82C275.217 330.607 274.764 330.28 274.377 329.84C274.004 329.4 273.817 328.807 273.817 328.06C273.817 327.447 273.991 326.887 274.337 326.38C274.697 325.873 275.204 325.473 275.857 325.18C276.524 324.887 277.304 324.74 278.197 324.74C279.517 324.74 280.571 325.073 281.357 325.74C282.144 326.393 282.577 327.28 282.657 328.4H279.977C279.937 327.96 279.751 327.613 279.417 327.36C279.097 327.093 278.664 326.96 278.117 326.96C277.611 326.96 277.217 327.053 276.937 327.24C276.671 327.427 276.537 327.687 276.537 328.02C276.537 328.393 276.724 328.68 277.097 328.88C277.471 329.067 278.051 329.26 278.837 329.46C279.637 329.66 280.297 329.867 280.817 330.08C281.337 330.293 281.784 330.627 282.157 331.08C282.544 331.52 282.744 332.107 282.757 332.84C282.757 333.48 282.577 334.053 282.217 334.56C281.871 335.067 281.364 335.467 280.697 335.76C280.044 336.04 279.277 336.18 278.397 336.18ZM287.856 326.52C288.216 326.013 288.709 325.593 289.336 325.26C289.976 324.913 290.702 324.74 291.516 324.74C292.462 324.74 293.316 324.973 294.076 325.44C294.849 325.907 295.456 326.573 295.896 327.44C296.349 328.293 296.576 329.287 296.576 330.42C296.576 331.553 296.349 332.56 295.896 333.44C295.456 334.307 294.849 334.98 294.076 335.46C293.316 335.94 292.462 336.18 291.516 336.18C290.702 336.18 289.982 336.013 289.356 335.68C288.742 335.347 288.242 334.927 287.856 334.42V341.28H285.056V324.92H287.856V326.52ZM293.716 330.42C293.716 329.753 293.576 329.18 293.296 328.7C293.029 328.207 292.669 327.833 292.216 327.58C291.776 327.327 291.296 327.2 290.776 327.2C290.269 327.2 289.789 327.333 289.336 327.6C288.896 327.853 288.536 328.227 288.256 328.72C287.989 329.213 287.856 329.793 287.856 330.46C287.856 331.127 287.989 331.707 288.256 332.2C288.536 332.693 288.896 333.073 289.336 333.34C289.789 333.593 290.269 333.72 290.776 333.72C291.296 333.72 291.776 333.587 292.216 333.32C292.669 333.053 293.029 332.673 293.296 332.18C293.576 331.687 293.716 331.1 293.716 330.42ZM301.41 326.64C301.77 326.053 302.237 325.593 302.81 325.26C303.397 324.927 304.064 324.76 304.81 324.76V327.7H304.07C303.19 327.7 302.524 327.907 302.07 328.32C301.63 328.733 301.41 329.453 301.41 330.48V336H298.61V324.92H301.41V326.64ZM311.616 336.18C310.55 336.18 309.59 335.947 308.736 335.48C307.883 335 307.21 334.327 306.716 333.46C306.236 332.593 305.996 331.593 305.996 330.46C305.996 329.327 306.243 328.327 306.736 327.46C307.243 326.593 307.93 325.927 308.796 325.46C309.663 324.98 310.63 324.74 311.696 324.74C312.763 324.74 313.73 324.98 314.596 325.46C315.463 325.927 316.143 326.593 316.636 327.46C317.143 328.327 317.396 329.327 317.396 330.46C317.396 331.593 317.136 332.593 316.616 333.46C316.11 334.327 315.416 335 314.536 335.48C313.67 335.947 312.696 336.18 311.616 336.18ZM311.616 333.74C312.123 333.74 312.596 333.62 313.036 333.38C313.49 333.127 313.85 332.753 314.116 332.26C314.383 331.767 314.516 331.167 314.516 330.46C314.516 329.407 314.236 328.6 313.676 328.04C313.13 327.467 312.456 327.18 311.656 327.18C310.856 327.18 310.183 327.467 309.636 328.04C309.103 328.6 308.836 329.407 308.836 330.46C308.836 331.513 309.096 332.327 309.616 332.9C310.15 333.46 310.816 333.74 311.616 333.74Z" fill="#4D4D4D"/>
<g filter="url(#filter11_f_441_547)">
<rect x="89" y="293" width="72" height="72" rx="36" fill="white"/>
</g>
</g>
<path d="M115.832 339.805L114.329 338.302C114.011 337.983 113.488 337.983 113.169 338.302L109.473 341.999L111.558 344.084L115.832 339.811V339.805Z" fill="#FFE6C1"/>
<path d="M115.832 339.805L111.558 344.079L112.478 344.998L113.007 345.527L116.704 341.831C117.022 341.512 117.022 340.989 116.704 340.671L115.832 339.799V339.805Z" fill="#FDC26A"/>
<path d="M115.832 339.805L111.558 344.079L112.478 344.998L113.007 345.527L116.704 341.831C117.022 341.512 117.022 340.989 116.704 340.671L115.832 339.799V339.805Z" fill="#EBD4B2"/>
<path d="M112.478 345.004L111.558 344.084L109.473 341.999L108.505 341.031C108.21 340.736 107.724 340.736 107.429 341.031L106.221 342.239C105.926 342.534 105.926 343.021 106.221 343.315L111.697 348.791L110.2 347.294L112.484 345.01L112.478 345.004Z" fill="#FFB057"/>
<path d="M110.188 347.289L111.685 348.785C111.979 349.08 112.466 349.08 112.761 348.785L113.969 347.577C114.263 347.283 114.263 346.796 113.969 346.501L113.001 345.534L112.472 345.005L110.188 347.289Z" fill="#FFB057"/>
<path opacity="0.1" d="M110.188 347.289L111.685 348.785C111.979 349.08 112.466 349.08 112.761 348.785L113.969 347.577C114.263 347.283 114.263 346.796 113.969 346.501L113.001 345.534L112.472 345.005L110.188 347.289Z" fill="#1E1307"/>
<path d="M145.982 309.204C145.982 309.204 145.982 309.228 145.97 309.24C146.072 309.108 145.892 308.928 145.759 309.03L135.205 317.457L134.171 316.423C134.02 316.273 133.78 316.261 133.636 316.405L133.005 317.036L135.571 319.603L145.982 309.204Z" fill="#89CCC8"/>
<path d="M137.543 319.795L145.97 309.24C145.97 309.24 145.97 309.216 145.982 309.204L135.577 319.609L137.964 321.995L138.595 321.364C138.667 321.292 138.697 321.196 138.697 321.1C138.697 321.052 138.685 321.003 138.667 320.955C138.649 320.907 138.619 320.865 138.583 320.829L137.549 319.795H137.543Z" fill="#89CCC8"/>
<path opacity="0.2" d="M137.543 319.795L145.97 309.24C145.97 309.24 145.97 309.216 145.982 309.204L135.577 319.609L137.964 321.995L138.595 321.364C138.667 321.292 138.697 321.196 138.697 321.1C138.697 321.052 138.685 321.003 138.667 320.955C138.649 320.907 138.619 320.865 138.583 320.829L137.549 319.795H137.543Z" fill="#0F2825"/>
<path d="M133.017 317.037L132.873 316.892C132.752 316.772 132.554 316.772 132.434 316.892L131.773 317.554C131.652 317.674 131.652 317.872 131.773 317.992L137.008 323.228L135.271 321.491L136.371 320.391L138.108 322.128L137.964 321.984L135.577 319.597L133.011 317.031L133.017 317.037Z" fill="#00A39B"/>
<path d="M116.98 339.427L134.321 322.086L131.057 318.822C130.51 318.275 129.639 318.239 129.134 318.75L127.421 320.463L129.885 322.928C130.21 323.252 130.228 323.769 129.927 324.07C129.627 324.37 129.11 324.352 128.785 324.028L126.321 321.563L124.47 323.414L126.279 325.224C126.489 325.434 126.501 325.765 126.309 325.957C126.117 326.149 125.786 326.137 125.576 325.927L123.766 324.118L121.915 325.969L124.379 328.433C124.704 328.758 124.722 329.275 124.422 329.575C124.121 329.876 123.604 329.858 123.279 329.533L120.815 327.069L118.964 328.92L120.773 330.73C120.983 330.94 120.995 331.27 120.803 331.463C120.611 331.655 120.28 331.643 120.07 331.433L118.26 329.624L116.409 331.475L118.874 333.939C119.198 334.264 119.216 334.781 118.916 335.081C118.615 335.382 118.098 335.364 117.774 335.039L115.309 332.575L113.638 334.246C113.127 334.757 113.157 335.622 113.71 336.169L117.744 340.202L116.974 339.433L116.98 339.427Z" fill="#FFB057"/>
<path d="M135.271 321.497L137.008 323.234C137.128 323.354 137.326 323.354 137.447 323.234L138.108 322.573C138.228 322.453 138.228 322.254 138.108 322.134L136.371 320.397L135.271 321.497Z" fill="#00A39B"/>
<path opacity="0.11" d="M135.271 321.497L137.008 323.234C137.128 323.354 137.326 323.354 137.447 323.234L138.108 322.573C138.228 322.453 138.228 322.254 138.108 322.134L136.371 320.397L135.271 321.497Z" fill="#19423F"/>
<path d="M136.184 323.943L135.096 322.855L134.327 322.085L116.986 339.426L117.755 340.196L118.843 341.284C119.39 341.83 120.262 341.867 120.767 341.356L136.257 325.866C136.767 325.355 136.731 324.49 136.184 323.943Z" fill="#FFB057"/>
<path opacity="0.1" d="M136.184 323.943L135.096 322.855L134.327 322.085L116.986 339.426L117.755 340.196L118.843 341.284C119.39 341.83 120.262 341.867 120.767 341.356L136.257 325.866C136.767 325.355 136.731 324.49 136.184 323.943Z" fill="#1E1307"/>
<g filter="url(#filter12_d_441_547)">
<rect x="68" y="517" width="350" height="104" rx="12" fill="#D9EDFF" fill-opacity="0.75"/>
<path d="M202.6 562.04V576H199.8V566.92L196.06 576H193.94L190.18 566.92V576H187.38V562.04H190.56L195 572.42L199.44 562.04H202.6ZM215.828 564.92V576H213.008V574.6C212.648 575.08 212.175 575.46 211.588 575.74C211.015 576.007 210.388 576.14 209.708 576.14C208.842 576.14 208.075 575.96 207.408 575.6C206.742 575.227 206.215 574.687 205.828 573.98C205.455 573.26 205.268 572.407 205.268 571.42V564.92H208.068V571.02C208.068 571.9 208.288 572.58 208.728 573.06C209.168 573.527 209.768 573.76 210.528 573.76C211.302 573.76 211.908 573.527 212.348 573.06C212.788 572.58 213.008 571.9 213.008 571.02V564.92H215.828ZM221.391 566.52C221.751 566.013 222.244 565.593 222.871 565.26C223.511 564.913 224.238 564.74 225.051 564.74C225.998 564.74 226.851 564.973 227.611 565.44C228.384 565.907 228.991 566.573 229.431 567.44C229.884 568.293 230.111 569.287 230.111 570.42C230.111 571.553 229.884 572.56 229.431 573.44C228.991 574.307 228.384 574.98 227.611 575.46C226.851 575.94 225.998 576.18 225.051 576.18C224.238 576.18 223.518 576.013 222.891 575.68C222.278 575.347 221.778 574.927 221.391 574.42V581.28H218.591V564.92H221.391V566.52ZM227.251 570.42C227.251 569.753 227.111 569.18 226.831 568.7C226.564 568.207 226.204 567.833 225.751 567.58C225.311 567.327 224.831 567.2 224.311 567.2C223.804 567.2 223.324 567.333 222.871 567.6C222.431 567.853 222.071 568.227 221.791 568.72C221.524 569.213 221.391 569.793 221.391 570.46C221.391 571.127 221.524 571.707 221.791 572.2C222.071 572.693 222.431 573.073 222.871 573.34C223.324 573.593 223.804 573.72 224.311 573.72C224.831 573.72 225.311 573.587 225.751 573.32C226.204 573.053 226.564 572.673 226.831 572.18C227.111 571.687 227.251 571.1 227.251 570.42ZM233.566 563.6C233.072 563.6 232.659 563.447 232.326 563.14C232.006 562.82 231.846 562.427 231.846 561.96C231.846 561.493 232.006 561.107 232.326 560.8C232.659 560.48 233.072 560.32 233.566 560.32C234.059 560.32 234.466 560.48 234.786 560.8C235.119 561.107 235.286 561.493 235.286 561.96C235.286 562.427 235.119 562.82 234.786 563.14C234.466 563.447 234.059 563.6 233.566 563.6ZM234.946 564.92V576H232.146V564.92H234.946ZM240.512 566.64C240.872 566.053 241.339 565.593 241.912 565.26C242.499 564.927 243.165 564.76 243.912 564.76V567.7H243.172C242.292 567.7 241.625 567.907 241.172 568.32C240.732 568.733 240.512 569.453 240.512 570.48V576H237.712V564.92H240.512V566.64ZM250.718 576.18C249.651 576.18 248.691 575.947 247.838 575.48C246.985 575 246.311 574.327 245.818 573.46C245.338 572.593 245.098 571.593 245.098 570.46C245.098 569.327 245.345 568.327 245.838 567.46C246.345 566.593 247.031 565.927 247.898 565.46C248.765 564.98 249.731 564.74 250.798 564.74C251.865 564.74 252.831 564.98 253.698 565.46C254.565 565.927 255.245 566.593 255.738 567.46C256.245 568.327 256.498 569.327 256.498 570.46C256.498 571.593 256.238 572.593 255.718 573.46C255.211 574.327 254.518 575 253.638 575.48C252.771 575.947 251.798 576.18 250.718 576.18ZM250.718 573.74C251.225 573.74 251.698 573.62 252.138 573.38C252.591 573.127 252.951 572.753 253.218 572.26C253.485 571.767 253.618 571.167 253.618 570.46C253.618 569.407 253.338 568.6 252.778 568.04C252.231 567.467 251.558 567.18 250.758 567.18C249.958 567.18 249.285 567.467 248.738 568.04C248.205 568.6 247.938 569.407 247.938 570.46C247.938 571.513 248.198 572.327 248.718 572.9C249.251 573.46 249.918 573.74 250.718 573.74ZM257.832 570.46C257.832 569.313 258.065 568.313 258.532 567.46C258.999 566.593 259.645 565.927 260.472 565.46C261.299 564.98 262.245 564.74 263.312 564.74C264.685 564.74 265.819 565.087 266.712 565.78C267.619 566.46 268.225 567.42 268.532 568.66H265.512C265.352 568.18 265.079 567.807 264.692 567.54C264.319 567.26 263.852 567.12 263.292 567.12C262.492 567.12 261.859 567.413 261.392 568C260.925 568.573 260.692 569.393 260.692 570.46C260.692 571.513 260.925 572.333 261.392 572.92C261.859 573.493 262.492 573.78 263.292 573.78C264.425 573.78 265.165 573.273 265.512 572.26H268.532C268.225 573.46 267.619 574.413 266.712 575.12C265.805 575.827 264.672 576.18 263.312 576.18C262.245 576.18 261.299 575.947 260.472 575.48C259.645 575 258.999 574.333 258.532 573.48C258.065 572.613 257.832 571.607 257.832 570.46ZM272.003 563.6C271.51 563.6 271.096 563.447 270.763 563.14C270.443 562.82 270.283 562.427 270.283 561.96C270.283 561.493 270.443 561.107 270.763 560.8C271.096 560.48 271.51 560.32 272.003 560.32C272.496 560.32 272.903 560.48 273.223 560.8C273.556 561.107 273.723 561.493 273.723 561.96C273.723 562.427 273.556 562.82 273.223 563.14C272.903 563.447 272.496 563.6 272.003 563.6ZM273.383 564.92V576H270.583V564.92H273.383ZM282.29 564.76C283.61 564.76 284.676 565.18 285.49 566.02C286.303 566.847 286.71 568.007 286.71 569.5V576H283.91V569.88C283.91 569 283.69 568.327 283.25 567.86C282.81 567.38 282.21 567.14 281.45 567.14C280.676 567.14 280.063 567.38 279.61 567.86C279.17 568.327 278.95 569 278.95 569.88V576H276.15V564.92H278.95V566.3C279.323 565.82 279.796 565.447 280.37 565.18C280.956 564.9 281.596 564.76 282.29 564.76Z" fill="#4D4D4D"/>
<g filter="url(#filter13_f_441_547)">
<rect x="89" y="533" width="72" height="72" rx="36" fill="white"/>
</g>
</g>
<g clip-path="url(#clip0_441_547)">
<path d="M146.675 448.608C146.516 448.822 146.35 449.024 146.172 449.227C146.093 449.319 146.007 449.398 145.921 449.49C145.817 449.601 145.719 449.711 145.602 449.821C145.486 449.938 145.351 450.048 145.229 450.158C145.143 450.232 145.063 450.312 144.977 450.385C144.824 450.514 144.665 450.63 144.499 450.753C144.426 450.808 144.364 450.863 144.291 450.912C144.107 451.047 143.911 451.17 143.715 451.298C143.66 451.335 143.604 451.372 143.549 451.409C143.322 451.55 143.09 451.684 142.85 451.813C142.82 451.832 142.789 451.85 142.759 451.868C142.501 452.009 142.231 452.144 141.956 452.273C141.943 452.279 141.931 452.285 141.919 452.291C139.314 453.511 136.047 454.222 132.419 454.24C131.132 455.055 129.636 455.889 127.877 456.723C126.431 457.409 125.064 457.979 123.783 458.451C123.801 458.439 123.82 458.426 123.844 458.414C123.636 458.549 123.427 458.684 123.207 458.819C122.747 459.101 122.287 459.358 121.834 459.616C124.04 460.78 127.356 461.724 132.315 461.724C143.181 461.724 146.179 457.176 146.841 455.797C146.951 455.57 147 455.319 147 455.062V448.785C147 448.785 146.994 448.749 146.988 448.73C146.957 448.54 146.779 448.448 146.669 448.602L146.675 448.608Z" fill="#00A39B"/>
<path d="M118.285 450.783C121.558 448.779 124.194 446.413 125.885 444.158C127.013 442.386 127.375 440.664 126.762 439.463C126.725 439.383 126.51 438.727 126.118 438.323C125.272 437.452 122.355 436.594 119.014 436.674C116.716 437.324 114.179 438.427 111.672 439.965C104.727 444.213 100.596 450.103 102.441 453.125C102.466 453.161 102.49 453.192 102.515 453.223C102.515 453.204 102.503 453.192 102.496 453.174C104.513 455.975 111.482 454.945 118.285 450.783ZM108.105 450.072L121.16 439.806C121.429 439.598 121.822 439.641 122.03 439.91C122.238 440.18 122.195 440.572 121.926 440.781L108.871 451.047C108.601 451.255 108.209 451.212 108 450.943C107.792 450.673 107.835 450.281 108.105 450.072Z" fill="#FDC26A"/>
<path d="M112.07 460.259C113.725 459.707 115.637 458.763 117.825 457.243C125.199 452.107 126.02 447.13 126.008 445.083C126.008 444.752 125.959 444.513 125.861 444.207C125.873 444.188 125.879 444.17 125.891 444.158C124.2 446.419 121.558 448.779 118.291 450.783C111.482 454.945 104.519 455.975 102.503 453.174C102.503 453.192 102.515 453.204 102.521 453.223C102.533 453.253 102.539 453.278 102.558 453.308L105.604 458.285C105.886 458.745 106.284 459.119 106.762 459.37C107.749 459.885 109.649 460.547 112.536 460.21C112.377 460.228 112.223 460.247 112.07 460.259Z" fill="#FFB057"/>
<path d="M132.425 454.246C136.053 454.234 139.314 453.523 141.925 452.297C141.937 452.291 141.95 452.285 141.962 452.279C142.238 452.15 142.507 452.015 142.765 451.874C142.796 451.856 142.826 451.838 142.857 451.819C143.096 451.691 143.329 451.556 143.556 451.415C143.611 451.378 143.666 451.341 143.721 451.304C143.917 451.176 144.113 451.053 144.297 450.918C144.371 450.863 144.438 450.808 144.506 450.759C144.665 450.636 144.83 450.52 144.984 450.391C145.069 450.318 145.149 450.244 145.235 450.164C145.364 450.054 145.492 449.944 145.609 449.827C145.719 449.717 145.817 449.607 145.928 449.496C146.007 449.411 146.099 449.325 146.179 449.233C146.357 449.031 146.522 448.822 146.681 448.614C146.792 448.467 146.969 448.552 147 448.742C147 448.675 147.012 448.608 147.012 448.534C147.012 446.089 143.856 443.968 139.216 442.895L139.314 443.018C139.676 443.478 139.872 444.005 139.878 444.544C139.884 445.194 139.768 446.138 139.259 447.29H141.496C141.839 447.29 142.115 447.572 142.115 447.909C142.115 448.246 141.833 448.528 141.496 448.528H138.597C137.555 450.195 135.692 452.169 132.431 454.24L132.425 454.246Z" fill="#89CCC8"/>
<path d="M127.883 456.729C129.642 455.895 131.138 455.062 132.425 454.246C132.388 454.246 132.358 454.246 132.321 454.246C131.279 454.246 130.268 454.179 129.293 454.069C128.809 454.571 128.263 455.08 127.675 455.595C127.663 455.601 127.657 455.613 127.644 455.619C127.442 455.797 127.234 455.969 127.019 456.146C127.001 456.165 126.976 456.183 126.958 456.202C126.749 456.373 126.535 456.539 126.314 456.71C126.284 456.735 126.253 456.759 126.222 456.784C126.008 456.949 125.781 457.115 125.554 457.28C125.517 457.311 125.475 457.335 125.432 457.366C125.205 457.525 124.972 457.691 124.733 457.85C124.684 457.881 124.641 457.912 124.592 457.942C124.353 458.102 124.108 458.261 123.856 458.42C123.838 458.433 123.82 458.445 123.795 458.457C125.082 457.985 126.443 457.421 127.889 456.729H127.883Z" fill="#00A39B"/>
<path opacity="0.11" d="M127.883 456.729C129.642 455.895 131.138 455.062 132.425 454.246C132.388 454.246 132.358 454.246 132.321 454.246C131.279 454.246 130.268 454.179 129.293 454.069C128.809 454.571 128.263 455.08 127.675 455.595C127.663 455.601 127.657 455.613 127.644 455.619C127.442 455.797 127.234 455.969 127.019 456.146C127.001 456.165 126.976 456.183 126.958 456.202C126.749 456.373 126.535 456.539 126.314 456.71C126.284 456.735 126.253 456.759 126.222 456.784C126.008 456.949 125.781 457.115 125.554 457.28C125.517 457.311 125.475 457.335 125.432 457.366C125.205 457.525 124.972 457.691 124.733 457.85C124.684 457.881 124.641 457.912 124.592 457.942C124.353 458.102 124.108 458.261 123.856 458.42C123.838 458.433 123.82 458.445 123.795 458.457C125.082 457.985 126.443 457.421 127.889 456.729H127.883Z" fill="#3F3318"/>
<path d="M132.321 454.246C132.358 454.246 132.388 454.246 132.425 454.246C135.686 452.175 137.549 450.207 138.591 448.534H132.946C132.946 448.534 132.94 448.552 132.934 448.565C132.787 448.951 132.609 449.349 132.407 449.754C132.388 449.797 132.364 449.839 132.339 449.882C132.241 450.072 132.143 450.256 132.033 450.452C132.027 450.471 132.014 450.483 132.008 450.501C131.898 450.691 131.781 450.888 131.653 451.084C131.61 451.151 131.567 451.218 131.518 451.292C131.42 451.445 131.316 451.598 131.205 451.752C131.15 451.831 131.095 451.905 131.04 451.985C130.923 452.15 130.795 452.316 130.666 452.481C130.599 452.567 130.525 452.659 130.451 452.745C130.347 452.879 130.231 453.008 130.12 453.143C130.022 453.253 129.924 453.37 129.826 453.48C129.691 453.633 129.55 453.787 129.403 453.94C129.36 453.983 129.324 454.026 129.281 454.075C130.255 454.191 131.267 454.252 132.309 454.252L132.321 454.246Z" fill="#89CCC8"/>
<path opacity="0.11" d="M132.321 454.246C132.358 454.246 132.388 454.246 132.425 454.246C135.686 452.175 137.549 450.207 138.591 448.534H132.946C132.946 448.534 132.94 448.552 132.934 448.565C132.787 448.951 132.609 449.349 132.407 449.754C132.388 449.797 132.364 449.839 132.339 449.882C132.241 450.072 132.143 450.256 132.033 450.452C132.027 450.471 132.014 450.483 132.008 450.501C131.898 450.691 131.781 450.888 131.653 451.084C131.61 451.151 131.567 451.218 131.518 451.292C131.42 451.445 131.316 451.598 131.205 451.752C131.15 451.831 131.095 451.905 131.04 451.985C130.923 452.15 130.795 452.316 130.666 452.481C130.599 452.567 130.525 452.659 130.451 452.745C130.347 452.879 130.231 453.008 130.12 453.143C130.022 453.253 129.924 453.37 129.826 453.48C129.691 453.633 129.55 453.787 129.403 453.94C129.36 453.983 129.324 454.026 129.281 454.075C130.255 454.191 131.267 454.252 132.309 454.252L132.321 454.246Z" fill="#3F3318"/>
<path d="M139.308 443.018L139.21 442.895C137.383 442.472 135.318 442.209 133.136 442.16C133.222 442.331 133.295 442.503 133.363 442.681C133.375 442.711 133.387 442.742 133.4 442.779C133.455 442.932 133.504 443.091 133.547 443.251C133.571 443.336 133.583 443.416 133.602 443.502C133.626 443.625 133.651 443.741 133.669 443.864C133.7 444.084 133.718 444.299 133.718 444.526C133.724 445.279 133.639 446.217 133.357 447.29H139.259C139.768 446.137 139.884 445.194 139.878 444.544C139.872 444.005 139.676 443.477 139.314 443.018H139.308Z" fill="#89CCC8"/>
<path opacity="0.11" d="M139.308 443.018L139.21 442.895C137.383 442.472 135.318 442.209 133.136 442.16C133.222 442.331 133.295 442.503 133.363 442.681C133.375 442.711 133.387 442.742 133.4 442.779C133.455 442.932 133.504 443.091 133.547 443.251C133.571 443.336 133.583 443.416 133.602 443.502C133.626 443.625 133.651 443.741 133.669 443.864C133.7 444.084 133.718 444.299 133.718 444.526C133.724 445.279 133.639 446.217 133.357 447.29H139.259C139.768 446.137 139.884 445.194 139.878 444.544C139.872 444.005 139.676 443.477 139.314 443.018H139.308Z" fill="#3F3318"/>
<path d="M126.124 438.323C126.516 438.727 126.731 439.383 126.768 439.463C127.381 440.664 127.013 442.38 125.891 444.158C127.693 441.749 128.423 439.463 127.65 437.869C127.656 437.875 127.669 437.888 127.675 437.894C127.65 437.839 127.62 437.79 127.589 437.734C127.485 437.569 127.362 437.416 127.227 437.275C127.197 437.244 127.166 437.207 127.129 437.177C126.995 437.042 126.841 436.919 126.676 436.809C126.645 436.791 126.615 436.772 126.584 436.754C126.437 436.662 126.284 436.582 126.118 436.509C126.063 436.484 126.014 436.46 125.959 436.435C125.769 436.362 125.573 436.294 125.364 436.239C125.291 436.221 125.217 436.202 125.144 436.19C124.984 436.153 124.819 436.123 124.647 436.098C124.561 436.086 124.475 436.067 124.39 436.061C124.175 436.037 123.948 436.024 123.722 436.012C123.599 436.012 123.47 436.012 123.342 436.012C123.201 436.012 123.053 436.012 122.9 436.024C122.667 436.031 122.434 436.049 122.195 436.073C122.067 436.086 121.938 436.098 121.803 436.116C121.625 436.141 121.448 436.159 121.27 436.19C121.166 436.208 121.062 436.227 120.957 436.245C120.626 436.3 120.295 436.374 119.952 436.454C119.854 436.478 119.75 436.503 119.652 436.527C119.443 436.582 119.229 436.631 119.014 436.693C122.355 436.613 125.272 437.471 126.118 438.341L126.124 438.323Z" fill="#FDC26A"/>
<path opacity="0.08" d="M126.124 438.323C126.516 438.727 126.731 439.383 126.768 439.463C127.381 440.664 127.013 442.38 125.891 444.158C127.693 441.749 128.423 439.463 127.65 437.869C127.656 437.875 127.669 437.888 127.675 437.894C127.65 437.839 127.62 437.79 127.589 437.734C127.485 437.569 127.362 437.416 127.227 437.275C127.197 437.244 127.166 437.207 127.129 437.177C126.995 437.042 126.841 436.919 126.676 436.809C126.645 436.791 126.615 436.772 126.584 436.754C126.437 436.662 126.284 436.582 126.118 436.509C126.063 436.484 126.014 436.46 125.959 436.435C125.769 436.362 125.573 436.294 125.364 436.239C125.291 436.221 125.217 436.202 125.144 436.19C124.984 436.153 124.819 436.123 124.647 436.098C124.561 436.086 124.475 436.067 124.39 436.061C124.175 436.037 123.948 436.024 123.722 436.012C123.599 436.012 123.47 436.012 123.342 436.012C123.201 436.012 123.053 436.012 122.9 436.024C122.667 436.031 122.434 436.049 122.195 436.073C122.067 436.086 121.938 436.098 121.803 436.116C121.625 436.141 121.448 436.159 121.27 436.19C121.166 436.208 121.062 436.227 120.957 436.245C120.626 436.3 120.295 436.374 119.952 436.454C119.854 436.478 119.75 436.503 119.652 436.527C119.443 436.582 119.229 436.631 119.014 436.693C122.355 436.613 125.272 437.471 126.118 438.341L126.124 438.323Z" fill="#3F3318"/>
<path d="M127.65 437.869C128.416 439.463 127.693 441.749 125.891 444.158C125.879 444.176 125.873 444.195 125.861 444.207C125.959 444.513 126.002 444.752 126.008 445.083C126.026 447.13 125.199 452.107 117.825 457.244C115.637 458.77 113.725 459.714 112.07 460.259C112.223 460.247 112.377 460.228 112.536 460.21C112.542 460.21 112.548 460.21 112.554 460.21C112.707 460.192 112.861 460.173 113.014 460.149C113.026 460.149 113.045 460.149 113.057 460.143C113.204 460.118 113.357 460.094 113.51 460.063C113.535 460.063 113.559 460.057 113.578 460.051C113.725 460.02 113.878 459.996 114.025 459.959C114.056 459.953 114.093 459.946 114.123 459.934C114.27 459.904 114.418 459.867 114.565 459.83C114.608 459.818 114.65 459.806 114.693 459.799C114.834 459.763 114.981 459.726 115.128 459.683C115.178 459.671 115.233 459.652 115.282 459.64C115.423 459.597 115.564 459.554 115.705 459.511C115.766 459.493 115.827 459.468 115.889 459.45C116.023 459.407 116.164 459.358 116.305 459.309C116.379 459.285 116.452 459.254 116.526 459.229C116.661 459.18 116.796 459.131 116.93 459.082C117.01 459.052 117.096 459.015 117.176 458.984C117.304 458.935 117.433 458.88 117.568 458.825C117.66 458.788 117.758 458.745 117.85 458.702C117.972 458.647 118.101 458.598 118.224 458.537C118.328 458.488 118.438 458.439 118.549 458.39C118.671 458.335 118.788 458.279 118.91 458.224C119.033 458.169 119.155 458.102 119.272 458.046C119.382 457.991 119.499 457.936 119.609 457.875C119.744 457.807 119.885 457.728 120.026 457.654C120.13 457.599 120.228 457.544 120.332 457.489C120.491 457.403 120.651 457.311 120.81 457.219C120.902 457.17 120.988 457.121 121.074 457.072C121.325 456.925 121.582 456.772 121.84 456.618C130.249 451.476 131.193 446.487 131.175 444.434C131.175 443.894 131.015 443.367 130.733 442.908L127.687 437.931C127.687 437.931 127.669 437.912 127.663 437.9C127.656 437.894 127.644 437.882 127.638 437.876L127.65 437.869Z" fill="#FFB057"/>
<path opacity="0.08" d="M127.65 437.869C128.416 439.463 127.693 441.749 125.891 444.158C125.879 444.176 125.873 444.195 125.861 444.207C125.959 444.513 126.002 444.752 126.008 445.083C126.026 447.13 125.199 452.107 117.825 457.244C115.637 458.77 113.725 459.714 112.07 460.259C112.223 460.247 112.377 460.228 112.536 460.21C112.542 460.21 112.548 460.21 112.554 460.21C112.707 460.192 112.861 460.173 113.014 460.149C113.026 460.149 113.045 460.149 113.057 460.143C113.204 460.118 113.357 460.094 113.51 460.063C113.535 460.063 113.559 460.057 113.578 460.051C113.725 460.02 113.878 459.996 114.025 459.959C114.056 459.953 114.093 459.946 114.123 459.934C114.27 459.904 114.418 459.867 114.565 459.83C114.608 459.818 114.65 459.806 114.693 459.799C114.834 459.763 114.981 459.726 115.128 459.683C115.178 459.671 115.233 459.652 115.282 459.64C115.423 459.597 115.564 459.554 115.705 459.511C115.766 459.493 115.827 459.468 115.889 459.45C116.023 459.407 116.164 459.358 116.305 459.309C116.379 459.285 116.452 459.254 116.526 459.229C116.661 459.18 116.796 459.131 116.93 459.082C117.01 459.052 117.096 459.015 117.176 458.984C117.304 458.935 117.433 458.88 117.568 458.825C117.66 458.788 117.758 458.745 117.85 458.702C117.972 458.647 118.101 458.598 118.224 458.537C118.328 458.488 118.438 458.439 118.549 458.39C118.671 458.335 118.788 458.279 118.91 458.224C119.033 458.169 119.155 458.102 119.272 458.046C119.382 457.991 119.499 457.936 119.609 457.875C119.744 457.807 119.885 457.728 120.026 457.654C120.13 457.599 120.228 457.544 120.332 457.489C120.491 457.403 120.651 457.311 120.81 457.219C120.902 457.17 120.988 457.121 121.074 457.072C121.325 456.925 121.582 456.772 121.84 456.618C130.249 451.476 131.193 446.487 131.175 444.434C131.175 443.894 131.015 443.367 130.733 442.908L127.687 437.931C127.687 437.931 127.669 437.912 127.663 437.9C127.656 437.894 127.644 437.882 127.638 437.876L127.65 437.869Z" fill="#3F3318"/>
</g>
<g clip-path="url(#clip1_441_547)">
<path d="M117.436 567.509L115.494 569.772C113.832 571.708 113.712 574.388 115.139 575.815L118.917 579.593L124.216 574.295L117.436 567.514V567.509Z" fill="#FFB057"/>
<path d="M139.779 558.732L132.216 551.169C131.899 550.852 131.259 550.989 130.854 551.47L125.343 557.917L137.083 569.658L132.971 565.545L139.784 558.732H139.779Z" fill="#FFB057"/>
<path d="M125.195 573.316L132.025 566.486L124.528 558.989L118.283 566.404L128.596 576.712L136.011 570.472L128.596 576.712L125.195 573.316Z" fill="#FDC26A"/>
<path d="M115.379 580.337L113.766 578.724L112.684 579.807C112.41 580.08 112.41 580.523 112.684 580.796L113.805 581.917L115.385 580.337H115.379Z" fill="#89CCC8"/>
<path d="M116.768 578.953L114.346 576.531L113.679 577.198C113.28 577.597 113.28 578.237 113.679 578.636L113.766 578.724L115.385 580.342L116.768 578.959V578.953Z" fill="#00A39B"/>
<path d="M112.76 585.444C112.186 584.547 112.159 583.82 112.12 583.186C112.027 583.164 111.934 583.175 111.858 583.246C111.563 583.53 110.961 584.001 109.955 584.318C108.435 584.799 106.466 584.394 105.198 585.625C104.339 586.456 104.071 587.025 104 587.364C103.956 587.56 104.115 587.741 104.317 587.719C105.203 587.61 107.839 587.309 109.561 587.353C110.551 587.38 111.803 587.418 112.924 587.555C112.941 587.517 112.962 587.478 112.973 587.44C113.203 586.746 113.351 586.385 112.749 585.455L112.76 585.444Z" fill="#89CCC8"/>
<path d="M118.923 579.588L119.191 579.856C119.814 580.479 120.678 580.807 121.613 580.84C121.865 580.851 122.127 580.835 122.384 580.802C122.871 580.736 123.369 580.594 123.85 580.381C124.331 580.162 124.796 579.872 125.228 579.506L126.272 578.609L127.492 577.565L124.222 574.295L118.923 579.593V579.588Z" fill="#FFB057"/>
<path opacity="0.17" d="M118.923 579.588L119.191 579.856C119.814 580.479 120.678 580.807 121.613 580.84C121.865 580.851 122.127 580.835 122.384 580.802C122.871 580.736 123.369 580.594 123.85 580.381C124.331 580.162 124.796 579.872 125.228 579.506L126.272 578.609L127.492 577.565L124.222 574.295L118.923 579.593V579.588Z" fill="#3F3318"/>
<path d="M125.195 573.316L128.596 576.712L136.011 570.472L132.025 566.486L125.195 573.316Z" fill="#FDC26A"/>
<path opacity="0.17" d="M125.195 573.316L128.596 576.712L136.011 570.472L132.025 566.486L125.195 573.316Z" fill="#3F3318"/>
<path d="M143.962 562.992C143.934 562.915 143.891 562.844 143.83 562.784L139.778 558.732L132.965 565.545L137.077 569.657L143.524 564.145C143.765 563.943 143.918 563.681 143.973 563.429C143.989 563.369 143.994 563.303 143.994 563.243C143.994 563.156 143.984 563.068 143.956 562.986L143.962 562.992Z" fill="#FFB057"/>
<path opacity="0.17" d="M143.962 562.992C143.934 562.915 143.891 562.844 143.83 562.784L139.778 558.732L132.965 565.545L137.077 569.657L143.524 564.145C143.765 563.943 143.918 563.681 143.973 563.429C143.989 563.369 143.994 563.303 143.994 563.243C143.994 563.156 143.984 563.068 143.956 562.986L143.962 562.992Z" fill="#3F3318"/>
<path d="M113.804 581.917L114.204 582.317C114.477 582.59 114.92 582.59 115.193 582.317L115.762 581.748L116.282 581.228L115.385 580.332L113.804 581.912V581.917Z" fill="#89CCC8"/>
<path opacity="0.11" d="M113.804 581.917L114.204 582.317C114.477 582.59 114.92 582.59 115.193 582.317L115.762 581.748L116.282 581.228L115.385 580.332L113.804 581.912V581.917Z" fill="#19423F"/>
<path d="M115.385 580.337L116.282 581.234L116.369 581.321C116.566 581.518 116.828 581.616 117.085 581.616C117.217 581.616 117.348 581.589 117.468 581.54C117.588 581.491 117.703 581.414 117.802 581.316L118.469 580.649L116.768 578.948L115.385 580.331V580.337Z" fill="#00A39B"/>
<path opacity="0.11" d="M115.385 580.337L116.282 581.234L116.369 581.321C116.566 581.518 116.828 581.616 117.085 581.616C117.217 581.616 117.348 581.589 117.468 581.54C117.588 581.491 117.703 581.414 117.802 581.316L118.469 580.649L116.768 578.948L115.385 580.331V580.337Z" fill="#19423F"/>
<path d="M112.29 583.295C112.268 583.268 112.241 583.246 112.208 583.224C112.181 583.208 112.148 583.197 112.12 583.186C112.153 583.82 112.181 584.547 112.76 585.444C113.362 586.374 113.209 586.735 112.984 587.429C112.973 587.473 112.952 587.511 112.935 587.544C113.099 587.566 113.258 587.588 113.416 587.61C113.816 587.67 114.182 587.391 114.247 586.992C114.357 586.341 114.226 585.761 113.772 585.094C113.312 584.422 112.853 584.033 112.295 583.29L112.29 583.295Z" fill="#89CCC8"/>
<path opacity="0.11" d="M112.29 583.295C112.268 583.268 112.241 583.246 112.208 583.224C112.181 583.208 112.148 583.197 112.12 583.186C112.153 583.82 112.181 584.547 112.76 585.444C113.362 586.374 113.209 586.735 112.984 587.429C112.973 587.473 112.952 587.511 112.935 587.544C113.099 587.566 113.258 587.588 113.416 587.61C113.816 587.67 114.182 587.391 114.247 586.992C114.357 586.341 114.226 585.761 113.772 585.094C113.312 584.422 112.853 584.033 112.295 583.29L112.29 583.295Z" fill="#19423F"/>
</g>
</g>
<defs>
<filter id="filter0_d_441_547" x="0.5" y="0.5" width="649" height="687" filterUnits="userSpaceOnUse" color-interpolation-filters="sRGB">
<feFlood flood-opacity="0" result="BackgroundImageFix"/>
<feColorMatrix in="SourceAlpha" type="matrix" values="0 0 0 0 0 0 0 0 0 0 0 0 0 0 0 0 0 0 127 0" result="hardAlpha"/>
<feOffset dy="10"/>
<feGaussianBlur stdDeviation="14.25"/>
<feComposite in2="hardAlpha" operator="out"/>
<feColorMatrix type="matrix" values="0 0 0 0 0.0627451 0 0 0 0 0.4 0 0 0 0 0.384314 0 0 0 0.25 0"/>
<feBlend mode="normal" in2="BackgroundImageFix" result="effect1_dropShadow_441_547"/>
<feBlend mode="normal" in="SourceGraphic" in2="effect1_dropShadow_441_547" result="shape"/>
</filter>
<filter id="filter1_d_441_547" x="225" y="257" width="362" height="116" filterUnits="userSpaceOnUse" color-interpolation-filters="sRGB">
<feFlood flood-opacity="0" result="BackgroundImageFix"/>
<feColorMatrix in="SourceAlpha" type="matrix" values="0 0 0 0 0 0 0 0 0 0 0 0 0 0 0 0 0 0 127 0" result="hardAlpha"/>
<feOffset dx="1" dy="3"/>
<feGaussianBlur stdDeviation="3"/>
<feComposite in2="hardAlpha" operator="out"/>
<feColorMatrix type="matrix" values="0 0 0 0 0 0 0 0 0 0 0 0 0 0 0 0 0 0 0.1 0"/>
<feBlend mode="normal" in2="BackgroundImageFix" result="effect1_dropShadow_441_547"/>
<feBlend mode="normal" in="SourceGraphic" in2="effect1_dropShadow_441_547" result="shape"/>
</filter>
<filter id="filter2_f_441_547" x="249" y="274" width="76" height="76" filterUnits="userSpaceOnUse" color-interpolation-filters="sRGB">
<feFlood flood-opacity="0" result="BackgroundImageFix"/>
<feBlend mode="normal" in="SourceGraphic" in2="BackgroundImageFix" result="shape"/>
<feGaussianBlur stdDeviation="1" result="effect1_foregroundBlur_441_547"/>
</filter>
<filter id="filter3_d_441_547" x="225" y="137" width="362" height="116" filterUnits="userSpaceOnUse" color-interpolation-filters="sRGB">
<feFlood flood-opacity="0" result="BackgroundImageFix"/>
<feColorMatrix in="SourceAlpha" type="matrix" values="0 0 0 0 0 0 0 0 0 0 0 0 0 0 0 0 0 0 127 0" result="hardAlpha"/>
<feOffset dx="1" dy="3"/>
<feGaussianBlur stdDeviation="3"/>
<feComposite in2="hardAlpha" operator="out"/>
<feColorMatrix type="matrix" values="0 0 0 0 0 0 0 0 0 0 0 0 0 0 0 0 0 0 0.1 0"/>
<feBlend mode="normal" in2="BackgroundImageFix" result="effect1_dropShadow_441_547"/>
<feBlend mode="normal" in="SourceGraphic" in2="effect1_dropShadow_441_547" result="shape"/>
</filter>
<filter id="filter4_f_441_547" x="249" y="154" width="76" height="76" filterUnits="userSpaceOnUse" color-interpolation-filters="sRGB">
<feFlood flood-opacity="0" result="BackgroundImageFix"/>
<feBlend mode="normal" in="SourceGraphic" in2="BackgroundImageFix" result="shape"/>
<feGaussianBlur stdDeviation="1" result="effect1_foregroundBlur_441_547"/>
</filter>
<filter id="filter5_d_441_547" x="225" y="377" width="362" height="116" filterUnits="userSpaceOnUse" color-interpolation-filters="sRGB">
<feFlood flood-opacity="0" result="BackgroundImageFix"/>
<feColorMatrix in="SourceAlpha" type="matrix" values="0 0 0 0 0 0 0 0 0 0 0 0 0 0 0 0 0 0 127 0" result="hardAlpha"/>
<feOffset dx="1" dy="3"/>
<feGaussianBlur stdDeviation="3"/>
<feComposite in2="hardAlpha" operator="out"/>
<feColorMatrix type="matrix" values="0 0 0 0 0 0 0 0 0 0 0 0 0 0 0 0 0 0 0.1 0"/>
<feBlend mode="normal" in2="BackgroundImageFix" result="effect1_dropShadow_441_547"/>
<feBlend mode="normal" in="SourceGraphic" in2="effect1_dropShadow_441_547" result="shape"/>
</filter>
<filter id="filter6_f_441_547" x="249" y="394" width="76" height="76" filterUnits="userSpaceOnUse" color-interpolation-filters="sRGB">
<feFlood flood-opacity="0" result="BackgroundImageFix"/>
<feBlend mode="normal" in="SourceGraphic" in2="BackgroundImageFix" result="shape"/>
<feGaussianBlur stdDeviation="1" result="effect1_foregroundBlur_441_547"/>
</filter>
<filter id="filter7_d_441_547" x="235" y="142" width="234" height="84" filterUnits="userSpaceOnUse" color-interpolation-filters="sRGB">
<feFlood flood-opacity="0" result="BackgroundImageFix"/>
<feColorMatrix in="SourceAlpha" type="matrix" values="0 0 0 0 0 0 0 0 0 0 0 0 0 0 0 0 0 0 127 0" result="hardAlpha"/>
<feOffset dy="-4"/>
<feGaussianBlur stdDeviation="5"/>
<feComposite in2="hardAlpha" operator="out"/>
<feColorMatrix type="matrix" values="0 0 0 0 0.764746 0 0 0 0 0.764746 0 0 0 0 0.764746 0 0 0 0.15 0"/>
<feBlend mode="normal" in2="BackgroundImageFix" result="effect1_dropShadow_441_547"/>
<feBlend mode="normal" in="SourceGraphic" in2="effect1_dropShadow_441_547" result="shape"/>
</filter>
<filter id="filter8_d_441_547" x="63" y="394" width="362" height="116" filterUnits="userSpaceOnUse" color-interpolation-filters="sRGB">
<feFlood flood-opacity="0" result="BackgroundImageFix"/>
<feColorMatrix in="SourceAlpha" type="matrix" values="0 0 0 0 0 0 0 0 0 0 0 0 0 0 0 0 0 0 127 0" result="hardAlpha"/>
<feOffset dx="1" dy="3"/>
<feGaussianBlur stdDeviation="3"/>
<feComposite in2="hardAlpha" operator="out"/>
<feColorMatrix type="matrix" values="0 0 0 0 0 0 0 0 0 0 0 0 0 0 0 0 0 0 0.1 0"/>
<feBlend mode="normal" in2="BackgroundImageFix" result="effect1_dropShadow_441_547"/>
<feBlend mode="normal" in="SourceGraphic" in2="effect1_dropShadow_441_547" result="shape"/>
</filter>
<filter id="filter9_f_441_547" x="87" y="411" width="76" height="76" filterUnits="userSpaceOnUse" color-interpolation-filters="sRGB">
<feFlood flood-opacity="0" result="BackgroundImageFix"/>
<feBlend mode="normal" in="SourceGraphic" in2="BackgroundImageFix" result="shape"/>
<feGaussianBlur stdDeviation="1" result="effect1_foregroundBlur_441_547"/>
</filter>
<filter id="filter10_d_441_547" x="63" y="274" width="362" height="116" filterUnits="userSpaceOnUse" color-interpolation-filters="sRGB">
<feFlood flood-opacity="0" result="BackgroundImageFix"/>
<feColorMatrix in="SourceAlpha" type="matrix" values="0 0 0 0 0 0 0 0 0 0 0 0 0 0 0 0 0 0 127 0" result="hardAlpha"/>
<feOffset dx="1" dy="3"/>
<feGaussianBlur stdDeviation="3"/>
<feComposite in2="hardAlpha" operator="out"/>
<feColorMatrix type="matrix" values="0 0 0 0 0 0 0 0 0 0 0 0 0 0 0 0 0 0 0.1 0"/>
<feBlend mode="normal" in2="BackgroundImageFix" result="effect1_dropShadow_441_547"/>
<feBlend mode="normal" in="SourceGraphic" in2="effect1_dropShadow_441_547" result="shape"/>
</filter>
<filter id="filter11_f_441_547" x="87" y="291" width="76" height="76" filterUnits="userSpaceOnUse" color-interpolation-filters="sRGB">
<feFlood flood-opacity="0" result="BackgroundImageFix"/>
<feBlend mode="normal" in="SourceGraphic" in2="BackgroundImageFix" result="shape"/>
<feGaussianBlur stdDeviation="1" result="effect1_foregroundBlur_441_547"/>
</filter>
<filter id="filter12_d_441_547" x="63" y="514" width="362" height="116" filterUnits="userSpaceOnUse" color-interpolation-filters="sRGB">
<feFlood flood-opacity="0" result="BackgroundImageFix"/>
<feColorMatrix in="SourceAlpha" type="matrix" values="0 0 0 0 0 0 0 0 0 0 0 0 0 0 0 0 0 0 127 0" result="hardAlpha"/>
<feOffset dx="1" dy="3"/>
<feGaussianBlur stdDeviation="3"/>
<feComposite in2="hardAlpha" operator="out"/>
<feColorMatrix type="matrix" values="0 0 0 0 0 0 0 0 0 0 0 0 0 0 0 0 0 0 0.1 0"/>
<feBlend mode="normal" in2="BackgroundImageFix" result="effect1_dropShadow_441_547"/>
<feBlend mode="normal" in="SourceGraphic" in2="effect1_dropShadow_441_547" result="shape"/>
</filter>
<filter id="filter13_f_441_547" x="87" y="531" width="76" height="76" filterUnits="userSpaceOnUse" color-interpolation-filters="sRGB">
<feFlood flood-opacity="0" result="BackgroundImageFix"/>
<feBlend mode="normal" in="SourceGraphic" in2="BackgroundImageFix" result="shape"/>
<feGaussianBlur stdDeviation="1" result="effect1_foregroundBlur_441_547"/>
</filter>
<clipPath id="clip0_441_547">
<rect width="45" height="25.7239" fill="white" transform="translate(102 436)"/>
</clipPath>
<clipPath id="clip1_441_547">
<rect width="40" height="36.7191" fill="white" transform="translate(104 551)"/>
</clipPath>
</defs>
</svg>
