<svg width="584" height="335" viewBox="0 0 584 335" fill="none" xmlns="http://www.w3.org/2000/svg">
<g filter="url(#filter0_d_454_502)">
<rect x="29" y="19" width="526" height="92.3064" rx="23.4429" fill="white" fill-opacity="0.8" shape-rendering="crispEdges"/>
<path d="M92.8788 36.5822H68.9332C59.8418 36.5822 52.4429 44.0091 52.4429 53.135V77.1714C52.4429 86.2973 59.8418 93.7242 68.9332 93.7242H92.8788C101.97 93.7242 109.369 86.2973 109.369 77.1714V53.135C109.369 44.0091 101.97 36.5822 92.8788 36.5822ZM105.726 77.1714C105.726 80.6017 104.388 83.8378 101.946 86.2811C99.5121 88.7244 96.2881 90.0755 92.8708 90.0755H68.9251C65.5078 90.0755 62.2839 88.7325 59.8498 86.2811C57.4158 83.8378 56.0698 80.6017 56.0698 77.1714V53.135C56.0698 49.7047 57.4077 46.4685 59.8498 44.0253C62.2839 41.582 65.5078 40.2309 68.9251 40.2309H92.8708C96.2881 40.2309 99.5121 41.5739 101.946 44.0253C104.38 46.4685 105.726 49.7047 105.726 53.135V77.1714Z" fill="#91C7C4"/>
<path d="M81.5872 79.4528H80.1686C78.8822 79.4528 77.8394 80.4996 77.8394 81.7909V83.2148C77.8394 84.5061 78.8822 85.5529 80.1686 85.5529H81.5872C82.8736 85.5529 83.9164 84.5061 83.9164 83.2148V81.7909C83.9164 80.4996 82.8736 79.4528 81.5872 79.4528Z" fill="#00A39B"/>
<path d="M79.7817 47.3666C82.1996 47.3666 84.0614 47.4394 85.6009 47.5365C85.3671 45.2874 84.3355 43.548 83.0056 43.548H78.7339C77.396 43.548 76.3643 45.3036 76.1387 47.5689C77.1461 47.4313 78.2987 47.3666 79.6608 47.3585C79.7011 47.3585 79.7414 47.3585 79.7817 47.3585V47.3666Z" fill="#00A39B"/>
<path d="M84.1419 71.7671L83.9243 74.4531C84.7706 74.6472 85.5363 74.8091 86.1408 74.9304C86.9306 75.0841 87.7044 74.6311 87.8575 73.9191L87.8736 73.8382C88.0187 73.1586 87.5351 72.4952 86.7775 72.3496C86.0763 72.2121 85.1575 72.0179 84.15 71.7752C84.15 71.7752 84.15 71.7752 84.1419 71.7752V71.7671Z" fill="#EEB569"/>
<path d="M85.0929 57.1315L84.8914 59.8418C85.3267 59.9631 85.7296 60.1087 86.0843 60.2625C87.3577 60.8369 87.5189 61.4113 87.5028 61.9453C87.5028 62.1799 87.4786 62.6248 86.2777 62.997C85.7861 63.1507 85.2219 63.2478 84.6335 63.3206C84.2869 63.3611 83.9404 63.3934 83.5938 63.4258C83.2472 63.4501 82.9168 63.4743 82.6024 63.4986C81.9818 63.5391 81.4418 63.5714 80.9824 63.6442C80.7084 63.6847 80.4585 63.7332 80.2409 63.806C80.1845 63.8222 80.12 63.8384 80.0556 63.8546C79.9911 63.8708 79.9105 63.8869 79.8218 63.9112C79.7815 63.9193 79.7412 63.9274 79.6929 63.9355C79.5639 63.9598 79.4188 63.9921 79.2738 64.0164C79.1932 64.0326 79.1126 64.0487 79.032 64.0649C78.6209 64.1458 78.1776 64.2429 77.7182 64.3643C77.5328 64.4128 77.3555 64.4694 77.1701 64.5261C76.743 64.6636 76.3158 64.8335 75.9048 65.0519C74.4379 65.8367 73.5755 67.0422 73.4304 68.5551C73.3095 69.7848 74.188 70.9094 76.0579 71.8802C76.5495 72.1391 77.1218 72.3899 77.7666 72.6407L77.6699 71.5485C77.6376 71.0873 77.5409 70.4077 77.4764 69.5502C77.4764 69.5502 77.4281 69.5259 77.4039 69.5097C76.5415 69.0405 76.5334 67.7865 77.3958 67.3253C77.3958 67.3253 77.4119 67.3253 77.4119 67.3172C78.1212 66.937 79.0723 66.7509 79.9185 66.581C80.3941 66.4839 80.8454 66.3949 81.2242 66.2736C81.4418 66.2089 82.2398 66.1522 82.8201 66.1199C84.158 66.0309 85.8183 65.9257 87.2449 65.4807C89.8401 64.6798 90.4285 63.1507 90.4607 62.0019C90.5252 59.7609 88.8407 58.523 87.4061 57.8839C86.7049 57.5684 85.915 57.3257 85.1171 57.1234C85.1171 57.1234 85.101 57.1234 85.0929 57.1234V57.1315Z" fill="#EEB569"/>
<path d="M92.782 50.4247C92.0485 50.0688 91.4763 49.737 91.3473 49.551C90.5575 48.8471 90.227 48.2322 87.5834 47.6902C86.9789 47.6336 86.3341 47.5769 85.6168 47.5365C84.0774 47.4394 82.2156 47.3666 79.7976 47.3666C79.7573 47.3666 79.717 47.3666 79.6767 47.3666C78.3227 47.3666 77.1621 47.4394 76.1546 47.5769C75.3083 47.6902 74.5749 47.852 73.9221 48.0623C70.8029 49.0736 70.3354 51.0962 70.3354 52.2208C70.3354 54.2676 71.488 55.8776 73.7528 57.0022C74.6797 57.4633 75.7274 57.8031 76.7591 58.0782L76.5495 55.2304C76.5495 55.2304 76.5415 55.2304 76.5334 55.2304C76.0579 55.0686 75.5985 54.8906 75.1874 54.6883C73.5029 53.855 73.2934 52.9246 73.2934 52.2208C73.2934 51.6302 73.2934 50.0445 79.7009 50.0202C79.7332 50.0202 79.7735 50.0202 79.8057 50.0202C83.078 50.0202 86.2938 52.4635 90.4527 52.8923C91.976 53.0541 93.4026 52.6657 93.4671 52.0023C93.5879 50.7726 92.7981 50.4328 92.7981 50.4328L92.782 50.4247ZM89.1631 50.9668C88.7037 50.9668 88.3249 50.5865 88.3249 50.1254C88.3249 49.6642 88.7037 49.284 89.1631 49.284C89.6225 49.284 90.0013 49.6642 90.0013 50.1254C90.0013 50.5865 89.6225 50.9668 89.1631 50.9668Z" fill="#EEB569"/>
<path d="M76.5252 55.2305L76.7348 58.0783L77.0088 61.7271C77.0088 61.808 77.033 61.897 77.0652 61.9698L77.17 64.5263C77.3554 64.4697 77.5408 64.4131 77.7181 64.3645C78.1775 64.2432 78.6208 64.1461 79.0318 64.0652C79.1124 64.049 79.193 64.0328 79.2736 64.0166C79.4187 63.9843 79.5638 63.96 79.6927 63.9357C79.733 63.9276 79.7814 63.9195 79.8217 63.9115C79.9023 63.8953 79.9829 63.8791 80.0554 63.8548C80.128 63.8306 80.1924 63.8225 80.2408 63.8063C80.4584 63.7416 80.7002 63.6849 80.9823 63.6445C81.4417 63.5798 81.9817 63.5393 82.6023 63.4988C82.9167 63.4746 83.2552 63.4584 83.5937 63.426C83.9402 63.4018 84.2868 63.3613 84.6334 63.3209L84.6898 61.986C84.722 61.9051 84.7462 61.8161 84.7543 61.7271L84.8913 59.842L85.0928 57.1318C85.0928 57.1318 85.1089 57.1318 85.117 57.1318L85.2943 54.4296L85.3426 53.7662C85.3426 53.7662 85.3426 53.6853 85.3426 53.6448V53.6286C85.391 52.9248 84.8832 52.3099 84.182 52.229C82.5862 52.0429 80.9017 51.9054 79.4429 51.9054C79.4106 51.9054 79.3703 51.9054 79.3381 51.9054C78.7014 51.9054 78.1372 51.9297 77.6214 51.962C76.896 52.0106 76.3479 52.6416 76.3963 53.3697L76.4205 53.7581V53.7904L76.5172 55.2063C76.5172 55.2063 76.5252 55.2063 76.5333 55.2063L76.5252 55.2305Z" fill="#00A39B"/>
<path d="M77.7665 72.6489L78.0486 75.7718C78.0486 75.8365 78.0647 75.9012 78.0808 75.9659C78.2017 76.7345 78.919 77.317 79.7331 77.317H82.014C82.151 77.317 82.28 77.3008 82.4089 77.2685C82.8038 77.2038 83.2471 76.9934 83.5776 76.3624C83.7388 76.0549 83.8274 75.7071 83.8516 75.3592L83.9242 74.445L84.1418 71.759C84.1418 71.759 84.1418 71.759 84.1498 71.759L84.1982 70.9985L84.3352 68.9273C84.3674 68.3772 83.8597 67.9241 83.2552 67.9727C82.9731 67.997 82.691 68.0131 82.4331 68.0293C81.8608 68.0698 81.071 68.1183 80.8534 68.183C80.4746 68.3044 80.0313 68.3934 79.5638 68.4905C79.1125 68.5795 78.6208 68.6846 78.1614 68.8141C77.7907 68.9193 77.5247 69.2105 77.4683 69.5503C77.5327 70.4079 77.6295 71.0794 77.6617 71.5486L77.7584 72.6408L77.7665 72.6489Z" fill="#00A39B"/>
<path d="M123.026 58.4207V42.4369H124.962V49.5546H133.484V42.4369H135.42V58.4207H133.484V51.2717H124.962V58.4207H123.026ZM138.605 58.4207V46.4328H140.447V58.4207H138.605ZM139.542 44.4348C139.183 44.4348 138.873 44.3126 138.613 44.068C138.358 43.8235 138.231 43.5295 138.231 43.1861C138.231 42.8427 138.358 42.5487 138.613 42.3042C138.873 42.0596 139.183 41.9374 139.542 41.9374C139.901 41.9374 140.208 42.0596 140.463 42.3042C140.723 42.5487 140.853 42.8427 140.853 43.1861C140.853 43.5295 140.723 43.8235 140.463 44.068C140.208 44.3126 139.901 44.4348 139.542 44.4348ZM160.299 47.4318C160.127 46.9063 159.901 46.4354 159.62 46.0192C159.344 45.5977 159.014 45.2387 158.629 44.9421C158.249 44.6456 157.817 44.4192 157.333 44.2631C156.85 44.107 156.319 44.029 155.741 44.029C154.794 44.029 153.933 44.2735 153.158 44.7626C152.383 45.2517 151.766 45.9723 151.308 46.9245C150.85 47.8767 150.621 49.0447 150.621 50.4288C150.621 51.8128 150.853 52.9809 151.316 53.933C151.779 54.8852 152.406 55.6058 153.197 56.0949C153.988 56.584 154.878 56.8285 155.866 56.8285C156.782 56.8285 157.588 56.6334 158.286 56.2432C158.988 55.8477 159.534 55.291 159.925 54.573C160.32 53.8498 160.518 52.9991 160.518 52.0209L161.111 52.1458H156.303V50.4288H162.391V52.1458C162.391 53.4621 162.11 54.6068 161.548 55.5798C160.991 56.5528 160.221 57.3072 159.238 57.8431C158.26 58.3738 157.136 58.6392 155.866 58.6392C154.451 58.6392 153.207 58.3062 152.136 57.6402C151.069 56.9742 150.236 56.0272 149.638 54.7993C149.045 53.5714 148.748 52.1145 148.748 50.4288C148.748 49.1644 148.917 48.0275 149.256 47.0182C149.599 46.0036 150.083 45.1399 150.707 44.427C151.332 43.7142 152.071 43.1679 152.924 42.7881C153.777 42.4082 154.716 42.2183 155.741 42.2183C156.584 42.2183 157.37 42.3458 158.098 42.6008C158.832 42.8505 159.485 43.2069 160.057 43.67C160.635 44.1279 161.116 44.6768 161.501 45.3168C161.886 45.9515 162.151 46.6565 162.297 47.4318H160.299ZM170.043 58.6704C168.888 58.6704 167.891 58.4155 167.054 57.9056C166.221 57.3904 165.578 56.6724 165.126 55.7515C164.678 54.8253 164.455 53.7483 164.455 52.5204C164.455 51.2925 164.678 50.2102 165.126 49.2737C165.578 48.3319 166.208 47.5983 167.014 47.0728C167.826 46.5421 168.773 46.2767 169.855 46.2767C170.48 46.2767 171.096 46.3808 171.705 46.5889C172.314 46.797 172.868 47.1352 173.367 47.6035C173.867 48.0666 174.265 48.6805 174.562 49.4454C174.858 50.2102 175.006 51.152 175.006 52.2706V53.0511H165.766V51.459H173.133C173.133 50.7826 172.998 50.179 172.727 49.6483C172.462 49.1176 172.082 48.6987 171.588 48.3918C171.099 48.0848 170.521 47.9313 169.855 47.9313C169.122 47.9313 168.487 48.1134 167.951 48.4776C167.42 48.8366 167.012 49.3049 166.726 49.8824C166.44 50.46 166.296 51.0791 166.296 51.7399V52.8014C166.296 53.7067 166.453 54.4741 166.765 55.1037C167.082 55.7281 167.522 56.2042 168.084 56.5319C168.646 56.8545 169.299 57.0158 170.043 57.0158C170.527 57.0158 170.964 56.9482 171.354 56.8129C171.749 56.6724 172.09 56.4643 172.376 56.1885C172.662 55.9076 172.884 55.559 173.04 55.1427L174.819 55.6422C174.632 56.2458 174.317 56.7765 173.875 57.2344C173.432 57.687 172.886 58.0408 172.236 58.2958C171.585 58.5455 170.854 58.6704 170.043 58.6704ZM182.239 58.6704C181.156 58.6704 180.207 58.4128 179.39 57.8977C178.578 57.3826 177.944 56.662 177.486 55.7359C177.033 54.8097 176.807 53.7275 176.807 52.4892C176.807 51.2404 177.033 50.1504 177.486 49.219C177.944 48.2877 178.578 47.5645 179.39 47.0494C180.207 46.5343 181.156 46.2767 182.239 46.2767C183.321 46.2767 184.268 46.5343 185.08 47.0494C185.896 47.5645 186.531 48.2877 186.984 49.219C187.442 50.1504 187.671 51.2404 187.671 52.4892C187.671 53.7275 187.442 54.8097 186.984 55.7359C186.531 56.662 185.896 57.3826 185.08 57.8977C184.268 58.4128 183.321 58.6704 182.239 58.6704ZM182.239 57.0158C183.061 57.0158 183.737 56.8051 184.268 56.3837C184.799 55.9622 185.191 55.4081 185.446 54.7213C185.701 54.0345 185.829 53.2904 185.829 52.4892C185.829 51.6879 185.701 50.9413 185.446 50.2493C185.191 49.5572 184.799 48.9979 184.268 48.5713C183.737 48.1446 183.061 47.9313 182.239 47.9313C181.417 47.9313 180.74 48.1446 180.21 48.5713C179.679 48.9979 179.286 49.5572 179.031 50.2493C178.776 50.9413 178.649 51.6879 178.649 52.4892C178.649 53.2904 178.776 54.0345 179.031 54.7213C179.286 55.4081 179.679 55.9622 180.21 56.3837C180.74 56.8051 181.417 57.0158 182.239 57.0158ZM190.043 58.4207V46.4328H191.822V48.2435H191.947C192.166 47.6503 192.561 47.169 193.133 46.7996C193.706 46.4302 194.351 46.2455 195.069 46.2455C195.204 46.2455 195.373 46.2481 195.576 46.2533C195.779 46.2585 195.933 46.2663 196.037 46.2767V48.1498C195.974 48.1342 195.831 48.1108 195.607 48.0796C195.389 48.0432 195.157 48.0249 194.913 48.0249C194.33 48.0249 193.81 48.1472 193.352 48.3918C192.899 48.6311 192.54 48.9641 192.275 49.3907C192.015 49.8122 191.885 50.2935 191.885 50.8346V58.4207H190.043ZM202.254 63.1658C201.365 63.1658 200.6 63.0514 199.96 62.8224C199.32 62.5987 198.787 62.3021 198.36 61.9327C197.939 61.5685 197.603 61.1783 197.353 60.762L198.82 59.7318C198.987 59.9504 199.198 60.2001 199.453 60.4811C199.708 60.7672 200.056 61.0144 200.498 61.2225C200.946 61.4358 201.531 61.5425 202.254 61.5425C203.222 61.5425 204.021 61.3084 204.65 60.8401C205.28 60.3718 205.595 59.6382 205.595 58.6392V56.2042H205.439C205.303 56.4227 205.111 56.6932 204.861 57.0158C204.617 57.3332 204.263 57.6168 203.8 57.8665C203.342 58.1111 202.723 58.2333 201.942 58.2333C200.974 58.2333 200.106 58.0044 199.336 57.5465C198.571 57.0887 197.965 56.4227 197.517 55.5486C197.075 54.6745 196.854 53.613 196.854 52.3643C196.854 51.1364 197.07 50.0671 197.501 49.1566C197.933 48.2409 198.534 47.5333 199.304 47.0338C200.074 46.5291 200.964 46.2767 201.973 46.2767C202.754 46.2767 203.373 46.4068 203.831 46.6669C204.294 46.9219 204.648 47.2133 204.892 47.5411C205.142 47.8637 205.335 48.129 205.47 48.3371H205.657V46.4328H207.437V58.7641C207.437 59.7943 207.203 60.632 206.734 61.2771C206.271 61.9275 205.647 62.4036 204.861 62.7054C204.081 63.0124 203.212 63.1658 202.254 63.1658ZM202.192 56.5788C202.931 56.5788 203.555 56.4097 204.065 56.0715C204.575 55.7333 204.963 55.2468 205.228 54.612C205.493 53.9772 205.626 53.2176 205.626 52.3331C205.626 51.4694 205.496 50.7071 205.236 50.0463C204.976 49.3855 204.591 48.8678 204.081 48.4932C203.571 48.1186 202.941 47.9313 202.192 47.9313C201.412 47.9313 200.761 48.129 200.241 48.5244C199.726 48.9199 199.338 49.4506 199.078 50.1166C198.823 50.7826 198.696 51.5214 198.696 52.3331C198.696 53.1656 198.826 53.9018 199.086 54.5418C199.351 55.1765 199.741 55.676 200.256 56.0403C200.777 56.3993 201.422 56.5788 202.192 56.5788ZM215.395 58.6704C214.24 58.6704 213.243 58.4155 212.406 57.9056C211.573 57.3904 210.931 56.6724 210.478 55.7515C210.031 54.8253 209.807 53.7483 209.807 52.5204C209.807 51.2925 210.031 50.2102 210.478 49.2737C210.931 48.3319 211.56 47.5983 212.367 47.0728C213.178 46.5421 214.125 46.2767 215.208 46.2767C215.832 46.2767 216.448 46.3808 217.057 46.5889C217.666 46.797 218.22 47.1352 218.72 47.6035C219.219 48.0666 219.617 48.6805 219.914 49.4454C220.21 50.2102 220.359 51.152 220.359 52.2706V53.0511H211.118V51.459H218.485C218.485 50.7826 218.35 50.179 218.08 49.6483C217.814 49.1176 217.434 48.6987 216.94 48.3918C216.451 48.0848 215.874 47.9313 215.208 47.9313C214.474 47.9313 213.839 48.1134 213.303 48.4776C212.773 48.8366 212.364 49.3049 212.078 49.8824C211.792 50.46 211.649 51.0791 211.649 51.7399V52.8014C211.649 53.7067 211.805 54.4741 212.117 55.1037C212.434 55.7281 212.874 56.2042 213.436 56.5319C213.998 56.8545 214.651 57.0158 215.395 57.0158C215.879 57.0158 216.316 56.9482 216.706 56.8129C217.101 56.6724 217.442 56.4643 217.728 56.1885C218.015 55.9076 218.236 55.559 218.392 55.1427L220.171 55.6422C219.984 56.2458 219.669 56.7765 219.227 57.2344C218.785 57.687 218.238 58.0408 217.588 58.2958C216.938 58.5455 216.207 58.6704 215.395 58.6704ZM225.156 42.4369L225 53.9252H223.189L223.033 42.4369H225.156ZM224.094 58.5455C223.709 58.5455 223.379 58.4076 223.103 58.1319C222.828 57.8561 222.69 57.5257 222.69 57.1407C222.69 56.7557 222.828 56.4253 223.103 56.1495C223.379 55.8738 223.709 55.7359 224.094 55.7359C224.48 55.7359 224.81 55.8738 225.086 56.1495C225.361 56.4253 225.499 56.7557 225.499 57.1407C225.499 57.3957 225.434 57.6298 225.304 57.8431C225.179 58.0564 225.01 58.2281 224.797 58.3582C224.589 58.4831 224.355 58.5455 224.094 58.5455Z" fill="#222222"/>
<path opacity="0.5" d="M500.347 54.6515V60.4207H498.874V50.8304H500.298V52.3289H500.422C500.647 51.8419 500.988 51.4506 501.446 51.155C501.904 50.8554 502.495 50.7055 503.22 50.7055C503.869 50.7055 504.437 50.8387 504.924 51.1051C505.411 51.3673 505.79 51.7669 506.06 52.3039C506.331 52.8367 506.466 53.511 506.466 54.3268V60.4207H504.993V54.4267C504.993 53.6733 504.797 53.0864 504.406 52.666C504.015 52.2414 503.478 52.0292 502.795 52.0292C502.325 52.0292 501.904 52.1311 501.534 52.3351C501.167 52.5391 500.878 52.8367 500.666 53.2279C500.454 53.6192 500.347 54.0937 500.347 54.6515ZM512.703 60.6205C511.837 60.6205 511.078 60.4144 510.424 60.0023C509.775 59.5902 509.267 59.0137 508.901 58.2728C508.539 57.5319 508.358 56.6661 508.358 55.6755C508.358 54.6765 508.539 53.8044 508.901 53.0594C509.267 52.3143 509.775 51.7357 510.424 51.3236C511.078 50.9115 511.837 50.7055 512.703 50.7055C513.569 50.7055 514.327 50.9115 514.976 51.3236C515.629 51.7357 516.137 52.3143 516.499 53.0594C516.866 53.8044 517.049 54.6765 517.049 55.6755C517.049 56.6661 516.866 57.5319 516.499 58.2728C516.137 59.0137 515.629 59.5902 514.976 60.0023C514.327 60.4144 513.569 60.6205 512.703 60.6205ZM512.703 59.2968C513.361 59.2968 513.902 59.1282 514.327 58.7911C514.751 58.4539 515.065 58.0106 515.269 57.4612C515.473 56.9117 515.575 56.3165 515.575 55.6755C515.575 55.0344 515.473 54.4371 515.269 53.8835C515.065 53.3299 514.751 52.8825 514.327 52.5411C513.902 52.1998 513.361 52.0292 512.703 52.0292C512.046 52.0292 511.504 52.1998 511.08 52.5411C510.655 52.8825 510.341 53.3299 510.137 53.8835C509.933 54.4371 509.831 55.0344 509.831 55.6755C509.831 56.3165 509.933 56.9117 510.137 57.4612C510.341 58.0106 510.655 58.4539 511.08 58.7911C511.504 59.1282 512.046 59.2968 512.703 59.2968ZM520.793 60.4207L517.871 50.8304H519.419L521.492 58.1729H521.592L523.64 50.8304H525.214L527.237 58.148H527.336L529.409 50.8304H530.958L528.036 60.4207H526.587L524.489 53.0531H524.339L522.242 60.4207H520.793Z" fill="#3F3F3F"/>
<path d="M124.962 70.9021V86.8859H123.026V70.9021H124.962ZM132.707 74.898V76.4589H126.495V74.898H132.707ZM128.306 72.0259H130.147V83.4518C130.147 83.9722 130.223 84.3624 130.374 84.6225C130.53 84.8775 130.728 85.0492 130.967 85.1376C131.211 85.2209 131.469 85.2625 131.74 85.2625C131.942 85.2625 132.109 85.2521 132.239 85.2313C132.369 85.2053 132.473 85.1845 132.551 85.1689L132.926 86.8234C132.801 86.8703 132.627 86.9171 132.403 86.9639C132.179 87.0159 131.896 87.042 131.552 87.042C131.032 87.042 130.522 86.9301 130.023 86.7064C129.528 86.4826 129.117 86.1418 128.789 85.684C128.467 85.2261 128.306 84.6485 128.306 83.9513V72.0259ZM135.971 70.9021V76.3965H134.254V70.9021H135.971ZM146.644 77.5828L144.989 78.0511C144.885 77.7753 144.731 77.5074 144.529 77.2472C144.331 76.9818 144.06 76.7633 143.717 76.5916C143.373 76.4199 142.934 76.3341 142.398 76.3341C141.664 76.3341 141.053 76.5032 140.564 76.8414C140.08 77.1744 139.838 77.5984 139.838 78.1135C139.838 78.5714 140.004 78.933 140.337 79.1983C140.67 79.4637 141.191 79.6848 141.898 79.8617L143.678 80.2988C144.75 80.5589 145.548 80.957 146.074 81.4929C146.599 82.0236 146.862 82.7078 146.862 83.5455C146.862 84.2323 146.664 84.8463 146.269 85.3874C145.879 85.9285 145.332 86.3552 144.63 86.6673C143.928 86.9795 143.111 87.1356 142.179 87.1356C140.957 87.1356 139.945 86.8703 139.143 86.3395C138.342 85.8088 137.835 85.0336 137.621 84.0138L139.37 83.5767C139.536 84.2219 139.851 84.7058 140.314 85.0284C140.782 85.351 141.394 85.5123 142.148 85.5123C143.007 85.5123 143.688 85.3302 144.193 84.9659C144.703 84.5965 144.958 84.1543 144.958 83.6392C144.958 83.2229 144.812 82.8743 144.521 82.5933C144.229 82.3072 143.782 82.0938 143.178 81.9534L141.18 81.4851C140.083 81.2249 139.276 80.8217 138.761 80.2754C138.251 79.7239 137.996 79.0345 137.996 78.2072C137.996 77.5308 138.186 76.9324 138.566 76.4121C138.951 75.8918 139.474 75.4834 140.135 75.1868C140.801 74.8902 141.555 74.7419 142.398 74.7419C143.584 74.7419 144.516 75.0021 145.192 75.5224C145.874 76.0427 146.357 76.7295 146.644 77.5828ZM158.832 74.898V76.4589H152.619V74.898H158.832ZM154.43 72.0259H156.272V83.4518C156.272 83.9722 156.347 84.3624 156.498 84.6225C156.654 84.8775 156.852 85.0492 157.091 85.1376C157.336 85.2209 157.593 85.2625 157.864 85.2625C158.067 85.2625 158.233 85.2521 158.363 85.2313C158.493 85.2053 158.597 85.1845 158.676 85.1689L159.05 86.8234C158.925 86.8703 158.751 86.9171 158.527 86.9639C158.303 87.0159 158.02 87.042 157.677 87.042C157.156 87.042 156.646 86.9301 156.147 86.7064C155.653 86.4826 155.241 86.1418 154.914 85.684C154.591 85.2261 154.43 84.6485 154.43 83.9513V72.0259ZM160.503 86.8859V74.898H162.345V86.8859H160.503ZM161.44 72.9C161.081 72.9 160.771 72.7778 160.511 72.5332C160.256 72.2887 160.129 71.9947 160.129 71.6513C160.129 71.3079 160.256 71.0139 160.511 70.7694C160.771 70.5249 161.081 70.4026 161.44 70.4026C161.799 70.4026 162.106 70.5249 162.361 70.7694C162.621 71.0139 162.751 71.3079 162.751 71.6513C162.751 71.9947 162.621 72.2887 162.361 72.5332C162.106 72.7778 161.799 72.9 161.44 72.9ZM164.62 86.8859V74.898H166.399V76.7711H166.555C166.805 76.1311 167.208 75.6343 167.765 75.2804C168.322 74.9214 168.99 74.7419 169.771 74.7419C170.562 74.7419 171.22 74.9214 171.745 75.2804C172.276 75.6343 172.69 76.1311 172.986 76.7711H173.111C173.418 76.152 173.879 75.6603 174.493 75.2961C175.107 74.9266 175.843 74.7419 176.701 74.7419C177.773 74.7419 178.65 75.0775 179.332 75.7487C180.013 76.4147 180.354 77.4527 180.354 78.8627V86.8859H178.512V78.8627C178.512 77.9782 178.27 77.3461 177.786 76.9662C177.302 76.5864 176.733 76.3965 176.077 76.3965C175.234 76.3965 174.581 76.6514 174.118 77.1613C173.655 77.666 173.423 78.306 173.423 79.0813V86.8859H171.55V78.6754C171.55 77.9938 171.329 77.4449 170.887 77.0287C170.445 76.6072 169.875 76.3965 169.178 76.3965C168.699 76.3965 168.252 76.524 167.835 76.7789C167.424 77.0339 167.091 77.3877 166.836 77.8403C166.587 78.2878 166.462 78.8055 166.462 79.3935V86.8859H164.62ZM187.649 87.1356C186.494 87.1356 185.497 86.8807 184.66 86.3708C183.827 85.8557 183.185 85.1376 182.732 84.2167C182.285 83.2906 182.061 82.2135 182.061 80.9856C182.061 79.7577 182.285 78.6754 182.732 77.7389C183.185 76.7971 183.814 76.0635 184.621 75.538C185.432 75.0073 186.379 74.7419 187.462 74.7419C188.086 74.7419 188.702 74.846 189.311 75.0541C189.92 75.2622 190.474 75.6004 190.974 76.0687C191.473 76.5318 191.871 77.1457 192.168 77.9106C192.464 78.6754 192.613 79.6172 192.613 80.7359V81.5163H183.372V79.9242H190.739C190.739 79.2478 190.604 78.6442 190.334 78.1135C190.068 77.5828 189.688 77.164 189.194 76.857C188.705 76.55 188.128 76.3965 187.462 76.3965C186.728 76.3965 186.093 76.5786 185.557 76.9428C185.027 77.3018 184.618 77.7701 184.332 78.3476C184.046 78.9252 183.903 79.5443 183.903 80.2051V81.2666C183.903 82.1719 184.059 82.9393 184.371 83.5689C184.688 84.1933 185.128 84.6694 185.69 84.9972C186.252 85.3197 186.905 85.481 187.649 85.481C188.133 85.481 188.57 85.4134 188.96 85.2781C189.355 85.1376 189.696 84.9295 189.982 84.6538C190.269 84.3728 190.49 84.0242 190.646 83.6079L192.425 84.1074C192.238 84.711 191.923 85.2417 191.481 85.6996C191.039 86.1522 190.492 86.506 189.842 86.761C189.192 87.0107 188.461 87.1356 187.649 87.1356ZM204.611 74.898V76.4589H198.399V74.898H204.611ZM200.21 72.0259H202.051V83.4518C202.051 83.9722 202.127 84.3624 202.278 84.6225C202.434 84.8775 202.632 85.0492 202.871 85.1376C203.115 85.2209 203.373 85.2625 203.644 85.2625C203.847 85.2625 204.013 85.2521 204.143 85.2313C204.273 85.2053 204.377 85.1845 204.455 85.1689L204.83 86.8234C204.705 86.8703 204.531 86.9171 204.307 86.9639C204.083 87.0159 203.8 87.042 203.456 87.042C202.936 87.042 202.426 86.9301 201.927 86.7064C201.432 86.4826 201.021 86.1418 200.693 85.684C200.371 85.2261 200.21 84.6485 200.21 83.9513V72.0259ZM211.024 87.1356C209.942 87.1356 208.993 86.8781 208.176 86.363C207.364 85.8479 206.729 85.1272 206.271 84.2011C205.819 83.2749 205.592 82.1927 205.592 80.9544C205.592 79.7056 205.819 78.6156 206.271 77.6843C206.729 76.7529 207.364 76.0297 208.176 75.5146C208.993 74.9995 209.942 74.7419 211.024 74.7419C212.107 74.7419 213.054 74.9995 213.865 75.5146C214.682 76.0297 215.317 76.7529 215.77 77.6843C216.227 78.6156 216.456 79.7056 216.456 80.9544C216.456 82.1927 216.227 83.2749 215.77 84.2011C215.317 85.1272 214.682 85.8479 213.865 86.363C213.054 86.8781 212.107 87.1356 211.024 87.1356ZM211.024 85.481C211.846 85.481 212.523 85.2703 213.054 84.8489C213.584 84.4274 213.977 83.8733 214.232 83.1865C214.487 82.4997 214.614 81.7556 214.614 80.9544C214.614 80.1531 214.487 79.4065 214.232 78.7145C213.977 78.0225 213.584 77.4631 213.054 77.0365C212.523 76.6098 211.846 76.3965 211.024 76.3965C210.202 76.3965 209.526 76.6098 208.995 77.0365C208.464 77.4631 208.072 78.0225 207.817 78.7145C207.562 79.4065 207.434 80.1531 207.434 80.9544C207.434 81.7556 207.562 82.4997 207.817 83.1865C208.072 83.8733 208.464 84.4274 208.995 84.8489C209.526 85.2703 210.202 85.481 211.024 85.481ZM228.465 74.898V76.4589H222.252V74.898H228.465ZM224.063 72.0259H225.905V83.4518C225.905 83.9722 225.98 84.3624 226.131 84.6225C226.287 84.8775 226.485 85.0492 226.724 85.1376C226.969 85.2209 227.227 85.2625 227.497 85.2625C227.7 85.2625 227.867 85.2521 227.997 85.2313C228.127 85.2053 228.231 85.1845 228.309 85.1689L228.683 86.8234C228.559 86.8703 228.384 86.9171 228.161 86.9639C227.937 87.0159 227.653 87.042 227.31 87.042C226.79 87.042 226.28 86.9301 225.78 86.7064C225.286 86.4826 224.875 86.1418 224.547 85.684C224.224 85.2261 224.063 84.6485 224.063 83.9513V72.0259ZM233.664 87.1668C232.905 87.1668 232.215 87.0237 231.596 86.7376C230.977 86.4462 230.485 86.0274 230.121 85.481C229.757 84.9295 229.575 84.2635 229.575 83.4831C229.575 82.7963 229.71 82.2395 229.981 81.8129C230.251 81.381 230.613 81.0428 231.065 80.7983C231.518 80.5537 232.018 80.3716 232.564 80.252C233.115 80.1271 233.67 80.0282 234.226 79.9554C234.955 79.8617 235.545 79.7915 235.998 79.7447C236.456 79.6926 236.789 79.6068 236.997 79.4871C237.21 79.3674 237.317 79.1593 237.317 78.8627V78.8003C237.317 78.0303 237.106 77.4319 236.685 77.0053C236.268 76.5786 235.636 76.3653 234.788 76.3653C233.909 76.3653 233.219 76.5578 232.72 76.9428C232.22 77.3278 231.869 77.7389 231.666 78.1759L229.918 77.5516C230.23 76.8232 230.647 76.256 231.167 75.8502C231.692 75.4391 232.265 75.153 232.884 74.9917C233.508 74.8252 234.122 74.7419 234.726 74.7419C235.111 74.7419 235.553 74.7888 236.053 74.8824C236.557 74.9709 237.044 75.1556 237.512 75.4365C237.985 75.7175 238.378 76.1416 238.69 76.7087C239.003 77.2758 239.159 78.0355 239.159 78.9876V86.8859H237.317V85.2625H237.223C237.098 85.5227 236.89 85.801 236.599 86.0976C236.307 86.3942 235.92 86.6465 235.436 86.8546C234.952 87.0628 234.362 87.1668 233.664 87.1668ZM233.945 85.5123C234.674 85.5123 235.288 85.3692 235.787 85.083C236.292 84.7968 236.672 84.4274 236.927 83.9748C237.187 83.5221 237.317 83.046 237.317 82.5465V80.8607C237.239 80.9544 237.067 81.0402 236.802 81.1183C236.542 81.1911 236.24 81.2562 235.896 81.3134C235.558 81.3654 235.228 81.4122 234.905 81.4539C234.588 81.4903 234.33 81.5215 234.133 81.5475C233.654 81.61 233.206 81.7114 232.79 81.8519C232.379 81.9872 232.046 82.1927 231.791 82.4685C231.541 82.739 231.417 83.1084 231.417 83.5767C231.417 84.2167 231.653 84.7006 232.127 85.0284C232.605 85.351 233.212 85.5123 233.945 85.5123ZM243.139 82.5153L243.107 80.2364H243.482L248.727 74.898H251.006L245.418 80.5485H245.262L243.139 82.5153ZM241.422 86.8859V70.9021H243.264V86.8859H241.422ZM249.039 86.8859L244.356 80.9544L245.667 79.6744L251.38 86.8859H249.039ZM256.81 87.1356C255.655 87.1356 254.659 86.8807 253.821 86.3708C252.988 85.8557 252.346 85.1376 251.893 84.2167C251.446 83.2906 251.222 82.2135 251.222 80.9856C251.222 79.7577 251.446 78.6754 251.893 77.7389C252.346 76.7971 252.975 76.0635 253.782 75.538C254.593 75.0073 255.54 74.7419 256.623 74.7419C257.247 74.7419 257.864 74.846 258.472 75.0541C259.081 75.2622 259.635 75.6004 260.135 76.0687C260.634 76.5318 261.032 77.1457 261.329 77.9106C261.625 78.6754 261.774 79.6172 261.774 80.7359V81.5163H252.533V79.9242H259.901C259.901 79.2478 259.765 78.6442 259.495 78.1135C259.229 77.5828 258.85 77.164 258.355 76.857C257.866 76.55 257.289 76.3965 256.623 76.3965C255.889 76.3965 255.254 76.5786 254.718 76.9428C254.188 77.3018 253.779 77.7701 253.493 78.3476C253.207 78.9252 253.064 79.5443 253.064 80.2051V81.2666C253.064 82.1719 253.22 82.9393 253.532 83.5689C253.849 84.1933 254.289 84.6694 254.851 84.9972C255.413 85.3197 256.066 85.481 256.81 85.481C257.294 85.481 257.731 85.4134 258.121 85.2781C258.517 85.1376 258.857 84.9295 259.144 84.6538C259.43 84.3728 259.651 84.0242 259.807 83.6079L261.586 84.1074C261.399 84.711 261.084 85.2417 260.642 85.6996C260.2 86.1522 259.653 86.506 259.003 86.761C258.353 87.0107 257.622 87.1356 256.81 87.1356ZM269.745 91.3813C269.433 91.3813 269.155 91.3553 268.91 91.3033C268.666 91.2564 268.497 91.2096 268.403 91.1628L268.871 89.5394C269.319 89.6539 269.714 89.6955 270.057 89.6643C270.401 89.6331 270.705 89.4796 270.971 89.2038C271.241 88.9333 271.488 88.4936 271.712 87.8849L272.055 86.9483L267.622 74.898H269.62L272.93 84.4508H273.054L276.364 74.898H278.362L273.273 88.6341C273.044 89.2533 272.76 89.7658 272.422 90.1716C272.084 90.5826 271.691 90.887 271.244 91.0847C270.802 91.2824 270.302 91.3813 269.745 91.3813ZM284.135 87.1356C283.052 87.1356 282.103 86.8781 281.286 86.363C280.474 85.8479 279.839 85.1272 279.382 84.2011C278.929 83.2749 278.703 82.1927 278.703 80.9544C278.703 79.7056 278.929 78.6156 279.382 77.6843C279.839 76.7529 280.474 76.0297 281.286 75.5146C282.103 74.9995 283.052 74.7419 284.135 74.7419C285.217 74.7419 286.164 74.9995 286.975 75.5146C287.792 76.0297 288.427 76.7529 288.88 77.6843C289.338 78.6156 289.567 79.7056 289.567 80.9544C289.567 82.1927 289.338 83.2749 288.88 84.2011C288.427 85.1272 287.792 85.8479 286.975 86.363C286.164 86.8781 285.217 87.1356 284.135 87.1356ZM284.135 85.481C284.957 85.481 285.633 85.2703 286.164 84.8489C286.695 84.4274 287.087 83.8733 287.342 83.1865C287.597 82.4997 287.725 81.7556 287.725 80.9544C287.725 80.1531 287.597 79.4065 287.342 78.7145C287.087 78.0225 286.695 77.4631 286.164 77.0365C285.633 76.6098 284.957 76.3965 284.135 76.3965C283.313 76.3965 282.636 76.6098 282.105 77.0365C281.575 77.4631 281.182 78.0225 280.927 78.7145C280.672 79.4065 280.545 80.1531 280.545 80.9544C280.545 81.7556 280.672 82.4997 280.927 83.1865C281.182 83.8733 281.575 84.4274 282.105 84.8489C282.636 85.2703 283.313 85.481 284.135 85.481ZM298.834 81.9846V74.898H300.676V86.8859H298.834V84.8567H298.709C298.428 85.4654 297.991 85.9831 297.398 86.4098C296.805 86.8312 296.056 87.042 295.15 87.042C294.401 87.042 293.735 86.8781 293.152 86.5503C292.57 86.2173 292.112 85.7178 291.779 85.0518C291.446 84.3806 291.279 83.5351 291.279 82.5153V74.898H293.121V82.3904C293.121 83.2645 293.366 83.9617 293.855 84.4821C294.349 85.0024 294.979 85.2625 295.744 85.2625C296.201 85.2625 296.667 85.1454 297.141 84.9113C297.619 84.6772 298.02 84.3182 298.342 83.8343C298.67 83.3504 298.834 82.7338 298.834 81.9846ZM302.951 86.8859V74.898H304.73V76.7087H304.855C305.074 76.1155 305.469 75.6343 306.041 75.2648C306.614 74.8954 307.259 74.7107 307.977 74.7107C308.112 74.7107 308.281 74.7133 308.484 74.7185C308.687 74.7237 308.841 74.7315 308.945 74.7419V76.615C308.882 76.5994 308.739 76.576 308.515 76.5448C308.297 76.5084 308.065 76.4902 307.821 76.4902C307.238 76.4902 306.718 76.6124 306.26 76.857C305.807 77.0963 305.448 77.4293 305.183 77.856C304.923 78.2774 304.793 78.7587 304.793 79.2998V86.8859H302.951ZM315.111 86.8859V74.898H316.891V76.7711H317.047C317.297 76.1311 317.7 75.6343 318.257 75.2804C318.813 74.9214 319.482 74.7419 320.262 74.7419C321.053 74.7419 321.711 74.9214 322.237 75.2804C322.768 75.6343 323.181 76.1311 323.478 76.7711H323.603C323.91 76.152 324.37 75.6603 324.984 75.2961C325.598 74.9266 326.334 74.7419 327.193 74.7419C328.265 74.7419 329.141 75.0775 329.823 75.7487C330.505 76.4147 330.845 77.4527 330.845 78.8627V86.8859H329.004V78.8627C329.004 77.9782 328.762 77.3461 328.278 76.9662C327.794 76.5864 327.224 76.3965 326.569 76.3965C325.726 76.3965 325.073 76.6514 324.61 77.1613C324.147 77.666 323.915 78.306 323.915 79.0813V86.8859H322.042V78.6754C322.042 77.9938 321.821 77.4449 321.379 77.0287C320.936 76.6072 320.367 76.3965 319.669 76.3965C319.191 76.3965 318.743 76.524 318.327 76.7789C317.916 77.0339 317.583 77.3877 317.328 77.8403C317.078 78.2878 316.953 78.8055 316.953 79.3935V86.8859H315.111ZM338.14 87.1356C336.985 87.1356 335.989 86.8807 335.151 86.3708C334.319 85.8557 333.676 85.1376 333.224 84.2167C332.776 83.2906 332.552 82.2135 332.552 80.9856C332.552 79.7577 332.776 78.6754 333.224 77.7389C333.676 76.7971 334.306 76.0635 335.112 75.538C335.924 75.0073 336.871 74.7419 337.953 74.7419C338.577 74.7419 339.194 74.846 339.803 75.0541C340.412 75.2622 340.966 75.6004 341.465 76.0687C341.965 76.5318 342.363 77.1457 342.659 77.9106C342.956 78.6754 343.104 79.6172 343.104 80.7359V81.5163H333.863V79.9242H341.231C341.231 79.2478 341.096 78.6442 340.825 78.1135C340.56 77.5828 340.18 77.164 339.686 76.857C339.197 76.55 338.619 76.3965 337.953 76.3965C337.219 76.3965 336.585 76.5786 336.049 76.9428C335.518 77.3018 335.11 77.7701 334.823 78.3476C334.537 78.9252 334.394 79.5443 334.394 80.2051V81.2666C334.394 82.1719 334.55 82.9393 334.862 83.5689C335.18 84.1933 335.62 84.6694 336.181 84.9972C336.743 85.3197 337.396 85.481 338.14 85.481C338.624 85.481 339.061 85.4134 339.452 85.2781C339.847 85.1376 340.188 84.9295 340.474 84.6538C340.76 84.3728 340.981 84.0242 341.137 83.6079L342.917 84.1074C342.73 84.711 342.415 85.2417 341.972 85.6996C341.53 86.1522 340.984 86.506 340.333 86.761C339.683 87.0107 338.952 87.1356 338.14 87.1356ZM349.334 87.1356C348.335 87.1356 347.453 86.8833 346.688 86.3786C345.923 85.8687 345.325 85.1506 344.893 84.2245C344.461 83.2932 344.245 82.1927 344.245 80.9232C344.245 79.664 344.461 78.5714 344.893 77.6452C345.325 76.7191 345.926 76.0037 346.696 75.499C347.466 74.9943 348.356 74.7419 349.365 74.7419C350.145 74.7419 350.762 74.872 351.215 75.1322C351.673 75.3871 352.021 75.6785 352.26 76.0063C352.505 76.3289 352.695 76.5942 352.83 76.8023H352.986V70.9021H354.828V86.8859H353.049V85.044H352.83C352.695 85.2625 352.502 85.5383 352.253 85.8713C352.003 86.1991 351.647 86.493 351.183 86.7532C350.72 87.0081 350.104 87.1356 349.334 87.1356ZM349.583 85.481C350.322 85.481 350.947 85.2885 351.457 84.9035C351.966 84.5133 352.354 83.9748 352.619 83.2879C352.885 82.5959 353.018 81.7973 353.018 80.8919C353.018 79.997 352.887 79.214 352.627 78.5428C352.367 77.8664 351.982 77.3409 351.472 76.9662C350.962 76.5864 350.333 76.3965 349.583 76.3965C348.803 76.3965 348.153 76.5968 347.632 76.9975C347.117 77.3929 346.73 77.9314 346.469 78.613C346.215 79.2894 346.087 80.049 346.087 80.8919C346.087 81.7452 346.217 82.5205 346.477 83.2177C346.743 83.9097 347.133 84.4612 347.648 84.8723C348.168 85.2781 348.813 85.481 349.583 85.481ZM357.358 86.8859V74.898H359.2V86.8859H357.358ZM358.295 72.9C357.936 72.9 357.626 72.7778 357.366 72.5332C357.111 72.2887 356.984 71.9947 356.984 71.6513C356.984 71.3079 357.111 71.0139 357.366 70.7694C357.626 70.5249 357.936 70.4026 358.295 70.4026C358.654 70.4026 358.961 70.5249 359.216 70.7694C359.476 71.0139 359.606 71.3079 359.606 71.6513C359.606 71.9947 359.476 72.2887 359.216 72.5332C358.961 72.7778 358.654 72.9 358.295 72.9ZM366.345 87.1356C365.221 87.1356 364.253 86.8703 363.442 86.3395C362.63 85.8088 362.006 85.0778 361.569 84.1465C361.132 83.2151 360.913 82.1511 360.913 80.9544C360.913 79.7369 361.137 78.6624 361.584 77.7311C362.037 76.7945 362.666 76.0635 363.473 75.538C364.285 75.0073 365.232 74.7419 366.314 74.7419C367.157 74.7419 367.916 74.898 368.593 75.2102C369.269 75.5224 369.823 75.9594 370.255 76.5214C370.687 77.0833 370.955 77.7389 371.059 78.4881H369.217C369.077 77.9418 368.764 77.4579 368.281 77.0365C367.802 76.6098 367.157 76.3965 366.345 76.3965C365.627 76.3965 364.997 76.5838 364.456 76.9584C363.92 77.3278 363.502 77.8508 363.2 78.5272C362.903 79.1983 362.755 79.9866 362.755 80.8919C362.755 81.8181 362.901 82.6246 363.192 83.3114C363.489 83.9982 363.905 84.5315 364.441 84.9113C364.982 85.2911 365.617 85.481 366.345 85.481C366.824 85.481 367.258 85.3978 367.648 85.2313C368.039 85.0648 368.369 84.8255 368.64 84.5133C368.91 84.2011 369.103 83.8265 369.217 83.3894H371.059C370.955 84.097 370.697 84.7344 370.286 85.3015C369.88 85.8635 369.342 86.3109 368.671 86.6439C368.005 86.9717 367.23 87.1356 366.345 87.1356ZM376.18 87.1668C375.421 87.1668 374.731 87.0237 374.112 86.7376C373.493 86.4462 373.001 86.0274 372.637 85.481C372.273 84.9295 372.091 84.2635 372.091 83.4831C372.091 82.7963 372.226 82.2395 372.497 81.8129C372.767 81.381 373.129 81.0428 373.581 80.7983C374.034 80.5537 374.534 80.3716 375.08 80.252C375.631 80.1271 376.186 80.0282 376.742 79.9554C377.471 79.8617 378.061 79.7915 378.514 79.7447C378.972 79.6926 379.305 79.6068 379.513 79.4871C379.726 79.3674 379.833 79.1593 379.833 78.8627V78.8003C379.833 78.0303 379.622 77.4319 379.201 77.0053C378.784 76.5786 378.152 76.3653 377.304 76.3653C376.425 76.3653 375.735 76.5578 375.236 76.9428C374.737 77.3278 374.385 77.7389 374.182 78.1759L372.434 77.5516C372.746 76.8232 373.163 76.256 373.683 75.8502C374.208 75.4391 374.781 75.153 375.4 74.9917C376.024 74.8252 376.638 74.7419 377.242 74.7419C377.627 74.7419 378.069 74.7888 378.569 74.8824C379.073 74.9709 379.56 75.1556 380.028 75.4365C380.501 75.7175 380.894 76.1416 381.207 76.7087C381.519 77.2758 381.675 78.0355 381.675 78.9876V86.8859H379.833V85.2625H379.739C379.614 85.5227 379.406 85.801 379.115 86.0976C378.824 86.3942 378.436 86.6465 377.952 86.8546C377.468 87.0628 376.878 87.1668 376.18 87.1668ZM376.461 85.5123C377.19 85.5123 377.804 85.3692 378.303 85.083C378.808 84.7968 379.188 84.4274 379.443 83.9748C379.703 83.5221 379.833 83.046 379.833 82.5465V80.8607C379.755 80.9544 379.583 81.0402 379.318 81.1183C379.058 81.1911 378.756 81.2562 378.412 81.3134C378.074 81.3654 377.744 81.4122 377.421 81.4539C377.104 81.4903 376.846 81.5215 376.649 81.5475C376.17 81.61 375.722 81.7114 375.306 81.8519C374.895 81.9872 374.562 82.1927 374.307 82.4685C374.058 82.739 373.933 83.1084 373.933 83.5767C373.933 84.2167 374.169 84.7006 374.643 85.0284C375.122 85.351 375.728 85.5123 376.461 85.5123ZM389.151 74.898V76.4589H382.939V74.898H389.151ZM384.749 72.0259H386.591V83.4518C386.591 83.9722 386.667 84.3624 386.818 84.6225C386.974 84.8775 387.171 85.0492 387.411 85.1376C387.655 85.2209 387.913 85.2625 388.183 85.2625C388.386 85.2625 388.553 85.2521 388.683 85.2313C388.813 85.2053 388.917 85.1845 388.995 85.1689L389.37 86.8234C389.245 86.8703 389.071 86.9171 388.847 86.9639C388.623 87.0159 388.34 87.042 387.996 87.042C387.476 87.042 386.966 86.9301 386.466 86.7064C385.972 86.4826 385.561 86.1418 385.233 85.684C384.911 85.2261 384.749 84.6485 384.749 83.9513V72.0259ZM390.823 86.8859V74.898H392.665V86.8859H390.823ZM391.759 72.9C391.4 72.9 391.091 72.7778 390.831 72.5332C390.576 72.2887 390.448 71.9947 390.448 71.6513C390.448 71.3079 390.576 71.0139 390.831 70.7694C391.091 70.5249 391.4 70.4026 391.759 70.4026C392.118 70.4026 392.425 70.5249 392.68 70.7694C392.941 71.0139 393.071 71.3079 393.071 71.6513C393.071 71.9947 392.941 72.2887 392.68 72.5332C392.425 72.7778 392.118 72.9 391.759 72.9ZM399.81 87.1356C398.727 87.1356 397.778 86.8781 396.961 86.363C396.149 85.8479 395.514 85.1272 395.057 84.2011C394.604 83.2749 394.378 82.1927 394.378 80.9544C394.378 79.7056 394.604 78.6156 395.057 77.6843C395.514 76.7529 396.149 76.0297 396.961 75.5146C397.778 74.9995 398.727 74.7419 399.81 74.7419C400.892 74.7419 401.839 74.9995 402.65 75.5146C403.467 76.0297 404.102 76.7529 404.555 77.6843C405.013 78.6156 405.242 79.7056 405.242 80.9544C405.242 82.1927 405.013 83.2749 404.555 84.2011C404.102 85.1272 403.467 85.8479 402.65 86.363C401.839 86.8781 400.892 87.1356 399.81 87.1356ZM399.81 85.481C400.632 85.481 401.308 85.2703 401.839 84.8489C402.369 84.4274 402.762 83.8733 403.017 83.1865C403.272 82.4997 403.4 81.7556 403.4 80.9544C403.4 80.1531 403.272 79.4065 403.017 78.7145C402.762 78.0225 402.369 77.4631 401.839 77.0365C401.308 76.6098 400.632 76.3965 399.81 76.3965C398.987 76.3965 398.311 76.6098 397.78 77.0365C397.25 77.4631 396.857 78.0225 396.602 78.7145C396.347 79.4065 396.219 80.1531 396.219 80.9544C396.219 81.7556 396.347 82.4997 396.602 83.1865C396.857 83.8733 397.25 84.4274 397.78 84.8489C398.311 85.2703 398.987 85.481 399.81 85.481ZM408.796 79.6744V86.8859H406.954V74.898H408.734V76.7711H408.89C409.171 76.1624 409.597 75.6733 410.17 75.3039C410.742 74.9292 411.481 74.7419 412.386 74.7419C413.198 74.7419 413.908 74.9084 414.517 75.2414C415.126 75.5692 415.599 76.0687 415.937 76.7399C416.276 77.4059 416.445 78.2488 416.445 79.2686V86.8859H414.603V79.3935C414.603 78.4517 414.358 77.7181 413.869 77.1926C413.38 76.6619 412.709 76.3965 411.856 76.3965C411.268 76.3965 410.742 76.524 410.279 76.7789C409.821 77.0339 409.459 77.4059 409.194 77.895C408.929 78.3841 408.796 78.9772 408.796 79.6744ZM421.146 70.9021L420.99 82.3904H419.18L419.024 70.9021H421.146ZM420.085 87.0107C419.7 87.0107 419.37 86.8729 419.094 86.5971C418.818 86.3213 418.68 85.9909 418.68 85.6059C418.68 85.2209 418.818 84.8905 419.094 84.6147C419.37 84.339 419.7 84.2011 420.085 84.2011C420.47 84.2011 420.8 84.339 421.076 84.6147C421.352 84.8905 421.49 85.2209 421.49 85.6059C421.49 85.8609 421.425 86.095 421.295 86.3083C421.17 86.5217 421.001 86.6934 420.787 86.8234C420.579 86.9483 420.345 87.0107 420.085 87.0107Z" fill="#3F3F3F"/>
</g>
<g filter="url(#filter1_d_454_502)">
<rect x="29" y="123.028" width="526" height="172.891" rx="20" fill="#F5F5F5" fill-opacity="0.8" shape-rendering="crispEdges"/>
<path d="M260.678 158.379V156.089H276.661V158.379H269.96V177.401H267.379V158.379H260.678ZM282.84 177.776C281.827 177.776 280.908 177.585 280.082 177.203C279.257 176.815 278.601 176.256 278.116 175.528C277.63 174.793 277.387 173.905 277.387 172.864C277.387 171.948 277.568 171.206 277.928 170.637C278.289 170.061 278.771 169.61 279.375 169.284C279.978 168.958 280.644 168.715 281.373 168.556C282.108 168.389 282.847 168.258 283.589 168.16C284.56 168.036 285.348 167.942 285.951 167.88C286.562 167.81 287.006 167.696 287.283 167.536C287.568 167.377 287.71 167.099 287.71 166.704V166.62C287.71 165.594 287.429 164.796 286.867 164.227C286.312 163.658 285.469 163.374 284.338 163.374C283.166 163.374 282.247 163.63 281.581 164.144C280.915 164.657 280.447 165.205 280.176 165.788L277.845 164.955C278.261 163.984 278.816 163.228 279.51 162.687C280.211 162.139 280.974 161.757 281.799 161.542C282.632 161.32 283.451 161.209 284.255 161.209C284.769 161.209 285.358 161.272 286.024 161.397C286.697 161.514 287.346 161.761 287.97 162.135C288.602 162.51 289.125 163.075 289.542 163.832C289.958 164.588 290.166 165.601 290.166 166.87V177.401H287.71V175.237H287.585C287.419 175.584 287.141 175.955 286.753 176.35C286.364 176.746 285.847 177.082 285.202 177.359C284.557 177.637 283.77 177.776 282.84 177.776ZM283.215 175.57C284.186 175.57 285.004 175.379 285.67 174.997C286.343 174.616 286.85 174.123 287.19 173.52C287.537 172.916 287.71 172.281 287.71 171.615V169.368C287.606 169.492 287.377 169.607 287.023 169.711C286.676 169.808 286.274 169.895 285.816 169.971C285.365 170.041 284.925 170.103 284.495 170.158C284.071 170.207 283.728 170.249 283.464 170.283C282.826 170.367 282.23 170.502 281.675 170.689C281.126 170.87 280.682 171.144 280.343 171.511C280.01 171.872 279.843 172.365 279.843 172.989C279.843 173.842 280.159 174.487 280.79 174.924C281.428 175.355 282.236 175.57 283.215 175.57ZM296.938 171.574L296.896 168.535H297.396L304.388 161.417H307.427L299.976 168.951H299.768L296.938 171.574ZM294.648 177.401V156.089H297.104V177.401H294.648ZM304.805 177.401L298.561 169.492L300.309 167.786L307.927 177.401H304.805ZM316.631 177.734C315.091 177.734 313.763 177.394 312.646 176.714C311.536 176.028 310.679 175.07 310.075 173.842C309.479 172.607 309.18 171.171 309.18 169.534C309.18 167.897 309.479 166.454 310.075 165.205C310.679 163.949 311.518 162.971 312.594 162.271C313.676 161.563 314.939 161.209 316.382 161.209C317.214 161.209 318.036 161.348 318.848 161.625C319.659 161.903 320.398 162.354 321.064 162.978C321.73 163.596 322.261 164.414 322.656 165.434C323.052 166.454 323.25 167.71 323.25 169.201V170.242H310.929V168.119H320.752C320.752 167.217 320.572 166.412 320.211 165.705C319.857 164.997 319.351 164.439 318.692 164.029C318.04 163.62 317.27 163.415 316.382 163.415C315.403 163.415 314.557 163.658 313.842 164.144C313.135 164.622 312.59 165.247 312.209 166.017C311.827 166.787 311.636 167.612 311.636 168.493V169.909C311.636 171.116 311.844 172.139 312.261 172.979C312.684 173.811 313.27 174.446 314.019 174.883C314.769 175.313 315.639 175.528 316.631 175.528C317.276 175.528 317.859 175.438 318.379 175.257C318.907 175.07 319.361 174.793 319.743 174.425C320.124 174.05 320.419 173.586 320.627 173.031L323 173.697C322.75 174.501 322.33 175.209 321.741 175.819C321.151 176.423 320.423 176.895 319.555 177.235C318.688 177.568 317.714 177.734 316.631 177.734Z" fill="black"/>
<line opacity="0.5" x1="29" y1="208.987" x2="555" y2="208.987" stroke="#999999" stroke-opacity="0.5" stroke-width="0.972937"/>
<path d="M177.366 263.847V242.535H184.567C186.232 242.535 187.599 242.82 188.667 243.388C189.736 243.95 190.527 244.724 191.04 245.709C191.553 246.694 191.81 247.814 191.81 249.07C191.81 250.326 191.553 251.439 191.04 252.41C190.527 253.382 189.739 254.145 188.678 254.7C187.616 255.248 186.26 255.522 184.609 255.522H178.781V253.191H184.526C185.663 253.191 186.579 253.024 187.273 252.691C187.974 252.358 188.48 251.887 188.792 251.276C189.111 250.659 189.271 249.923 189.271 249.07C189.271 248.217 189.111 247.471 188.792 246.833C188.473 246.195 187.963 245.702 187.262 245.355C186.562 245.001 185.636 244.824 184.484 244.824H179.947V263.847H177.366ZM187.398 254.273L192.642 263.847H189.645L184.484 254.273H187.398ZM202.307 264.18C200.767 264.18 199.438 263.84 198.322 263.16C197.212 262.473 196.355 261.516 195.751 260.288C195.155 259.053 194.856 257.617 194.856 255.98C194.856 254.343 195.155 252.9 195.751 251.651C196.355 250.395 197.194 249.417 198.27 248.716C199.352 248.009 200.614 247.655 202.057 247.655C202.89 247.655 203.712 247.794 204.524 248.071C205.335 248.349 206.074 248.8 206.74 249.424C207.406 250.041 207.937 250.86 208.332 251.88C208.728 252.9 208.925 254.155 208.925 255.647V256.687H196.605V254.565H206.428C206.428 253.663 206.248 252.858 205.887 252.15C205.533 251.443 205.027 250.884 204.368 250.475C203.715 250.066 202.945 249.861 202.057 249.861C201.079 249.861 200.233 250.104 199.518 250.589C198.811 251.068 198.266 251.692 197.884 252.463C197.503 253.233 197.312 254.058 197.312 254.939V256.354C197.312 257.562 197.52 258.585 197.937 259.424C198.36 260.257 198.946 260.891 199.695 261.329C200.444 261.759 201.315 261.974 202.307 261.974C202.952 261.974 203.535 261.884 204.055 261.703C204.583 261.516 205.037 261.238 205.419 260.871C205.8 260.496 206.095 260.031 206.303 259.476L208.676 260.142C208.426 260.947 208.006 261.655 207.416 262.265C206.827 262.869 206.098 263.34 205.231 263.68C204.364 264.013 203.389 264.18 202.307 264.18ZM212.661 263.847V247.863H215.034V250.36H215.242C215.575 249.507 216.113 248.845 216.855 248.373C217.597 247.894 218.489 247.655 219.529 247.655C220.584 247.655 221.461 247.894 222.162 248.373C222.87 248.845 223.421 249.507 223.817 250.36H223.983C224.392 249.535 225.006 248.879 225.825 248.394C226.644 247.901 227.625 247.655 228.77 247.655C230.199 247.655 231.368 248.102 232.277 248.997C233.186 249.885 233.64 251.269 233.64 253.149V263.847H231.184V253.149C231.184 251.97 230.861 251.127 230.216 250.621C229.571 250.114 228.811 249.861 227.937 249.861C226.813 249.861 225.943 250.201 225.325 250.881C224.708 251.554 224.399 252.407 224.399 253.441V263.847H221.902V252.9C221.902 251.991 221.607 251.259 221.017 250.704C220.428 250.142 219.668 249.861 218.738 249.861C218.1 249.861 217.503 250.031 216.948 250.371C216.4 250.711 215.956 251.183 215.617 251.786C215.284 252.383 215.117 253.073 215.117 253.857V263.847H212.661ZM238.13 263.847V247.863H240.586V263.847H238.13ZM239.379 245.199C238.9 245.199 238.487 245.036 238.141 244.71C237.801 244.384 237.631 243.992 237.631 243.534C237.631 243.076 237.801 242.684 238.141 242.358C238.487 242.032 238.9 241.869 239.379 241.869C239.858 241.869 240.267 242.032 240.607 242.358C240.954 242.684 241.127 243.076 241.127 243.534C241.127 243.992 240.954 244.384 240.607 244.71C240.267 245.036 239.858 245.199 239.379 245.199ZM247.54 254.232V263.847H245.084V247.863H247.457V250.36H247.665C248.039 249.549 248.608 248.897 249.371 248.404C250.134 247.905 251.12 247.655 252.327 247.655C253.409 247.655 254.356 247.877 255.168 248.321C255.979 248.758 256.611 249.424 257.061 250.319C257.512 251.207 257.738 252.331 257.738 253.69V263.847H255.282V253.857C255.282 252.601 254.956 251.623 254.304 250.922C253.652 250.215 252.757 249.861 251.619 249.861C250.835 249.861 250.134 250.031 249.517 250.371C248.907 250.711 248.424 251.207 248.071 251.859C247.717 252.511 247.54 253.302 247.54 254.232ZM268.261 264.18C266.929 264.18 265.753 263.843 264.733 263.17C263.714 262.491 262.916 261.533 262.34 260.298C261.764 259.057 261.476 257.589 261.476 255.897C261.476 254.218 261.764 252.761 262.34 251.526C262.916 250.291 263.717 249.337 264.744 248.664C265.771 247.991 266.957 247.655 268.303 247.655C269.343 247.655 270.165 247.828 270.769 248.175C271.379 248.515 271.844 248.904 272.163 249.341C272.489 249.771 272.743 250.125 272.923 250.402H273.131V242.535H275.587V263.847H273.214V261.391H272.923C272.743 261.682 272.486 262.05 272.153 262.494C271.82 262.931 271.345 263.323 270.727 263.67C270.11 264.01 269.288 264.18 268.261 264.18ZM268.594 261.974C269.579 261.974 270.412 261.717 271.092 261.204C271.771 260.683 272.288 259.965 272.642 259.05C272.996 258.127 273.173 257.062 273.173 255.855C273.173 254.662 272.999 253.618 272.652 252.723C272.306 251.821 271.792 251.12 271.112 250.621C270.432 250.114 269.593 249.861 268.594 249.861C267.553 249.861 266.686 250.128 265.993 250.662C265.306 251.189 264.789 251.908 264.442 252.816C264.102 253.718 263.932 254.731 263.932 255.855C263.932 256.993 264.106 258.026 264.452 258.956C264.806 259.879 265.327 260.614 266.013 261.162C266.707 261.703 267.567 261.974 268.594 261.974ZM289 242.535H292.081L299.323 260.225H299.573L306.816 242.535H309.896V263.847H307.482V247.655H307.274L300.614 263.847H298.283L291.623 247.655H291.415V263.847H289V242.535ZM321.439 264.18C319.899 264.18 318.57 263.84 317.453 263.16C316.343 262.473 315.487 261.516 314.883 260.288C314.286 259.053 313.988 257.617 313.988 255.98C313.988 254.343 314.286 252.9 314.883 251.651C315.487 250.395 316.326 249.417 317.401 248.716C318.484 248.009 319.746 247.655 321.189 247.655C322.022 247.655 322.844 247.794 323.655 248.071C324.467 248.349 325.206 248.8 325.872 249.424C326.538 250.041 327.069 250.86 327.464 251.88C327.859 252.9 328.057 254.155 328.057 255.647V256.687H315.736V254.565H325.56C325.56 253.663 325.379 252.858 325.019 252.15C324.665 251.443 324.158 250.884 323.499 250.475C322.847 250.066 322.077 249.861 321.189 249.861C320.211 249.861 319.365 250.104 318.65 250.589C317.942 251.068 317.398 251.692 317.016 252.463C316.635 253.233 316.444 254.058 316.444 254.939V256.354C316.444 257.562 316.652 258.585 317.068 259.424C317.491 260.257 318.078 260.891 318.827 261.329C319.576 261.759 320.447 261.974 321.439 261.974C322.084 261.974 322.667 261.884 323.187 261.703C323.714 261.516 324.169 261.238 324.55 260.871C324.932 260.496 325.227 260.031 325.435 259.476L327.807 260.142C327.558 260.947 327.138 261.655 326.548 262.265C325.959 262.869 325.23 263.34 324.363 263.68C323.496 264.013 322.521 264.18 321.439 264.18ZM340.368 263.847V242.535H342.948V261.557H352.855V263.847H340.368ZM361.221 264.221C360.209 264.221 359.289 264.031 358.464 263.649C357.638 263.261 356.983 262.702 356.497 261.974C356.011 261.238 355.769 260.35 355.769 259.31C355.769 258.394 355.949 257.652 356.31 257.083C356.671 256.507 357.153 256.056 357.756 255.73C358.36 255.404 359.026 255.161 359.754 255.002C360.49 254.835 361.228 254.703 361.971 254.606C362.942 254.481 363.729 254.388 364.333 254.325C364.943 254.256 365.387 254.141 365.665 253.982C365.949 253.822 366.092 253.545 366.092 253.149V253.066C366.092 252.039 365.811 251.242 365.249 250.673C364.694 250.104 363.851 249.819 362.72 249.819C361.548 249.819 360.628 250.076 359.962 250.589C359.296 251.103 358.828 251.651 358.558 252.234L356.227 251.401C356.643 250.43 357.198 249.674 357.892 249.133C358.592 248.584 359.355 248.203 360.181 247.988C361.013 247.766 361.832 247.655 362.637 247.655C363.15 247.655 363.74 247.717 364.406 247.842C365.079 247.96 365.727 248.206 366.352 248.581C366.983 248.956 367.507 249.521 367.923 250.277C368.339 251.033 368.547 252.046 368.547 253.316V263.847H366.092V261.682H365.967C365.8 262.029 365.523 262.4 365.134 262.796C364.746 263.191 364.229 263.528 363.584 263.805C362.938 264.083 362.151 264.221 361.221 264.221ZM361.596 262.015C362.567 262.015 363.386 261.825 364.052 261.443C364.725 261.061 365.231 260.569 365.571 259.965C365.918 259.362 366.092 258.727 366.092 258.061V255.813C365.987 255.938 365.759 256.053 365.405 256.157C365.058 256.254 364.656 256.341 364.198 256.417C363.747 256.486 363.306 256.549 362.876 256.604C362.453 256.653 362.109 256.694 361.846 256.729C361.208 256.812 360.611 256.948 360.056 257.135C359.508 257.315 359.064 257.589 358.724 257.957C358.391 258.318 358.225 258.81 358.225 259.435C358.225 260.288 358.54 260.933 359.171 261.37C359.81 261.8 360.618 262.015 361.596 262.015ZM379.981 247.863V249.944H371.698V247.863H379.981ZM374.112 244.034H376.568V259.268C376.568 259.962 376.668 260.482 376.87 260.829C377.078 261.169 377.341 261.398 377.661 261.516C377.987 261.627 378.33 261.682 378.691 261.682C378.961 261.682 379.183 261.668 379.357 261.641C379.53 261.606 379.669 261.578 379.773 261.557L380.272 263.764C380.106 263.826 379.874 263.888 379.575 263.951C379.277 264.02 378.899 264.055 378.441 264.055C377.747 264.055 377.067 263.906 376.401 263.607C375.742 263.309 375.194 262.855 374.757 262.244C374.327 261.634 374.112 260.864 374.112 259.934V244.034ZM390.205 264.18C388.665 264.18 387.336 263.84 386.22 263.16C385.11 262.473 384.253 261.516 383.649 260.288C383.053 259.053 382.754 257.617 382.754 255.98C382.754 254.343 383.053 252.9 383.649 251.651C384.253 250.395 385.092 249.417 386.168 248.716C387.25 248.009 388.512 247.655 389.955 247.655C390.788 247.655 391.61 247.794 392.422 248.071C393.233 248.349 393.972 248.8 394.638 249.424C395.304 250.041 395.835 250.86 396.23 251.88C396.626 252.9 396.823 254.155 396.823 255.647V256.687H384.503V254.565H394.326C394.326 253.663 394.146 252.858 393.785 252.15C393.431 251.443 392.925 250.884 392.266 250.475C391.613 250.066 390.843 249.861 389.955 249.861C388.977 249.861 388.131 250.104 387.416 250.589C386.709 251.068 386.164 251.692 385.783 252.463C385.401 253.233 385.21 254.058 385.21 254.939V256.354C385.21 257.562 385.418 258.585 385.835 259.424C386.258 260.257 386.844 260.891 387.593 261.329C388.342 261.759 389.213 261.974 390.205 261.974C390.85 261.974 391.433 261.884 391.953 261.703C392.481 261.516 392.935 261.238 393.317 260.871C393.698 260.496 393.993 260.031 394.201 259.476L396.574 260.142C396.324 260.947 395.904 261.655 395.315 262.265C394.725 262.869 393.996 263.34 393.129 263.68C392.262 264.013 391.287 264.18 390.205 264.18ZM400.559 263.847V247.863H402.932V250.277H403.098C403.39 249.486 403.917 248.845 404.68 248.352C405.443 247.86 406.303 247.613 407.261 247.613C407.441 247.613 407.667 247.617 407.937 247.624C408.208 247.631 408.412 247.641 408.551 247.655V250.152C408.468 250.132 408.277 250.1 407.979 250.059C407.687 250.01 407.379 249.986 407.053 249.986C406.276 249.986 405.582 250.149 404.971 250.475C404.368 250.794 403.889 251.238 403.535 251.807C403.188 252.369 403.015 253.011 403.015 253.732V263.847H400.559Z" fill="black"/>
</g>
<defs>
<filter id="filter0_d_454_502" x="0.5" y="0.5" width="583" height="149.306" filterUnits="userSpaceOnUse" color-interpolation-filters="sRGB">
<feFlood flood-opacity="0" result="BackgroundImageFix"/>
<feColorMatrix in="SourceAlpha" type="matrix" values="0 0 0 0 0 0 0 0 0 0 0 0 0 0 0 0 0 0 127 0" result="hardAlpha"/>
<feOffset dy="10"/>
<feGaussianBlur stdDeviation="14.25"/>
<feComposite in2="hardAlpha" operator="out"/>
<feColorMatrix type="matrix" values="0 0 0 0 0.0627451 0 0 0 0 0.4 0 0 0 0 0.384314 0 0 0 0.25 0"/>
<feBlend mode="normal" in2="BackgroundImageFix" result="effect1_dropShadow_454_502"/>
<feBlend mode="normal" in="SourceGraphic" in2="effect1_dropShadow_454_502" result="shape"/>
</filter>
<filter id="filter1_d_454_502" x="0.5" y="104.528" width="583" height="229.891" filterUnits="userSpaceOnUse" color-interpolation-filters="sRGB">
<feFlood flood-opacity="0" result="BackgroundImageFix"/>
<feColorMatrix in="SourceAlpha" type="matrix" values="0 0 0 0 0 0 0 0 0 0 0 0 0 0 0 0 0 0 127 0" result="hardAlpha"/>
<feOffset dy="10"/>
<feGaussianBlur stdDeviation="14.25"/>
<feComposite in2="hardAlpha" operator="out"/>
<feColorMatrix type="matrix" values="0 0 0 0 0.0627451 0 0 0 0 0.4 0 0 0 0 0.384314 0 0 0 0.25 0"/>
<feBlend mode="normal" in2="BackgroundImageFix" result="effect1_dropShadow_454_502"/>
<feBlend mode="normal" in="SourceGraphic" in2="effect1_dropShadow_454_502" result="shape"/>
</filter>
</defs>
</svg>
