<?xml version="1.0" encoding="UTF-8"?>
<svg id="Layer_1" xmlns="http://www.w3.org/2000/svg" version="1.1" viewBox="0 0 24 24">
  <!-- Generator: Adobe Illustrator 29.0.1, SVG Export Plug-In . SVG Version: 2.1.0 Build 192)  -->
  <defs>
    <style>
      .st0 {
        fill: #ffe6c1;
      }

      .st1 {
        fill: #fff;
      }

      .st2 {
        fill: #d9edff;
      }

      .st3 {
        fill: #89ccc8;
      }

      .st4 {
        fill: #ffb057;
      }
    </style>
  </defs>
  <path class="st1" d="M70.4-5.3v29.9h-30V-5.3h30ZM67.3-5.2c-.2,0-.6.2-.8.3-.5.3-3.3,3-3.6,3.6-1.4,2.3,1.2,4.9,3.5,3.5s3.2-3,3.5-3.5c1.2-1.9-.4-4.2-2.6-3.8ZM51.7-1.2c-1.8.2-2.8,2.2-1.9,3.8s3,3.2,3.5,3.5c2.2,1.4,4.8-1.1,3.5-3.4s-3.1-3.3-3.6-3.6-1-.4-1.6-.3ZM60.7,2.7c-1.3.1-2.2,1.2-2.3,2.5s0,3,0,4.1c.2,3.3,4.8,3.3,5,0s0-3,0-4.1-1.2-2.6-2.7-2.5ZM45.5,13.3c-.2-.4-.7-.8-1.1-.5l-3.9,3.9c-.2.2-.2.5,0,.7l7,7c.3.3.6.1.8,0,1.3-1,2.5-2.7,3.7-3.7.4-.5,0-.8-.3-1.1l.2-.2h6.9s.8-.2.8-.2l8.3-4.8c1.7-1.5.3-4.2-1.9-3.4l-5.3,3c-.2-1-1-1.6-1.9-1.6-1.4-.1-2.9,0-4.3,0-.5-.4-.8-.8-1.5-.9s-3.6-.2-4.5,0-2.1,1.1-2.9,2h-.2Z"/>
  <path d="M33.4,40h.1c.6-.8,1.2-1.5,2.3-1.6s2.8,0,3.5,0,.7.4,1.1.7c1.1,0,2.2,0,3.3,0s1.3.5,1.5,1.3l4.1-2.3c1.7-.6,2.8,1.5,1.5,2.6l-6.4,3.7h-.6c0,.1-5.3.2-5.3.2v.2c0,.3.4.5.1.8-1,.8-1.9,2.1-2.9,2.9s-.4.3-.6,0l-5.4-5.4c-.2-.2-.2-.4,0-.6l3-3c.3-.2.7,0,.8.4ZM49.7,38.7c-.1,0-.3.1-.4.2-1.4.7-2.7,1.7-4.1,2.4-.8,1.5-2.7.8-4.1,1-.4,0-.4-.7,0-.8.8-.1,1.9,0,2.7,0s.8-1.4,0-1.5-2.3.1-3.4,0-.9-.7-1.5-.8c-1.1,0-2.3-.1-3.4,0s-1.1.9-1.6,1.3h0c0,.1,3.7,3.8,3.7,3.8.3-.2.5-.4.9-.4,1.7-.2,3.6.1,5.3,0,2.2-1.1,4.3-2.4,6.5-3.7.6-.5.2-1.5-.6-1.4ZM32.9,40.4l-2.4,2.4,4.9,4.9,2.4-2.4-4.9-4.9Z"/>
  <path d="M67.3-5.2c2.2-.3,3.8,1.9,2.6,3.8s-3,3.2-3.5,3.5c-2.3,1.4-4.9-1.1-3.5-3.5s3.1-3.2,3.6-3.6.6-.3.8-.3ZM67.4-4.2c-.6.1-1.3,1-1.7,1.4l2.1,2.1c.4-.5,1.3-1.1,1.4-1.7.2-1.1-.7-2-1.8-1.8ZM64.9-2c-.9.7-2.2,2.1-.9,3.2s2.3-.2,3.1-1.1l-2.1-2.1Z"/>
  <path d="M60.7,2.7c1.5-.1,2.6,1,2.7,2.5s0,3,0,4.1c-.2,3.3-4.8,3.3-5,0s0-3,0-4.1,1-2.3,2.3-2.5ZM62.4,6.7v-1.8s-.2-.4-.2-.4c-.6-1-2.1-1-2.6,0s-.2.4-.2.4v1.8h3ZM62.4,7.7h-3v1.8s.2.4.2.4c.6,1,2.1,1,2.6,0s.2-.4.2-.4v-1.8Z"/>
  <path d="M51.7-1.2c.5,0,1.1,0,1.6.3s3.3,3.1,3.6,3.6c1.3,2.3-1.2,4.8-3.5,3.4s-3.2-3-3.5-3.5c-1-1.6,0-3.6,1.9-3.8ZM51.5-.3c-.4,0-.8.5-1,.8-.6,1.2.6,2.1,1.4,2.8l2.1-2.1c-.8-.7-1.3-1.7-2.5-1.5ZM54.8,2l-2.1,2.1c.8.9,2,2.2,3.2,1s-.2-2.4-1.1-3.2Z"/>
  <path class="st0" d="M21.6,13.5c.8-.1,1.3.9.6,1.5-2.3,1.3-4.5,2.7-6.8,3.8-1.8.1-3.8-.2-5.5,0s-.6.2-.9.5l-3.9-3.9h0c.6-.5,1-1.4,1.7-1.4,1.1-.1,2.4,0,3.5,0,.6,0,.8.7,1.5.8,1.1.1,2.5-.2,3.5,0s.9,1.5,0,1.6-2-.1-2.8,0-.5.7,0,.8c1.5-.2,3.4.6,4.2-1,1.5-.7,2.9-1.8,4.3-2.5s.3-.2.4-.2Z"/>
  <polygon class="st0" points="3.9 15.2 9.1 20.4 6.6 22.9 1.4 17.8 3.9 15.2"/>
  <path class="st1" d="M67.4-4.2c1.1-.2,2,.7,1.8,1.8s-1,1.3-1.4,1.7l-2.1-2.1c.4-.5,1.1-1.3,1.7-1.4Z"/>
  <path class="st1" d="M64.9-2l2.1,2.1c-.7.9-1.9,2.1-3.1,1.1s0-2.5.9-3.2Z"/>
  <path class="st1" d="M62.4,6.7h-3v-1.8s.1-.3.2-.4c.5-1,2.1-1,2.6,0s.2.4.2.4v1.8Z"/>
  <path class="st1" d="M62.4,7.7v1.8s-.1.3-.2.4c-.5,1-2.1,1-2.6,0s-.2-.4-.2-.4v-1.8h3Z"/>
  <path class="st1" d="M51.5-.3c1.2-.2,1.7.7,2.5,1.5l-2.1,2.1c-.8-.7-2-1.6-1.4-2.8s.6-.7,1-.8Z"/>
  <path class="st1" d="M54.8,2c.9.7,2.2,2,1.1,3.2s-2.4-.1-3.2-1l2.1-2.1Z"/>
  <g id="Capsule_NO_SHADOWS">
    <g id="Capsule_NO_SHADOW">
      <path class="st3" d="M20.2,7.3h0c-.7-.4-1.7,0-2,.7l-.6,1.3c0,0,0,.1,0,.2l1.8.9.7.3s0,0,0,0c0,0,0,0,0,0,0,0,0,0,0,0l.3-.6.3-.6h0c.4-.8,0-1.7-.7-2.1h0Z"/>
      <path class="st4" d="M19.9,11l-.9-.5-1.6-.8s0,0,0,0,0,0,0,0l-.7,1.4s0,0,0,.1c0,0,0,0,0,0-.1.2-.1.5-.1.7,0,0,0,0,0,0,0,0,0,0,0,0,0,.5.4.9.8,1.1,0,0,0,0,.1,0,0,0,0,0,0,0,0,0,0,0,.1,0,0,0,0,0,0,0,0,0,0,0,.1,0,0,0,0,0,0,0,0,0,0,0,.1,0h0c.6,0,1.2-.3,1.5-.9l.7-1.4s0,0,0,0c0,0,0-.1,0-.1h0ZM17.6,13.5s0,0,.1,0c0,0,0,0-.1,0Z"/>
    </g>
  </g>
  <g id="Capsule_NO_SHADOWS1" data-name="Capsule_NO_SHADOWS">
    <g id="Capsule_NO_SHADOW1" data-name="Capsule_NO_SHADOW">
      <path class="st3" d="M9.6,6.1h0c-.6.6-.6,1.5,0,2.1l1,1c0,0,.1,0,.2,0l1.4-1.4.5-.5s0,0,0,0c0,0,0,0,0,0,0,0,0,0,0,0l-.5-.5-.5-.5h0c-.6-.6-1.5-.6-2.1,0h0Z"/>
      <path class="st4" d="M13,7.5l-.7.7-1.2,1.2s0,0,0,0,0,0,0,0l1.1,1.1s0,0,.1.1c0,0,0,0,0,0,.2.2.4.3.7.4,0,0,0,0,0,0,0,0,0,0,0,0,.5,0,1,0,1.3-.4,0,0,0,0,.1-.1,0,0,0,0,0,0,0,0,0,0,0,0,0,0,0,0,0,0,0,0,0,0,0,0,0,0,0,0,0,0,0,0,0,0,0-.1h0c.2-.5,0-1.2-.4-1.7l-1.1-1.1s0,0,0,0c0,0-.1,0-.1,0h0ZM14.6,10.6s0,0,0-.1c0,0,0,0,0,.1Z"/>
    </g>
  </g>
  <g id="Capsule_NO_SHADOWS2" data-name="Capsule_NO_SHADOWS">
    <g id="Capsule_NO_SHADOW2" data-name="Capsule_NO_SHADOW">
      <path class="st3" d="M20.6,1.4h0c-.5-.6-1.5-.7-2.1-.2l-1.1.9c0,0,0,.1,0,.2l1.3,1.5.5.6s0,0,0,0c0,0,0,0,0,0,0,0,0,0,0,0l.5-.5.5-.4h0c.6-.6.7-1.5.2-2.2h0Z"/>
      <path class="st4" d="M18.9,4.6l-.7-.8-1.1-1.3s0,0,0,0,0,0,0,0l-1.2,1s0,0-.1.1c0,0,0,0,0,0-.2.2-.3.4-.4.6,0,0,0,0,0,0,0,0,0,0,0,0-.1.5,0,1,.3,1.4,0,0,0,0,.1.1,0,0,0,0,0,0,0,0,0,0,0,0,0,0,0,0,0,0,0,0,0,0,0,0,0,0,0,0,0,0,0,0,0,0,.1,0h0c.5.2,1.2.2,1.7-.2l1.2-1s0,0,0,0c0,0,0-.1,0-.1h0ZM15.7,6s0,0,0,0c0,0,0,0,0,0Z"/>
    </g>
  </g>
  <ellipse class="st2" cx="-92.2" cy="-26.6" rx="34.9" ry="37.5"/>
  <ellipse class="st0" cx="-82.6" cy="48.7" rx="34.9" ry="37.5"/>
</svg>